<svg width="315" height="262" viewBox="0 0 315 262" fill="none" xmlns="http://www.w3.org/2000/svg">
<g filter="url(#filter0_i_5666_47)">
<path fill-rule="evenodd" clip-rule="evenodd" d="M247.485 50.0278C246.22 49.4987 245.588 49.2341 245.116 48.9293C244.651 48.6289 244.35 48.3795 243.969 47.9784C243.582 47.5715 243.202 46.9959 242.443 45.8446C224.231 18.2256 192.931 0 157.373 0C116.966 0 82.056 23.5364 65.6048 57.6476C64.8981 59.1131 64.5447 59.8458 64.1468 60.3633C63.7528 60.8758 63.4334 61.1904 62.9151 61.5767C62.3917 61.9668 61.6551 62.3086 60.1818 62.9921C24.645 79.4799 0 115.477 0 157.23C0 214.123 45.7575 260.329 102.478 261.053C102.481 261.053 102.483 261.055 102.483 261.057V261.057C102.483 261.06 102.485 261.062 102.487 261.062H103.717L103.831 261.062L103.946 261.062L204.966 261.062L207.113 261.062C207.118 261.062 207.123 261.057 207.123 261.051V261.051C207.123 261.045 207.128 261.041 207.133 261.041C266.903 259.889 315 211.196 315 151.297C315 105.712 287.143 66.617 247.485 50.0278Z" fill="url(#paint0_linear_5666_47)"/>
</g>
<g filter="url(#filter1_i_5666_47)">
<path fill-rule="evenodd" clip-rule="evenodd" d="M250.655 60.9569C245.663 58.4467 243.167 57.1915 242.001 56.3826C240.413 55.2812 240.47 55.3296 239.115 53.9518C238.119 52.94 236.412 50.6314 232.997 46.0143C215.92 22.9232 188.46 7.94617 157.495 7.94617C122.043 7.94617 91.1862 27.5784 75.2443 56.5431C71.9356 62.5546 70.2813 65.5604 69.2659 66.8534C67.8604 68.6432 67.9716 68.5295 66.2141 69.9753C64.9445 71.0197 62.0461 72.7017 56.2494 76.0658C27.7164 92.6247 8.62988 122.778 8.62988 157.23C8.62988 208.102 50.2446 249.601 102.438 251.8C102.463 251.801 102.483 251.822 102.483 251.846V251.846C102.483 251.872 102.503 251.892 102.528 251.892L106.798 251.892L204.965 251.892H208.706C208.725 251.892 208.741 251.876 208.741 251.857V251.857C208.741 251.838 208.756 251.823 208.775 251.822C263.014 249.83 306.369 205.465 306.369 151.027C306.369 111.67 283.707 77.5782 250.655 60.9569Z" fill="url(#paint1_linear_5666_47)"/>
</g>
<g filter="url(#filter2_ddi_5666_47)">
<path d="M102.337 137.106C102.337 106.707 126.98 82.0636 157.379 82.0636V82.0636C187.778 82.0636 212.421 106.707 212.421 137.106V137.106C212.421 167.505 187.778 192.148 157.379 192.148H102.337V137.106Z" fill="url(#paint2_linear_5666_47)" shape-rendering="crispEdges"/>
</g>
<g filter="url(#filter3_ddi_5666_47)">
<path d="M160.317 149.397C160.317 125.787 179.457 106.647 203.067 106.647V106.647C226.677 106.647 245.816 125.787 245.816 149.397V149.397C245.816 173.007 226.677 192.146 203.067 192.146H160.317V149.397Z" fill="url(#paint3_linear_5666_47)" shape-rendering="crispEdges"/>
</g>
<g filter="url(#filter4_ddi_5666_47)">
<rect x="65.6455" y="118.759" width="73.3896" height="73.3896" rx="36.6948" fill="url(#paint4_linear_5666_47)" shape-rendering="crispEdges"/>
</g>
<defs>
<filter id="filter0_i_5666_47" x="0" y="0" width="315" height="262.325" filterUnits="userSpaceOnUse" color-interpolation-filters="sRGB">
<feFlood flood-opacity="0" result="BackgroundImageFix"/>
<feBlend mode="normal" in="SourceGraphic" in2="BackgroundImageFix" result="shape"/>
<feColorMatrix in="SourceAlpha" type="matrix" values="0 0 0 0 0 0 0 0 0 0 0 0 0 0 0 0 0 0 127 0" result="hardAlpha"/>
<feOffset dy="1.26316"/>
<feGaussianBlur stdDeviation="1.26316"/>
<feComposite in2="hardAlpha" operator="arithmetic" k2="-1" k3="1"/>
<feColorMatrix type="matrix" values="0 0 0 0 1 0 0 0 0 1 0 0 0 0 1 0 0 0 0.95 0"/>
<feBlend mode="normal" in2="shape" result="effect1_innerShadow_5666_47"/>
</filter>
<filter id="filter1_i_5666_47" x="8.62988" y="7.94617" width="297.739" height="245.209" filterUnits="userSpaceOnUse" color-interpolation-filters="sRGB">
<feFlood flood-opacity="0" result="BackgroundImageFix"/>
<feBlend mode="normal" in="SourceGraphic" in2="BackgroundImageFix" result="shape"/>
<feColorMatrix in="SourceAlpha" type="matrix" values="0 0 0 0 0 0 0 0 0 0 0 0 0 0 0 0 0 0 127 0" result="hardAlpha"/>
<feOffset dy="1.26316"/>
<feGaussianBlur stdDeviation="1.26316"/>
<feComposite in2="hardAlpha" operator="arithmetic" k2="-1" k3="1"/>
<feColorMatrix type="matrix" values="0 0 0 0 1 0 0 0 0 1 0 0 0 0 1 0 0 0 0.75 0"/>
<feBlend mode="normal" in2="shape" result="effect1_innerShadow_5666_47"/>
</filter>
<filter id="filter2_ddi_5666_47" x="68.2317" y="63.7478" width="178.294" height="178.295" filterUnits="userSpaceOnUse" color-interpolation-filters="sRGB">
<feFlood flood-opacity="0" result="BackgroundImageFix"/>
<feColorMatrix in="SourceAlpha" type="matrix" values="0 0 0 0 0 0 0 0 0 0 0 0 0 0 0 0 0 0 127 0" result="hardAlpha"/>
<feOffset dy="15.7895"/>
<feGaussianBlur stdDeviation="17.0526"/>
<feComposite in2="hardAlpha" operator="out"/>
<feColorMatrix type="matrix" values="0 0 0 0 0 0 0 0 0 0 0 0 0 0 0 0 0 0 0.3 0"/>
<feBlend mode="normal" in2="BackgroundImageFix" result="effect1_dropShadow_5666_47"/>
<feColorMatrix in="SourceAlpha" type="matrix" values="0 0 0 0 0 0 0 0 0 0 0 0 0 0 0 0 0 0 127 0" result="hardAlpha"/>
<feOffset dy="5.6842"/>
<feGaussianBlur stdDeviation="0.631578"/>
<feComposite in2="hardAlpha" operator="out"/>
<feColorMatrix type="matrix" values="0 0 0 0 0 0 0 0 0 0 0 0 0 0 0 0 0 0 0.1 0"/>
<feBlend mode="normal" in2="effect1_dropShadow_5666_47" result="effect2_dropShadow_5666_47"/>
<feBlend mode="normal" in="SourceGraphic" in2="effect2_dropShadow_5666_47" result="shape"/>
<feColorMatrix in="SourceAlpha" type="matrix" values="0 0 0 0 0 0 0 0 0 0 0 0 0 0 0 0 0 0 127 0" result="hardAlpha"/>
<feOffset dy="-2.52631"/>
<feGaussianBlur stdDeviation="1.26316"/>
<feComposite in2="hardAlpha" operator="arithmetic" k2="-1" k3="1"/>
<feColorMatrix type="matrix" values="0 0 0 0 1 0 0 0 0 1 0 0 0 0 1 0 0 0 0.55 0"/>
<feBlend mode="normal" in2="shape" result="effect3_innerShadow_5666_47"/>
</filter>
<filter id="filter3_ddi_5666_47" x="126.212" y="88.3315" width="153.709" height="153.709" filterUnits="userSpaceOnUse" color-interpolation-filters="sRGB">
<feFlood flood-opacity="0" result="BackgroundImageFix"/>
<feColorMatrix in="SourceAlpha" type="matrix" values="0 0 0 0 0 0 0 0 0 0 0 0 0 0 0 0 0 0 127 0" result="hardAlpha"/>
<feOffset dy="15.7895"/>
<feGaussianBlur stdDeviation="17.0526"/>
<feComposite in2="hardAlpha" operator="out"/>
<feColorMatrix type="matrix" values="0 0 0 0 0 0 0 0 0 0 0 0 0 0 0 0 0 0 0.3 0"/>
<feBlend mode="normal" in2="BackgroundImageFix" result="effect1_dropShadow_5666_47"/>
<feColorMatrix in="SourceAlpha" type="matrix" values="0 0 0 0 0 0 0 0 0 0 0 0 0 0 0 0 0 0 127 0" result="hardAlpha"/>
<feOffset dy="5.6842"/>
<feGaussianBlur stdDeviation="0.631578"/>
<feComposite in2="hardAlpha" operator="out"/>
<feColorMatrix type="matrix" values="0 0 0 0 0 0 0 0 0 0 0 0 0 0 0 0 0 0 0.1 0"/>
<feBlend mode="normal" in2="effect1_dropShadow_5666_47" result="effect2_dropShadow_5666_47"/>
<feBlend mode="normal" in="SourceGraphic" in2="effect2_dropShadow_5666_47" result="shape"/>
<feColorMatrix in="SourceAlpha" type="matrix" values="0 0 0 0 0 0 0 0 0 0 0 0 0 0 0 0 0 0 127 0" result="hardAlpha"/>
<feOffset dy="-2.52631"/>
<feGaussianBlur stdDeviation="1.26316"/>
<feComposite in2="hardAlpha" operator="arithmetic" k2="-1" k3="1"/>
<feColorMatrix type="matrix" values="0 0 0 0 1 0 0 0 0 1 0 0 0 0 1 0 0 0 0.55 0"/>
<feBlend mode="normal" in2="shape" result="effect3_innerShadow_5666_47"/>
</filter>
<filter id="filter4_ddi_5666_47" x="31.5403" y="100.443" width="141.6" height="141.6" filterUnits="userSpaceOnUse" color-interpolation-filters="sRGB">
<feFlood flood-opacity="0" result="BackgroundImageFix"/>
<feColorMatrix in="SourceAlpha" type="matrix" values="0 0 0 0 0 0 0 0 0 0 0 0 0 0 0 0 0 0 127 0" result="hardAlpha"/>
<feOffset dy="15.7895"/>
<feGaussianBlur stdDeviation="17.0526"/>
<feComposite in2="hardAlpha" operator="out"/>
<feColorMatrix type="matrix" values="0 0 0 0 0 0 0 0 0 0 0 0 0 0 0 0 0 0 0.3 0"/>
<feBlend mode="normal" in2="BackgroundImageFix" result="effect1_dropShadow_5666_47"/>
<feColorMatrix in="SourceAlpha" type="matrix" values="0 0 0 0 0 0 0 0 0 0 0 0 0 0 0 0 0 0 127 0" result="hardAlpha"/>
<feOffset dy="5.6842"/>
<feGaussianBlur stdDeviation="0.631578"/>
<feComposite in2="hardAlpha" operator="out"/>
<feColorMatrix type="matrix" values="0 0 0 0 0 0 0 0 0 0 0 0 0 0 0 0 0 0 0.1 0"/>
<feBlend mode="normal" in2="effect1_dropShadow_5666_47" result="effect2_dropShadow_5666_47"/>
<feBlend mode="normal" in="SourceGraphic" in2="effect2_dropShadow_5666_47" result="shape"/>
<feColorMatrix in="SourceAlpha" type="matrix" values="0 0 0 0 0 0 0 0 0 0 0 0 0 0 0 0 0 0 127 0" result="hardAlpha"/>
<feOffset dy="-2.52631"/>
<feGaussianBlur stdDeviation="1.26316"/>
<feComposite in2="hardAlpha" operator="arithmetic" k2="-1" k3="1"/>
<feColorMatrix type="matrix" values="0 0 0 0 1 0 0 0 0 1 0 0 0 0 1 0 0 0 0.55 0"/>
<feBlend mode="normal" in2="shape" result="effect3_innerShadow_5666_47"/>
</filter>
<linearGradient id="paint0_linear_5666_47" x1="-14.5913" y1="1.13643" x2="215.483" y2="307.963" gradientUnits="userSpaceOnUse">
<stop stop-color="#FF00A0"/>
<stop offset="1" stop-color="#9600FF"/>
</linearGradient>
<linearGradient id="paint1_linear_5666_47" x1="138.625" y1="23.1988" x2="185.076" y2="253.176" gradientUnits="userSpaceOnUse">
<stop stop-color="#252429"/>
<stop offset="1"/>
<stop offset="1"/>
<stop offset="1"/>
</linearGradient>
<linearGradient id="paint2_linear_5666_47" x1="157.379" y1="82.0636" x2="157.379" y2="192.148" gradientUnits="userSpaceOnUse">
<stop stop-color="white"/>
<stop offset="1" stop-color="white" stop-opacity="0.7"/>
</linearGradient>
<linearGradient id="paint3_linear_5666_47" x1="203.067" y1="106.647" x2="203.067" y2="192.146" gradientUnits="userSpaceOnUse">
<stop stop-color="white"/>
<stop offset="1" stop-color="white" stop-opacity="0.7"/>
</linearGradient>
<linearGradient id="paint4_linear_5666_47" x1="102.34" y1="118.759" x2="102.34" y2="192.148" gradientUnits="userSpaceOnUse">
<stop stop-color="white"/>
<stop offset="1" stop-color="white" stop-opacity="0.7"/>
</linearGradient>
</defs>
</svg>
