<svg width="824" height="824" viewBox="0 0 824 824" fill="none" xmlns="http://www.w3.org/2000/svg">
<path fill-rule="evenodd" clip-rule="evenodd" d="M21.604 108.226C0 150.626 0 206.132 0 317.141V506.859C0 617.868 0 673.374 21.604 715.774C40.6074 753.069 70.9302 783.393 108.226 802.396C150.626 824 206.132 824 317.141 824H506.859C617.868 824 673.374 824 715.774 802.396C753.069 783.393 783.393 753.069 802.396 715.774C824 673.374 824 617.868 824 506.859V317.141C824 206.132 824 150.626 802.396 108.226C783.393 70.9302 753.069 40.6074 715.774 21.604C673.374 0 617.868 0 506.859 0H317.141C206.132 0 150.626 0 108.226 21.604C70.9302 40.6074 40.6074 70.9302 21.604 108.226ZM89.0898 242V566H161.09V379.7L255.59 566H314.09L408.59 379.7V566H480.59V242H410.39L284.84 478.25L159.29 242H89.0898ZM525.467 242V566H750.467V501.2H597.467V242H525.467Z" fill="white"/>
</svg>
