<svg width="824" height="824" viewBox="0 0 824 824" fill="none" xmlns="http://www.w3.org/2000/svg">
<path d="M322.675 493.55C310.675 498.65 297.775 501.2 283.975 501.2C270.175 501.2 257.125 498.65 244.825 493.55C232.825 488.15 222.175 480.95 212.875 471.95C203.875 462.65 196.675 451.85 191.275 439.55C186.175 427.25 183.625 414.2 183.625 400.4C183.625 386.3 186.175 373.25 191.275 361.25C196.675 348.95 203.875 338.3 212.875 329.3C222.175 320 232.825 312.8 244.825 307.7C257.125 302.3 270.175 299.6 283.975 299.6C297.775 299.6 310.675 302.3 322.675 307.7C334.975 312.8 345.625 320 354.625 329.3C363.925 338.3 371.125 348.95 376.225 361.25C381.625 373.25 384.325 386.3 384.325 400.4C384.325 414.2 381.625 427.25 376.225 439.55C371.125 451.85 363.925 462.65 354.625 471.95C345.625 480.95 334.975 488.15 322.675 493.55Z" fill="white"/>
<path fill-rule="evenodd" clip-rule="evenodd" d="M21.604 108.226C0 150.626 0 206.132 0 317.141V506.859C0 617.868 0 673.374 21.604 715.774C40.6073 753.069 70.93 783.393 108.226 802.396C150.626 824 206.131 824 317.14 824H506.859C617.868 824 673.374 824 715.774 802.396C753.069 783.393 783.393 753.069 802.396 715.774C824 673.374 824 617.869 824 506.86V317.141C824 206.132 824 150.626 802.396 108.226C783.393 70.93 753.069 40.6073 715.774 21.604C673.374 0 617.868 0 506.859 0H317.141C206.132 0 150.626 0 108.226 21.604C70.93 40.6073 40.6073 70.93 21.604 108.226ZM283.975 566H464.875V512H411.325C425.425 497.3 436.375 480.5 444.175 461.6C452.275 442.4 456.325 422 456.325 400.4C456.325 377.6 451.825 356.15 442.825 336.05C433.825 315.95 421.525 298.4 405.925 283.4C390.325 268.4 372.025 256.55 351.025 247.85C330.025 239.15 307.675 234.8 283.975 234.8C260.275 234.8 237.925 239.15 216.925 247.85C195.925 256.55 177.625 268.4 162.025 283.4C146.425 298.4 134.125 315.95 125.125 336.05C116.125 356.15 111.625 377.6 111.625 400.4C111.625 423.2 116.125 444.65 125.125 464.75C134.125 484.85 146.425 502.4 162.025 517.4C177.625 532.4 195.925 544.25 216.925 552.95C237.925 561.65 260.275 566 283.975 566ZM489.432 242V566H714.432V501.2H561.432V242H489.432Z" fill="white"/>
</svg>
