<?xml version="1.0" encoding="utf-8"?>
<!-- Generator: Adobe Illustrator 26.3.1, SVG Export Plug-In . SVG Version: 6.00 Build 0)  -->
<svg version="1.1" id="SurrealDB_World" xmlns="http://www.w3.org/2000/svg" xmlns:xlink="http://www.w3.org/1999/xlink" x="0px"
	 y="0px" viewBox="0 0 3242.4 562.5" style="enable-background:new 0 0 3242.4 562.5;" xml:space="preserve">
<path id="l_00000103242653431021337910000013777398160531640960_" d="M2335.9,21.9v536.6H2443V21.9H2335.9z"/>
<path id="a_00000114047365147663133050000011517088098890313346_" d="M2288.1,352.6c0-115.9-94-209.9-209.9-209.9
	c-115.9,0-209.9,94-209.9,209.9s94,209.9,209.9,209.9c37.3,0,72.4-9.8,102.8-26.9v22.8h107.1L2288.1,352.6
	C2288.1,352.7,2288.1,352.7,2288.1,352.6z M2078.2,455.4c-56.8,0-102.8-46-102.8-102.8s46-102.8,102.8-102.8
	c56.8,0,102.8,46,102.8,102.8S2135,455.4,2078.2,455.4z"/>
<path id="e_00000011725667220689958660000006084327059228220294_" d="M1610.7,455.3c-43.3,0-80.4-26.8-95.5-64.7h301.9
	c2.3-12.3,3.4-25.1,3.4-38c0-115.9-94-209.9-209.9-209.9s-209.9,94-209.9,209.9s94,209.9,209.9,209.9c92.3,0,170.7-59.6,198.8-142.3
	h-121.3C1669.3,441.7,1641.6,455.3,1610.7,455.3z M1610.7,249.8c43.3,0,80.4,26.8,95.5,64.7h-191
	C1530.3,276.6,1567.4,249.8,1610.7,249.8z"/>
<path id="r_00000127037221966445926390000000420214718076556192_" d="M1376.4,142.8c-91.6,0-172.5,59.4-199.9,146.2
	c-5.9,20.2-9.5,41.6-9.5,63.1v113.7v92.5h107.1V352.1c2.9-70.8,52.9-106.2,102.7-106.2V142.8
	C1376.7,142.8,1376.5,142.8,1376.4,142.8z"/>
<path id="r_00000038389045402950038880000017212340058551358609_" d="M1142.7,142.8c-91.6,0-172.5,59.4-199.9,146.2
	c-5.9,20.2-9.5,41.6-9.5,63.1v113.7v92.5h107.1V352.1c2.9-70.8,52.9-106.2,102.7-106.2V142.8C1143,142.8,1142.8,142.8,1142.7,142.8z
	"/>
<path id="u_00000165935716996902656450000018140784225834785210_" d="M778.4,353.2c-5.9,141.6-199.9,141.6-204.6,0V239.5V147H466.7
	v92.5v113.6c0,21.4,3.6,42.8,9.5,63.1c27.4,86.9,108.3,146.3,199.9,146.3S848.6,503.1,876,416.3c5.9-20.2,9.5-41.6,9.5-63.1V239.5
	V147H778.4L778.4,353.2L778.4,353.2z"/>
<path id="S_00000166662375492201169010000009477598989473204101_" d="M271.8,244.7c-45.1-7.2-98.5-15.6-134.1-44.5
	c-22.6-18.2-13.1-47,10.7-62.8c46.3-30.3,123.3-13.3,138.8,42.1h121c0-98.8-104.4-162.8-201.8-161.6c-54.7,0-105.6,13.3-144.8,45.8
	C14.2,102.3-9.5,175.8,20.1,230.2c48.7,80.8,166.2,79.6,245.7,112c21.4,10.9,34.5,23,34.5,45.8c0,49.5-43.9,70-93.8,70
	c-47.4,1.2-83-35-87.8-79.6H0c3.6,174.9,232.6,237.7,361.9,133.8c36.8-31.4,57-76,57-124.1C420,309.7,346.5,256.7,271.8,244.7z"/>
<path d="M3242.4,254.1V147h-102.7V21.9h-107.1v331.3c0,21.5,3.6,42.9,9.5,63.1c27.4,86.8,108.3,146.2,199.9,146.2c0.1,0,0.3,0,0.4,0
	V459.4c-49.8,0-99.8-35.4-102.7-106.2v-99.1H3242.4z"/>
<path id="l_00000018196123730703312060000015504232944203512223_" d="M2490.8,147v411.5h107.1V147H2490.8z"/>
<path d="M2544.3,0c8.7,0,16.9,1.7,24.4,5.1s14.1,7.9,19.7,13.5c5.6,5.6,10.1,12.2,13.5,19.7c3.4,7.5,5.1,15.7,5.1,24.4
	s-1.7,16.9-5.1,24.4c-3.4,7.5-7.9,14.2-13.5,20c-5.6,5.8-12.2,10.4-19.7,13.5c-7.5,3.2-15.7,4.7-24.4,4.7
	c-17.5,0-32.3-6.1-44.5-18.2c-12.2-12.1-18.2-27-18.2-44.5c0-8.7,1.6-16.9,4.7-24.4c3.2-7.5,7.7-14.1,13.5-19.7
	c5.8-5.6,12.5-10.1,20-13.5S2535.6,0,2544.3,0z"/>
<path d="M2947.4,347.8c-21.9-18.7-51.2-31.7-82.7-36.6l-0.6-0.1c-34.4-5.3-73.4-11.3-99.1-31.3c-4.8-3.8-7.2-8.3-6.9-13.4
	c0.4-7.4,5.9-15.4,14.5-20.9c17-10.7,41.2-12.8,61.9-5.4c17,6.1,28.8,17.6,33,32.3l1.6,5.6h107.4v-7.7c0-30.1-12.7-58-36.6-80.7
	c-30.7-29.1-78.4-47-124.8-47c-0.7,0-1.4,0-2.1,0c-47.7,0-87,12-116.7,35.7c-19.3,15.1-34.2,37.5-40.9,61.4
	c-7.2,25.6-4.8,51.1,7,71.9l0.2,0.3c27.9,44.6,81.3,57.2,133,69.3c21.6,5.1,42.1,9.9,60,16.9c16.2,8,21.9,15.1,21.9,27
	c0,14.5-6.1,25.8-18.1,33.4c-11.3,7.2-27.3,10.9-46.2,10.9l-0.2,0c-15.4,0.3-29.4-4.7-40.5-14.7c-10.7-9.6-17.4-23-19.1-37.5
	l-0.8-6.9h-106.9l0.2,7.8c1.2,56,33.7,102.3,89.1,127c25.4,11.3,54.5,17.3,83.6,17.3c6.5,0,13-0.3,19.5-0.9
	c37.6-3.5,72.1-16.7,99.9-38.2l0.2-0.1c30.1-24.8,46.7-59.5,46.7-97.9C2985.2,396,2972.3,369.2,2947.4,347.8z"/>
</svg>
