<svg width="842" height="86" viewBox="0 0 842 86" fill="none" xmlns="http://www.w3.org/2000/svg">
<path d="M327.618 19.7064C309.347 19.7064 294.528 34.5474 294.528 52.846C294.528 71.1447 309.347 85.9856 327.618 85.9856C333.498 85.9856 339.032 84.4384 343.824 81.7386V85.3383H360.708V52.846C360.708 34.5474 345.889 19.7064 327.618 19.7064ZM327.618 69.0764C318.664 69.0764 311.412 61.8138 311.412 52.846C311.412 43.8783 318.664 36.6157 327.618 36.6157C336.572 36.6157 343.824 43.8783 343.824 52.846C343.824 61.8138 336.572 69.0764 327.618 69.0764ZM42.8479 35.8105C35.7381 34.6737 27.3199 33.3475 21.7077 28.7847C18.145 25.9112 19.6426 21.3642 23.3945 18.8696C30.6935 14.0858 42.8322 16.7698 45.2757 25.5165H64.3507C64.3507 9.91766 47.8926 -0.18684 32.538 0.00261899C23.9148 0.00261899 15.8906 2.10246 9.71094 7.23366C2.23856 13.3279 -1.49763 24.9323 3.16867 33.5212C10.846 46.2781 29.3693 46.0886 41.9021 51.204C45.2757 52.925 47.3408 54.8353 47.3408 58.4351C47.3408 66.2503 40.4202 69.4869 32.5537 69.4869C25.0813 69.6763 19.4692 63.961 18.7125 56.9194H0C0.567522 84.5331 36.6683 94.4482 57.0518 78.0441C62.8531 73.0866 66.0375 66.045 66.0375 58.4509C66.2109 46.0728 54.624 37.7051 42.8479 35.8105ZM253.903 19.7064C235.632 19.7064 220.814 34.5474 220.814 52.846C220.814 71.1447 235.632 85.9856 253.903 85.9856C268.454 85.9856 280.813 76.5758 285.243 63.5189H266.121C263.157 66.9134 258.79 69.0606 253.919 69.0606C247.093 69.0606 241.244 64.8293 238.864 58.8456H286.457C286.82 56.9036 286.993 54.8827 286.993 52.846C286.993 34.5474 272.174 19.7064 253.903 19.7064ZM238.864 46.8307C241.244 40.8469 247.093 36.6157 253.919 36.6157C260.745 36.6157 266.594 40.8469 268.974 46.8307H238.864ZM185.469 42.8047C184.539 45.9939 183.972 49.3726 183.972 52.7671V85.3225H200.856V52.7671C201.313 41.589 209.195 35.9999 217.046 35.9999V19.7222H216.983C202.542 19.7222 189.789 29.1004 185.469 42.8047ZM148.628 42.8047C147.698 45.9939 147.13 49.3726 147.13 52.7671V85.3225H164.014V52.7671C164.471 41.589 172.353 35.9999 180.204 35.9999V19.7222H180.141C165.701 19.7222 152.947 29.1004 148.628 42.8047ZM122.711 52.9408C121.781 75.297 91.1977 75.297 90.4568 52.9408V20.3853H73.573V52.925C73.573 56.3037 74.1405 59.6824 75.0706 62.8874C79.3901 76.6074 92.1436 85.9856 106.584 85.9856C121.024 85.9856 133.778 76.6074 138.097 62.9032C139.027 59.7139 139.595 56.3352 139.595 52.9408V20.3853H122.711V52.9408ZM368.243 85.3541H385.127V0.634151H368.243V85.3541ZM454.804 24.1914C457.202 21.7903 459.999 19.9011 463.195 18.5284C466.397 17.1558 469.821 16.4717 473.473 16.4717C478.272 16.4717 482.607 17.5977 486.491 19.8452C490.376 22.0926 493.493 25.0893 495.854 28.8211H515.721C514.197 24.6286 512.069 20.7619 509.327 17.2161C506.586 13.6704 503.371 10.6226 499.682 8.06791C495.988 5.51336 491.913 3.53099 487.462 2.12109C483.007 0.711355 478.347 0.00419782 473.473 0.00419782C467.307 0.00419782 461.504 1.13022 456.059 3.37784C450.618 5.63004 445.86 8.69644 441.786 12.5818C437.716 16.4719 434.519 21.0273 432.196 26.2483C429.873 31.4739 428.716 37.0576 428.716 43.0044C428.716 48.9512 429.873 54.5351 432.196 59.7559C434.519 64.9768 437.716 69.5324 441.786 73.4224C445.86 77.3078 450.618 80.3789 456.059 82.6264C461.504 84.8738 467.307 86 473.473 86C478.347 86 482.988 85.2974 487.407 83.8875C491.82 82.4776 495.853 80.5139 499.51 77.9966C503.162 75.4792 506.358 72.4687 509.1 68.9602C511.841 65.4563 513.969 61.6035 515.493 57.4109H495.626C493.265 61.073 490.162 64.0091 486.319 66.2193C482.477 68.4295 478.193 69.5324 473.473 69.5324C469.821 69.5324 466.397 68.8298 463.195 67.4199C459.999 66.01 457.202 64.1021 454.804 61.701C452.407 59.3 450.502 56.4988 449.094 53.2927C447.686 50.0913 446.985 46.6619 446.985 43.0044C446.985 39.3469 447.686 35.8943 449.094 32.6556C450.502 29.4124 452.407 26.5923 454.804 24.1914ZM523.256 85.3622H540.14V0.642203H523.256V85.3622ZM746.116 23.9533C741.324 21.2535 735.79 19.7062 729.91 19.7062C711.639 19.7062 696.821 34.5472 696.821 52.8459C696.821 71.1445 711.639 85.9855 729.91 85.9855C735.798 85.9855 741.326 84.4425 746.116 81.7413V85.354H763V0.634151H746.116V23.9533ZM729.91 69.0764C720.956 69.0764 713.704 61.8138 713.704 52.846C713.704 43.8783 720.956 36.6157 729.91 36.6157C738.864 36.6157 746.116 43.8783 746.116 52.846C746.116 61.8138 738.864 69.0764 729.91 69.0764ZM605.734 30.1941C602.653 27.2207 599.057 24.8755 594.945 23.1631C590.834 21.4461 586.42 20.5899 581.699 20.5899C576.979 20.5899 572.565 21.4461 568.453 23.1631C564.346 24.8755 560.745 27.2207 557.664 30.1941C554.579 33.1675 552.145 36.6387 550.356 40.6033C548.567 44.5679 547.675 48.7976 547.675 53.2925C547.675 57.7874 548.567 62.0266 550.356 65.9865C552.145 69.9556 554.579 73.4223 557.664 76.3957C560.745 79.3691 564.346 81.7143 568.453 83.4267C572.565 85.1436 576.979 85.9998 581.699 85.9998C586.42 85.9998 590.833 85.1436 594.945 83.4267C599.057 81.7143 602.654 79.3691 605.734 76.3957C608.819 73.4223 611.253 69.9556 613.042 65.9865C614.831 62.0266 615.728 57.7922 615.728 53.2925C615.728 48.7929 614.831 44.5678 613.042 40.6033C611.253 36.6389 608.819 33.1675 605.734 30.1941ZM597.287 59.9838C596.409 62.0823 595.21 63.8925 593.691 65.4187C592.167 66.9402 590.378 68.1594 588.324 69.0761C586.266 69.9927 584.059 70.4487 581.699 70.4487C579.339 70.4487 577.132 69.9927 575.078 69.0761C573.02 68.1594 571.231 66.9402 569.712 65.4187C568.188 63.8925 566.989 62.0823 566.116 59.9838C565.238 57.8898 564.801 55.6609 564.801 53.2925C564.801 50.9241 565.238 48.7044 566.116 46.6059C566.989 44.5073 568.188 42.6972 569.712 41.1709C571.231 39.6494 573.02 38.4302 575.078 37.5135C577.132 36.5969 579.339 36.1409 581.699 36.1409C584.06 36.1409 586.266 36.5969 588.324 37.5135C590.378 38.4302 592.167 39.6494 593.691 41.1709C595.21 42.6972 596.409 44.5073 597.287 46.6059C598.161 48.7044 598.597 50.9333 598.597 53.2925C598.597 55.6518 598.161 57.8899 597.287 59.9838ZM672.401 52.9408C671.471 75.297 640.888 75.297 640.147 52.9408V20.3853H623.263V52.925C623.263 56.3037 623.831 59.6824 624.761 62.8874C629.08 76.6074 641.834 85.9856 656.274 85.9856C670.715 85.9856 683.468 76.6074 687.788 62.9032C688.718 59.7139 689.285 56.3352 689.285 52.9408V20.3853H672.401V52.9408Z" fill="url(#paint0_linear_6039_145)"/>
<path opacity="0.5" d="M807.007 5.02652C799.98 4.97721 796.077 13.4903 801.281 18.6524C805.317 22.7919 812.795 21.2643 814.679 15.5848H810.181C808.296 18.1844 804.308 17.5314 803.202 14.4638H814.947C815.956 9.53588 811.774 4.89092 807.007 5.02652ZM803.19 11.5807C804.576 7.95853 809.439 7.95853 810.813 11.5807H803.19ZM833.975 5.02652C829.525 5.02652 825.951 8.59937 825.951 13.0099C825.951 17.4204 829.525 20.9933 833.975 20.9933C835.398 20.9933 836.723 20.6237 837.878 19.9707V20.9933H842V13.0099C842 8.59937 838.425 5.02652 833.975 5.02652ZM833.927 17.1494C831.592 17.1494 829.756 15.2891 829.756 12.9729C829.756 10.6937 831.641 8.79642 833.927 8.79642C836.261 8.79642 838.097 10.6567 838.097 12.9729C838.097 15.2891 836.212 17.1494 833.927 17.1494ZM789.025 5.02652C787.614 5.02652 786.289 5.38383 785.134 6.02447V0H781V20.9933H785.134V19.983C786.277 20.6237 787.602 20.9933 789.025 20.9933C793.475 20.9933 797.05 17.4204 797.05 13.0099C797.05 8.59937 793.475 5.02652 789.025 5.02652ZM789.061 17.1371C786.776 17.1494 784.891 15.2891 784.891 12.9606C784.891 10.6444 786.727 8.78409 789.061 8.78409C791.347 8.78409 793.232 10.6814 793.232 12.9606C793.232 15.2768 791.396 17.1371 789.061 17.1371ZM821.075 2.50093H816.941V12.8003C816.941 13.638 817.075 14.4759 817.306 15.2643C818.364 18.6646 821.488 20.9931 825.027 20.9931V17.0015C823.093 17.0015 821.172 15.6093 821.075 12.8127V9.19051H825.027V5.00167H821.075V2.50093Z" fill="url(#paint1_linear_6039_145)"/>
<defs>
<linearGradient id="paint0_linear_6039_145" x1="0" y1="42.9998" x2="819.541" y2="42.9998" gradientUnits="userSpaceOnUse">
<stop stop-color="#252529"/>
<stop offset="1" stop-color="#080809"/>
</linearGradient>
<linearGradient id="paint1_linear_6039_145" x1="-178.132" y1="53.347" x2="842" y2="53.347" gradientUnits="userSpaceOnUse">
<stop stop-color="white"/>
<stop offset="1" stop-color="#848484"/>
</linearGradient>
</defs>
</svg>
