<svg width="399" height="35" viewBox="0 0 399 35" fill="none" xmlns="http://www.w3.org/2000/svg">
<path opacity="0.5" d="M385.273 3.01072C382.516 2.99099 380.985 6.39641 383.026 8.46137C384.61 10.1173 387.543 9.50618 388.283 7.23426H386.518C385.779 8.27413 384.214 8.01293 383.78 6.78582H388.388C388.784 4.81456 387.143 2.95647 385.273 3.01072ZM383.775 5.63252C384.319 4.18358 386.227 4.18358 386.766 5.63252H383.775ZM395.853 3.01072C394.107 3.01072 392.704 4.43993 392.704 6.20424C392.704 7.96855 394.107 9.39777 395.853 9.39777C396.411 9.39777 396.931 9.24991 397.384 8.9887V9.39777H399.001V6.20424C399.001 4.43993 397.598 3.01072 395.853 3.01072ZM395.834 7.86014C394.918 7.86014 394.198 7.11598 394.198 6.18945C394.198 5.27771 394.937 4.51875 395.834 4.51875C396.749 4.51875 397.47 5.26291 397.47 6.18945C397.47 7.11598 396.73 7.86014 395.834 7.86014ZM378.218 3.01072C377.665 3.01072 377.145 3.15365 376.692 3.40992V1H375.07V9.39777H376.692V8.99363C377.14 9.24991 377.66 9.39777 378.218 9.39777C379.964 9.39777 381.367 7.96855 381.367 6.20424C381.367 4.43993 379.964 3.01072 378.218 3.01072ZM378.233 7.85521C377.336 7.86014 376.597 7.11598 376.597 6.18452C376.597 5.25798 377.317 4.51382 378.233 4.51382C379.13 4.51382 379.869 5.27277 379.869 6.18452C379.869 7.11105 379.149 7.85521 378.233 7.85521ZM390.792 2.00043H389.17V6.12041C389.17 6.4555 389.223 6.79067 389.313 7.10604C389.728 8.46622 390.954 9.39769 392.342 9.39769V7.80096C391.584 7.80096 390.83 7.24404 390.792 6.12534V4.6764H392.342V3.00077H390.792V2.00043Z" fill="url(#paint0_linear_18906_3239)"/>
<path d="M16.7228 14.5876C17.8574 14.8022 18.9461 15.1549 19.9888 15.6456C21.0621 16.1056 22.0128 16.7189 22.8408 17.4856C23.6688 18.2522 24.3281 19.1569 24.8188 20.1996C25.3401 21.2116 25.6008 22.3769 25.6008 23.6956C25.6008 25.2902 25.2941 26.7622 24.6808 28.1116C24.0981 29.4609 23.2548 30.6262 22.1508 31.6076C21.0468 32.5889 19.6974 33.3556 18.1028 33.9076C16.5388 34.4596 14.7754 34.7356 12.8128 34.7356C11.0341 34.7356 9.37812 34.4289 7.84478 33.8156C6.31145 33.1716 4.97745 32.3129 3.84278 31.2396C2.73878 30.1662 1.86478 28.9242 1.22078 27.5136C0.607448 26.1029 0.300781 24.6156 0.300781 23.0516H7.47678C7.63012 24.4929 8.18212 25.7042 9.13278 26.6856C10.1141 27.6362 11.3408 28.1116 12.8128 28.1116C14.5301 28.1116 15.8948 27.7282 16.9068 26.9616C17.9494 26.1949 18.4708 25.1062 18.4708 23.6956C18.4708 22.9902 18.2868 22.4229 17.9188 21.9936C17.5814 21.5336 17.0754 21.1349 16.4008 20.7976C15.7261 20.4602 14.8981 20.1689 13.9168 19.9236C12.9661 19.6476 11.8774 19.3716 10.6508 19.0956C9.30145 18.7889 8.02878 18.3902 6.83278 17.8996C5.63678 17.4089 4.57878 16.8109 3.65878 16.1056C2.76945 15.4002 2.06411 14.5876 1.54278 13.6676C1.02145 12.7476 0.760781 11.6896 0.760781 10.4936C0.760781 8.96022 1.03678 7.56489 1.58878 6.30755C2.17145 5.05022 2.98411 3.96156 4.02678 3.04156C5.06945 2.12156 6.32678 1.41622 7.79878 0.925556C9.30145 0.404222 10.9728 0.143555 12.8128 0.143555C14.4688 0.143555 16.0328 0.404222 17.5048 0.925556C18.9768 1.44689 20.2648 2.16756 21.3688 3.08756C22.5034 4.00756 23.3928 5.09622 24.0368 6.35356C24.6808 7.58022 25.0028 8.92956 25.0028 10.4016H17.6888C17.3821 9.35889 16.7688 8.50022 15.8488 7.82556C14.9594 7.12022 13.9474 6.76756 12.8128 6.76756C11.4328 6.76756 10.2674 7.10489 9.31678 7.77956C8.36612 8.42356 7.89078 9.23622 7.89078 10.2176C7.89078 10.8002 8.13611 11.3216 8.62678 11.7816C9.14811 12.2416 9.82278 12.6556 10.6508 13.0236C11.4788 13.3609 12.4141 13.6676 13.4568 13.9436C14.5301 14.1889 15.6188 14.4036 16.7228 14.5876Z" fill="url(#paint1_linear_18906_3239)"/>
<path d="M35.8793 9.15956V21.5796C35.8793 22.5302 35.9866 23.4349 36.2013 24.2936C36.4466 25.1216 36.7993 25.8422 37.2593 26.4556C37.7499 27.0689 38.3479 27.5596 39.0533 27.9276C39.7893 28.2956 40.6326 28.4796 41.5833 28.4796C42.5339 28.4796 43.3619 28.2956 44.0673 27.9276C44.8033 27.5596 45.4013 27.0689 45.8613 26.4556C46.3519 25.8422 46.7046 25.1216 46.9193 24.2936C47.1646 23.4349 47.2873 22.5302 47.2873 21.5796V9.15956H54.1873V21.5796C54.1873 23.3889 53.8806 25.0909 53.2673 26.6856C52.6846 28.2802 51.8413 29.6756 50.7373 30.8716C49.6333 32.0676 48.2993 33.0182 46.7353 33.7236C45.2019 34.3982 43.4846 34.7356 41.5833 34.7356C39.6819 34.7356 37.9493 34.3982 36.3853 33.7236C34.8519 33.0182 33.5333 32.0676 32.4293 30.8716C31.3253 29.6756 30.4666 28.2802 29.8533 26.6856C29.2706 25.0909 28.9793 23.3889 28.9793 21.5796V9.15956H35.8793Z" fill="url(#paint2_linear_18906_3239)"/>
<path d="M57.864 21.5796C57.864 19.7702 58.1707 18.0682 58.784 16.4736C59.428 14.8789 60.3174 13.4836 61.452 12.2876C62.5867 11.0916 63.936 10.1562 65.5 9.48155C67.0947 8.77622 68.8427 8.42356 70.744 8.42356H71.664V14.6796C70.7134 14.6796 69.8087 14.8636 68.95 15.2316C68.122 15.5996 67.4014 16.0902 66.788 16.7036C66.1747 17.3169 65.684 18.0529 65.316 18.9116C64.948 19.7396 64.764 20.6289 64.764 21.5796V33.9996H57.864V21.5796Z" fill="url(#paint3_linear_18906_3239)"/>
<path d="M74.4402 21.5796C74.4402 19.7702 74.7469 18.0682 75.3602 16.4736C76.0042 14.8789 76.8935 13.4836 78.0282 12.2876C79.1629 11.0916 80.5122 10.1562 82.0762 9.48155C83.6709 8.77622 85.4189 8.42356 87.3202 8.42356H88.2402V14.6796C87.2895 14.6796 86.3849 14.8636 85.5262 15.2316C84.6982 15.5996 83.9775 16.0902 83.3642 16.7036C82.7509 17.3169 82.2602 18.0529 81.8922 18.9116C81.5242 19.7396 81.3402 20.6289 81.3402 21.5796V33.9996H74.4402V21.5796Z" fill="url(#paint4_linear_18906_3239)"/>
<path d="M103.666 8.42356C105.568 8.42356 107.362 8.77622 109.048 9.48155C110.735 10.1562 112.192 11.0916 113.418 12.2876C114.676 13.4836 115.657 14.8789 116.362 16.4736C117.098 18.0682 117.466 19.7702 117.466 21.5796C117.466 22.0089 117.436 22.4229 117.374 22.8216C117.344 23.1896 117.298 23.5729 117.236 23.9716H97.1804C97.7017 25.2902 98.5297 26.3789 99.6644 27.2376C100.83 28.0656 102.164 28.4796 103.666 28.4796C104.77 28.4796 105.798 28.2342 106.748 27.7436C107.699 27.2529 108.481 26.6089 109.094 25.8116H116.73C116.27 27.0996 115.611 28.2956 114.752 29.3996C113.924 30.5036 112.928 31.4542 111.762 32.2516C110.628 33.0182 109.37 33.6162 107.99 34.0456C106.641 34.5056 105.2 34.7356 103.666 34.7356C101.765 34.7356 99.971 34.3982 98.2844 33.7236C96.5977 33.0182 95.1257 32.0676 93.8684 30.8716C92.6417 29.6756 91.6604 28.2802 90.9244 26.6856C90.219 25.0909 89.8664 23.3889 89.8664 21.5796C89.8664 19.7702 90.219 18.0682 90.9244 16.4736C91.6604 14.8789 92.6417 13.4836 93.8684 12.2876C95.1257 11.0916 96.5977 10.1562 98.2844 9.48155C99.971 8.77622 101.765 8.42356 103.666 8.42356ZM110.152 19.1876C109.631 17.8689 108.788 16.7956 107.622 15.9676C106.457 15.1089 105.138 14.6796 103.666 14.6796C102.164 14.6796 100.83 15.1089 99.6644 15.9676C98.5297 16.7956 97.7017 17.8689 97.1804 19.1876H110.152Z" fill="url(#paint5_linear_18906_3239)"/>
<path d="M132.952 8.42356C134.854 8.42356 136.632 8.77622 138.288 9.48155C139.944 10.1562 141.386 11.0916 142.612 12.2876C143.839 13.4836 144.805 14.8789 145.51 16.4736C146.246 18.0682 146.614 19.7702 146.614 21.5796V33.9996H140.174V30.9176C139.377 32.0829 138.35 33.0182 137.092 33.7236C135.835 34.3982 134.455 34.7356 132.952 34.7356C131.082 34.7356 129.303 34.3982 127.616 33.7236C125.96 33.0182 124.519 32.0676 123.292 30.8716C122.066 29.6756 121.084 28.2802 120.348 26.6856C119.643 25.0909 119.29 23.3889 119.29 21.5796C119.29 19.7702 119.643 18.0682 120.348 16.4736C121.084 14.8789 122.066 13.4836 123.292 12.2876C124.519 11.0916 125.96 10.1562 127.616 9.48155C129.303 8.77622 131.082 8.42356 132.952 8.42356ZM133.09 28.4796C134.041 28.4796 134.93 28.2956 135.758 27.9276C136.617 27.5596 137.353 27.0689 137.966 26.4556C138.58 25.8422 139.07 25.1216 139.438 24.2936C139.806 23.4349 139.99 22.5302 139.99 21.5796C139.99 20.6289 139.806 19.7396 139.438 18.9116C139.07 18.0529 138.58 17.3169 137.966 16.7036C137.353 16.0902 136.617 15.5996 135.758 15.2316C134.93 14.8636 134.041 14.6796 133.09 14.6796C132.14 14.6796 131.235 14.8636 130.376 15.2316C129.548 15.5996 128.828 16.0902 128.214 16.7036C127.601 17.3169 127.11 18.0529 126.742 18.9116C126.374 19.7396 126.19 20.6289 126.19 21.5796C126.19 22.5302 126.374 23.4349 126.742 24.2936C127.11 25.1216 127.601 25.8422 128.214 26.4556C128.828 27.0689 129.548 27.5596 130.376 27.9276C131.235 28.2956 132.14 28.4796 133.09 28.4796Z" fill="url(#paint6_linear_18906_3239)"/>
<path d="M150.992 0.879556H157.892V33.9996H150.992V0.879556Z" fill="url(#paint7_linear_18906_3239)"/>
<path d="M193.358 17.4396C193.358 19.8316 192.944 22.0396 192.116 24.0636C191.319 26.0876 190.169 27.8356 188.666 29.3076C187.164 30.7796 185.324 31.9296 183.146 32.7576C181 33.5856 178.562 33.9996 175.832 33.9996H162.492V0.879556H175.832C178.439 0.879556 180.816 1.29356 182.962 2.12156C185.109 2.94956 186.949 4.09956 188.482 5.57156C190.046 7.04356 191.242 8.79156 192.07 10.8156C192.929 12.8396 193.358 15.0476 193.358 17.4396ZM176.108 27.3756C177.488 27.3756 178.776 27.1149 179.972 26.5936C181.168 26.0722 182.211 25.3669 183.1 24.4776C184.02 23.5576 184.741 22.4996 185.262 21.3036C185.784 20.1076 186.044 18.8196 186.044 17.4396C186.044 16.0596 185.784 14.7716 185.262 13.5756C184.741 12.3796 184.02 11.3369 183.1 10.4476C182.211 9.52756 181.168 8.80689 179.972 8.28556C178.776 7.76422 177.488 7.50356 176.108 7.50356H169.852V27.3756H176.108Z" fill="url(#paint8_linear_18906_3239)"/>
<path d="M196.588 33.9996V0.879556H211.308C212.811 0.879556 214.191 1.12489 215.448 1.61555C216.736 2.10622 217.84 2.79622 218.76 3.68556C219.68 4.54422 220.401 5.58689 220.922 6.81356C221.444 8.00956 221.704 9.34356 221.704 10.8156C221.704 11.8889 221.444 12.9162 220.922 13.8976C220.432 14.8482 219.742 15.6456 218.852 16.2896C220.324 17.1176 221.459 18.2369 222.256 19.6476C223.054 21.0276 223.452 22.4996 223.452 24.0636C223.452 25.5662 223.192 26.9309 222.67 28.1576C222.149 29.3842 221.428 30.4269 220.508 31.2856C219.588 32.1442 218.5 32.8189 217.242 33.3096C216.016 33.7696 214.682 33.9996 213.24 33.9996H196.588ZM203.948 7.50356V13.7596H211.124C212.044 13.7596 212.826 13.4682 213.47 12.8856C214.114 12.2722 214.436 11.5056 214.436 10.5856C214.436 9.66556 214.114 8.92956 213.47 8.37756C212.826 7.79489 212.044 7.50356 211.124 7.50356H203.948ZM203.948 20.1996V27.3756H212.872C213.792 27.3756 214.574 27.0229 215.218 26.3176C215.862 25.5816 216.184 24.7536 216.184 23.8336C216.184 22.9136 215.862 22.0856 215.218 21.3496C214.574 20.5829 213.792 20.1996 212.872 20.1996H203.948Z" fill="url(#paint9_linear_18906_3239)"/>
<path d="M271.541 23.2356C270.928 24.9222 270.069 26.4709 268.965 27.8816C267.861 29.2922 266.573 30.5036 265.101 31.5156C263.629 32.5276 262.004 33.3249 260.225 33.9076C258.447 34.4596 256.576 34.7356 254.613 34.7356C252.129 34.7356 249.783 34.2909 247.575 33.4016C245.398 32.4816 243.481 31.2396 241.825 29.6756C240.2 28.1116 238.912 26.2869 237.961 24.2016C237.041 22.0856 236.581 19.8316 236.581 17.4396C236.581 15.0476 237.041 12.8089 237.961 10.7236C238.912 8.60756 240.2 6.76756 241.825 5.20356C243.481 3.63956 245.398 2.41289 247.575 1.52356C249.783 0.603555 252.129 0.143555 254.613 0.143555C256.576 0.143555 258.447 0.434889 260.225 1.01756C262.035 1.56956 263.675 2.36689 265.147 3.40956C266.65 4.42156 267.953 5.64822 269.057 7.08956C270.161 8.50022 271.02 10.0489 271.633 11.7356H263.629C262.679 10.2329 261.421 9.03689 259.857 8.14756C258.293 7.22756 256.545 6.76756 254.613 6.76756C253.141 6.76756 251.761 7.04356 250.473 7.59556C249.185 8.14756 248.051 8.91422 247.069 9.89556C246.119 10.8462 245.352 11.9809 244.769 13.2996C244.217 14.5876 243.941 15.9676 243.941 17.4396C243.941 18.9116 244.217 20.2916 244.769 21.5796C245.352 22.8676 246.119 24.0022 247.069 24.9836C248.051 25.9342 249.185 26.7009 250.473 27.2836C251.761 27.8356 253.141 28.1116 254.613 28.1116C256.515 28.1116 258.232 27.6669 259.765 26.7776C261.329 25.8882 262.587 24.7076 263.537 23.2356H271.541Z" fill="url(#paint10_linear_18906_3239)"/>
<path d="M274.662 0.879556H281.562V33.9996H274.662V0.879556Z" fill="url(#paint11_linear_18906_3239)"/>
<path d="M312.198 21.5796C312.198 23.3889 311.83 25.0909 311.094 26.6856C310.389 28.2802 309.408 29.6756 308.15 30.8716C306.924 32.0676 305.482 33.0182 303.826 33.7236C302.17 34.3982 300.392 34.7356 298.49 34.7356C296.589 34.7356 294.81 34.3982 293.154 33.7236C291.498 33.0182 290.042 32.0676 288.784 30.8716C287.558 29.6756 286.576 28.2802 285.84 26.6856C285.135 25.0909 284.782 23.3889 284.782 21.5796C284.782 19.7702 285.135 18.0682 285.84 16.4736C286.576 14.8789 287.558 13.4836 288.784 12.2876C290.042 11.0916 291.498 10.1562 293.154 9.48155C294.81 8.77622 296.589 8.42356 298.49 8.42356C300.392 8.42356 302.17 8.77622 303.826 9.48155C305.482 10.1562 306.924 11.0916 308.15 12.2876C309.408 13.4836 310.389 14.8789 311.094 16.4736C311.83 18.0682 312.198 19.7702 312.198 21.5796ZM305.298 21.5796C305.298 20.6289 305.114 19.7396 304.746 18.9116C304.409 18.0529 303.934 17.3169 303.32 16.7036C302.707 16.0902 301.986 15.5996 301.158 15.2316C300.33 14.8636 299.441 14.6796 298.49 14.6796C297.54 14.6796 296.65 14.8636 295.822 15.2316C294.994 15.5996 294.274 16.0902 293.66 16.7036C293.047 17.3169 292.556 18.0529 292.188 18.9116C291.851 19.7396 291.682 20.6289 291.682 21.5796C291.682 22.5302 291.851 23.4349 292.188 24.2936C292.556 25.1216 293.047 25.8422 293.66 26.4556C294.274 27.0689 294.994 27.5596 295.822 27.9276C296.65 28.2956 297.54 28.4796 298.49 28.4796C299.441 28.4796 300.33 28.2956 301.158 27.9276C301.986 27.5596 302.707 27.0689 303.32 26.4556C303.934 25.8422 304.409 25.1216 304.746 24.2936C305.114 23.4349 305.298 22.5302 305.298 21.5796Z" fill="url(#paint12_linear_18906_3239)"/>
<path d="M322.077 9.15956V21.5796C322.077 22.5302 322.184 23.4349 322.399 24.2936C322.644 25.1216 322.997 25.8422 323.457 26.4556C323.947 27.0689 324.545 27.5596 325.251 27.9276C325.987 28.2956 326.83 28.4796 327.781 28.4796C328.731 28.4796 329.559 28.2956 330.265 27.9276C331.001 27.5596 331.599 27.0689 332.059 26.4556C332.549 25.8422 332.902 25.1216 333.117 24.2936C333.362 23.4349 333.485 22.5302 333.485 21.5796V9.15956H340.385V21.5796C340.385 23.3889 340.078 25.0909 339.465 26.6856C338.882 28.2802 338.039 29.6756 336.935 30.8716C335.831 32.0676 334.497 33.0182 332.933 33.7236C331.399 34.3982 329.682 34.7356 327.781 34.7356C325.879 34.7356 324.147 34.3982 322.583 33.7236C321.049 33.0182 319.731 32.0676 318.627 30.8716C317.523 29.6756 316.664 28.2802 316.051 26.6856C315.468 25.0909 315.177 23.3889 315.177 21.5796V9.15956H322.077Z" fill="url(#paint13_linear_18906_3239)"/>
<path d="M370.685 0.879556V33.9996H364.245V31.0556C363.417 32.1902 362.374 33.0949 361.117 33.7696C359.859 34.4136 358.495 34.7356 357.023 34.7356C355.152 34.7356 353.373 34.3982 351.687 33.7236C350.031 33.0182 348.589 32.0676 347.363 30.8716C346.136 29.6756 345.155 28.2802 344.419 26.6856C343.713 25.0909 343.361 23.3889 343.361 21.5796C343.361 19.7702 343.713 18.0682 344.419 16.4736C345.155 14.8789 346.136 13.4836 347.363 12.2876C348.589 11.0916 350.031 10.1562 351.687 9.48155C353.343 8.77622 355.106 8.42356 356.977 8.42356C358.295 8.42356 359.522 8.65356 360.657 9.11356C361.822 9.54289 362.865 10.1562 363.785 10.9536V0.879556H370.685ZM350.261 21.5796C350.261 22.5302 350.445 23.4349 350.813 24.2936C351.181 25.1216 351.671 25.8422 352.285 26.4556C352.898 27.0689 353.619 27.5596 354.447 27.9276C355.305 28.2956 356.21 28.4796 357.161 28.4796C358.111 28.4796 359.001 28.2956 359.829 27.9276C360.687 27.5596 361.423 27.0689 362.037 26.4556C362.65 25.8422 363.141 25.1216 363.509 24.2936C363.877 23.4349 364.061 22.5302 364.061 21.5796C364.061 20.6289 363.877 19.7396 363.509 18.9116C363.141 18.0529 362.65 17.3169 362.037 16.7036C361.423 16.0902 360.687 15.5996 359.829 15.2316C359.001 14.8636 358.111 14.6796 357.161 14.6796C356.21 14.6796 355.305 14.8636 354.447 15.2316C353.619 15.5996 352.898 16.0902 352.285 16.7036C351.671 17.3169 351.181 18.0529 350.813 18.9116C350.445 19.7396 350.261 20.6289 350.261 21.5796Z" fill="url(#paint14_linear_18906_3239)"/>
<defs>
<linearGradient id="paint0_linear_18906_3239" x1="-1.19843" y1="22.3399" x2="399.001" y2="22.3399" gradientUnits="userSpaceOnUse">
<stop stop-color="white"/>
<stop offset="1" stop-color="#929294"/>
</linearGradient>
<linearGradient id="paint1_linear_18906_3239" x1="209.557" y1="0.173444" x2="209.557" y2="33.6599" gradientUnits="userSpaceOnUse">
<stop/>
<stop offset="1" stop-opacity="0.7"/>
</linearGradient>
<linearGradient id="paint2_linear_18906_3239" x1="209.557" y1="0.173444" x2="209.557" y2="33.6599" gradientUnits="userSpaceOnUse">
<stop/>
<stop offset="1" stop-opacity="0.7"/>
</linearGradient>
<linearGradient id="paint3_linear_18906_3239" x1="209.557" y1="0.173444" x2="209.557" y2="33.6599" gradientUnits="userSpaceOnUse">
<stop/>
<stop offset="1" stop-opacity="0.7"/>
</linearGradient>
<linearGradient id="paint4_linear_18906_3239" x1="209.557" y1="0.173444" x2="209.557" y2="33.6599" gradientUnits="userSpaceOnUse">
<stop/>
<stop offset="1" stop-opacity="0.7"/>
</linearGradient>
<linearGradient id="paint5_linear_18906_3239" x1="209.557" y1="0.173444" x2="209.557" y2="33.6599" gradientUnits="userSpaceOnUse">
<stop/>
<stop offset="1" stop-opacity="0.7"/>
</linearGradient>
<linearGradient id="paint6_linear_18906_3239" x1="209.557" y1="0.173444" x2="209.557" y2="33.6599" gradientUnits="userSpaceOnUse">
<stop/>
<stop offset="1" stop-opacity="0.7"/>
</linearGradient>
<linearGradient id="paint7_linear_18906_3239" x1="209.557" y1="0.173444" x2="209.557" y2="33.6599" gradientUnits="userSpaceOnUse">
<stop/>
<stop offset="1" stop-opacity="0.7"/>
</linearGradient>
<linearGradient id="paint8_linear_18906_3239" x1="209.557" y1="0.173444" x2="209.557" y2="33.6599" gradientUnits="userSpaceOnUse">
<stop/>
<stop offset="1" stop-opacity="0.7"/>
</linearGradient>
<linearGradient id="paint9_linear_18906_3239" x1="209.557" y1="0.173444" x2="209.557" y2="33.6599" gradientUnits="userSpaceOnUse">
<stop/>
<stop offset="1" stop-opacity="0.7"/>
</linearGradient>
<linearGradient id="paint10_linear_18906_3239" x1="209.557" y1="0.173444" x2="209.557" y2="33.6599" gradientUnits="userSpaceOnUse">
<stop/>
<stop offset="1" stop-opacity="0.7"/>
</linearGradient>
<linearGradient id="paint11_linear_18906_3239" x1="209.557" y1="0.173444" x2="209.557" y2="33.6599" gradientUnits="userSpaceOnUse">
<stop/>
<stop offset="1" stop-opacity="0.7"/>
</linearGradient>
<linearGradient id="paint12_linear_18906_3239" x1="209.557" y1="0.173444" x2="209.557" y2="33.6599" gradientUnits="userSpaceOnUse">
<stop/>
<stop offset="1" stop-opacity="0.7"/>
</linearGradient>
<linearGradient id="paint13_linear_18906_3239" x1="209.557" y1="0.173444" x2="209.557" y2="33.6599" gradientUnits="userSpaceOnUse">
<stop/>
<stop offset="1" stop-opacity="0.7"/>
</linearGradient>
<linearGradient id="paint14_linear_18906_3239" x1="209.557" y1="0.173444" x2="209.557" y2="33.6599" gradientUnits="userSpaceOnUse">
<stop/>
<stop offset="1" stop-opacity="0.7"/>
</linearGradient>
</defs>
</svg>
