<svg width="30" height="28" viewBox="0 0 30 28" fill="none" xmlns="http://www.w3.org/2000/svg">
<g filter="url(#filter0_di_6466_1241)">
<path fill-rule="evenodd" clip-rule="evenodd" d="M2.7371 3.58092C2.33594 4.36824 2.33594 5.3989 2.33594 7.46021V16.1549C2.33594 18.037 2.33594 18.978 2.70221 19.6969C3.0244 20.3292 3.53849 20.8433 4.17082 21.1655C4.88967 21.5317 5.83071 21.5317 7.71277 21.5317H8.66699V21.7681C8.66699 22.7539 8.66699 23.2469 8.85885 23.6234C9.02761 23.9546 9.2969 24.2239 9.62812 24.3927C10.0047 24.5845 10.4976 24.5845 11.4834 24.5845H18.6006C19.5865 24.5845 20.0794 24.5845 20.4559 24.3927C20.7871 24.2239 21.0564 23.9546 21.2252 23.6234C21.4171 23.2469 21.4171 22.7539 21.4171 21.7681V21.5317H22.3713C24.2534 21.5317 25.1944 21.5317 25.9133 21.1655C26.5456 20.8433 27.0597 20.3292 27.3819 19.6969C27.7481 18.978 27.7481 18.037 27.7481 16.1549V6.94813C27.7481 5.06606 27.7481 4.12502 27.3819 3.40617C27.0597 2.77384 26.5456 2.25975 25.9133 1.93756C25.1944 1.57129 24.2534 1.57129 22.3713 1.57129H8.22486C6.16354 1.57129 5.13289 1.57129 4.34557 1.97245C3.65302 2.32532 3.08997 2.88837 2.7371 3.58092Z" fill="url(#paint0_linear_6466_1241)"/>
<path fill-rule="evenodd" clip-rule="evenodd" d="M2.7371 3.58092C2.33594 4.36824 2.33594 5.3989 2.33594 7.46021V16.1549C2.33594 18.037 2.33594 18.978 2.70221 19.6969C3.0244 20.3292 3.53849 20.8433 4.17082 21.1655C4.88967 21.5317 5.83071 21.5317 7.71277 21.5317H8.66699V21.7681C8.66699 22.7539 8.66699 23.2469 8.85885 23.6234C9.02761 23.9546 9.2969 24.2239 9.62812 24.3927C10.0047 24.5845 10.4976 24.5845 11.4834 24.5845H18.6006C19.5865 24.5845 20.0794 24.5845 20.4559 24.3927C20.7871 24.2239 21.0564 23.9546 21.2252 23.6234C21.4171 23.2469 21.4171 22.7539 21.4171 21.7681V21.5317H22.3713C24.2534 21.5317 25.1944 21.5317 25.9133 21.1655C26.5456 20.8433 27.0597 20.3292 27.3819 19.6969C27.7481 18.978 27.7481 18.037 27.7481 16.1549V6.94813C27.7481 5.06606 27.7481 4.12502 27.3819 3.40617C27.0597 2.77384 26.5456 2.25975 25.9133 1.93756C25.1944 1.57129 24.2534 1.57129 22.3713 1.57129H8.22486C6.16354 1.57129 5.13289 1.57129 4.34557 1.97245C3.65302 2.32532 3.08997 2.88837 2.7371 3.58092Z" fill="url(#paint1_linear_6466_1241)"/>
<path fill-rule="evenodd" clip-rule="evenodd" d="M2.7371 3.58092C2.33594 4.36824 2.33594 5.3989 2.33594 7.46021V16.1549C2.33594 18.037 2.33594 18.978 2.70221 19.6969C3.0244 20.3292 3.53849 20.8433 4.17082 21.1655C4.88967 21.5317 5.83071 21.5317 7.71277 21.5317H8.66699V21.7681C8.66699 22.7539 8.66699 23.2469 8.85885 23.6234C9.02761 23.9546 9.2969 24.2239 9.62812 24.3927C10.0047 24.5845 10.4976 24.5845 11.4834 24.5845H18.6006C19.5865 24.5845 20.0794 24.5845 20.4559 24.3927C20.7871 24.2239 21.0564 23.9546 21.2252 23.6234C21.4171 23.2469 21.4171 22.7539 21.4171 21.7681V21.5317H22.3713C24.2534 21.5317 25.1944 21.5317 25.9133 21.1655C26.5456 20.8433 27.0597 20.3292 27.3819 19.6969C27.7481 18.978 27.7481 18.037 27.7481 16.1549V6.94813C27.7481 5.06606 27.7481 4.12502 27.3819 3.40617C27.0597 2.77384 26.5456 2.25975 25.9133 1.93756C25.1944 1.57129 24.2534 1.57129 22.3713 1.57129H8.22486C6.16354 1.57129 5.13289 1.57129 4.34557 1.97245C3.65302 2.32532 3.08997 2.88837 2.7371 3.58092Z" fill="url(#paint2_linear_6466_1241)"/>
</g>
<rect x="14.8115" y="6.24121" width="1.10878" height="1.10878" rx="0.55439" fill="url(#paint3_linear_6466_1241)"/>
<path d="M24.2069 3.74707C25.0907 3.74707 25.8071 4.46353 25.8071 5.34732V16.498H4.27832V5.34732C4.27832 4.46353 4.99478 3.74707 5.87857 3.74707H24.2069Z" fill="url(#paint4_linear_6466_1241)"/>
<path d="M24.2069 3.74707C25.0907 3.74707 25.8071 4.46353 25.8071 5.34732V16.498H4.27832V5.34732C4.27832 4.46353 4.99478 3.74707 5.87857 3.74707H24.2069Z" fill="url(#paint5_linear_6466_1241)"/>
<path d="M24.2069 4.30716C24.7813 4.30716 25.247 4.77285 25.247 5.34732V15.938H4.83841V5.34732C4.83841 4.77285 5.3041 4.30716 5.87857 4.30716H24.2069Z" stroke="url(#paint6_linear_6466_1241)" stroke-opacity="0.5" stroke-width="1.12018" stroke-miterlimit="10" stroke-linejoin="bevel"/>
<path fill-rule="evenodd" clip-rule="evenodd" d="M5.79817 4.22675C5.2237 4.22675 4.758 4.69245 4.758 5.26692V16.0176H25.3267V5.26692C25.3267 4.69245 24.861 4.22675 24.2865 4.22675H8.20444H5.79817ZM3.79785 17.9342V16.4977V5.26692C3.79785 4.16217 4.69342 3.2666 5.79817 3.2666H8.20444H24.2865C25.3912 3.2666 26.2868 4.16217 26.2868 5.26692V17.9342C26.2868 19.0389 25.3912 19.9345 24.2865 19.9345H17.8785V22.3931H19.2464C19.5115 22.3931 19.7265 22.608 19.7265 22.8731C19.7265 23.1383 19.5115 23.3532 19.2464 23.3532H10.7458C10.4806 23.3532 10.2657 23.1383 10.2657 22.8731C10.2657 22.608 10.4806 22.3931 10.7458 22.3931H12.2061V19.9345H5.79817C4.69342 19.9345 3.79785 19.0389 3.79785 17.9342ZM25.3267 16.9777H4.758V17.9342C4.758 18.5086 5.2237 18.9743 5.79817 18.9743H12.6845L12.6861 18.9743H13.5456H17.3984L17.4001 18.9743H24.2865C24.861 18.9743 25.3267 18.5086 25.3267 17.9342V16.9777ZM13.1662 22.3931V19.9345H13.5456H16.9184V22.3931H13.1662ZM17.376 10.784C17.6105 10.6486 17.6105 10.3102 17.376 10.1749L14.1671 8.32222C13.9327 8.18687 13.6396 8.35606 13.6396 8.62676V12.3321C13.6396 12.6028 13.9327 12.772 14.1671 12.6366L17.376 10.784Z" fill="url(#paint7_linear_6466_1241)"/>
<path fill-rule="evenodd" clip-rule="evenodd" d="M5.79817 4.22675C5.2237 4.22675 4.758 4.69245 4.758 5.26692V16.0176H25.3267V5.26692C25.3267 4.69245 24.861 4.22675 24.2865 4.22675H8.20444H5.79817ZM3.79785 17.9342V16.4977V5.26692C3.79785 4.16217 4.69342 3.2666 5.79817 3.2666H8.20444H24.2865C25.3912 3.2666 26.2868 4.16217 26.2868 5.26692V17.9342C26.2868 19.0389 25.3912 19.9345 24.2865 19.9345H17.8785V22.3931H19.2464C19.5115 22.3931 19.7265 22.608 19.7265 22.8731C19.7265 23.1383 19.5115 23.3532 19.2464 23.3532H10.7458C10.4806 23.3532 10.2657 23.1383 10.2657 22.8731C10.2657 22.608 10.4806 22.3931 10.7458 22.3931H12.2061V19.9345H5.79817C4.69342 19.9345 3.79785 19.0389 3.79785 17.9342ZM25.3267 16.9777H4.758V17.9342C4.758 18.5086 5.2237 18.9743 5.79817 18.9743H12.6845L12.6861 18.9743H13.5456H17.3984L17.4001 18.9743H24.2865C24.861 18.9743 25.3267 18.5086 25.3267 17.9342V16.9777ZM13.1662 22.3931V19.9345H13.5456H16.9184V22.3931H13.1662ZM17.376 10.784C17.6105 10.6486 17.6105 10.3102 17.376 10.1749L14.1671 8.32222C13.9327 8.18687 13.6396 8.35606 13.6396 8.62676V12.3321C13.6396 12.6028 13.9327 12.772 14.1671 12.6366L17.376 10.784Z" fill="url(#paint8_linear_6466_1241)"/>
<rect x="14.5342" y="17.4219" width="1.10878" height="1.10878" rx="0.55439" fill="url(#paint9_linear_6466_1241)" fill-opacity="0.6"/>
<defs>
<filter id="filter0_di_6466_1241" x="0.415636" y="0.371101" width="29.2527" height="26.8543" filterUnits="userSpaceOnUse" color-interpolation-filters="sRGB">
<feFlood flood-opacity="0" result="BackgroundImageFix"/>
<feColorMatrix in="SourceAlpha" type="matrix" values="0 0 0 0 0 0 0 0 0 0 0 0 0 0 0 0 0 0 127 0" result="hardAlpha"/>
<feOffset dy="0.720113"/>
<feGaussianBlur stdDeviation="0.960151"/>
<feComposite in2="hardAlpha" operator="out"/>
<feColorMatrix type="matrix" values="0 0 0 0 0 0 0 0 0 0 0 0 0 0 0 0 0 0 0.25 0"/>
<feBlend mode="normal" in2="BackgroundImageFix" result="effect1_dropShadow_6466_1241"/>
<feBlend mode="normal" in="SourceGraphic" in2="effect1_dropShadow_6466_1241" result="shape"/>
<feColorMatrix in="SourceAlpha" type="matrix" values="0 0 0 0 0 0 0 0 0 0 0 0 0 0 0 0 0 0 127 0" result="hardAlpha"/>
<feOffset dy="-0.160025"/>
<feGaussianBlur stdDeviation="0.0800126"/>
<feComposite in2="hardAlpha" operator="arithmetic" k2="-1" k3="1"/>
<feColorMatrix type="matrix" values="0 0 0 0 0 0 0 0 0 0 0 0 0 0 0 0 0 0 0.11 0"/>
<feBlend mode="normal" in2="shape" result="effect2_innerShadow_6466_1241"/>
</filter>
<linearGradient id="paint0_linear_6466_1241" x1="11.0891" y1="15.3203" x2="13.7893" y2="24.5776" gradientUnits="userSpaceOnUse">
<stop stop-color="white"/>
<stop offset="1" stop-color="#D7D7D7"/>
</linearGradient>
<linearGradient id="paint1_linear_6466_1241" x1="13.7244" y1="1.64408" x2="21.3723" y2="25.4307" gradientUnits="userSpaceOnUse">
<stop stop-color="#322D37"/>
<stop offset="1" stop-color="#18151B"/>
</linearGradient>
<linearGradient id="paint2_linear_6466_1241" x1="13.782" y1="2.51799" x2="20.4612" y2="24.8424" gradientUnits="userSpaceOnUse">
<stop stop-color="white"/>
<stop offset="1" stop-color="#D7D7D7"/>
</linearGradient>
<linearGradient id="paint3_linear_6466_1241" x1="15.3084" y1="6.24474" x2="15.7118" y2="7.37345" gradientUnits="userSpaceOnUse">
<stop stop-color="#322D37"/>
<stop offset="1" stop-color="#18151B"/>
</linearGradient>
<linearGradient id="paint4_linear_6466_1241" x1="13.9265" y1="3.78767" x2="16.892" y2="17.7979" gradientUnits="userSpaceOnUse">
<stop stop-color="#322D37"/>
<stop offset="1" stop-color="#18151B"/>
</linearGradient>
<linearGradient id="paint5_linear_6466_1241" x1="13.9752" y1="4.27161" x2="16.515" y2="17.2512" gradientUnits="userSpaceOnUse">
<stop stop-color="white"/>
<stop offset="1" stop-color="#D7D7D7"/>
</linearGradient>
<linearGradient id="paint6_linear_6466_1241" x1="7.5687" y1="5.523" x2="14.1274" y2="17.3948" gradientUnits="userSpaceOnUse">
<stop stop-color="#FF00A0"/>
<stop offset="1" stop-color="#9600FF"/>
</linearGradient>
<linearGradient id="paint7_linear_6466_1241" x1="13.8763" y1="3.26658" x2="20.139" y2="23.5937" gradientUnits="userSpaceOnUse">
<stop stop-color="#F3F3F3"/>
<stop offset="1" stop-color="#8F8F95"/>
</linearGradient>
<linearGradient id="paint8_linear_6466_1241" x1="13.7698" y1="3.26658" x2="20.2196" y2="23.9628" gradientUnits="userSpaceOnUse">
<stop stop-color="#4C4C4C"/>
<stop offset="1" stop-color="#1B1B1F"/>
</linearGradient>
<linearGradient id="paint9_linear_6466_1241" x1="14.7036" y1="17.5763" x2="15.3757" y2="18.2968" gradientUnits="userSpaceOnUse">
<stop stop-color="#FF00A0"/>
<stop offset="1" stop-color="#9600FF"/>
</linearGradient>
</defs>
</svg>
