<svg width="32" height="32" viewBox="0 0 32 32" fill="none" xmlns="http://www.w3.org/2000/svg">
<g clip-path="url(#clip0_6466_1278)">
<g filter="url(#filter0_di_6466_1278)">
<path fill-rule="evenodd" clip-rule="evenodd" d="M26.842 2.5791C28.6546 2.5791 30.124 4.04853 30.124 5.86115V13.7146C30.124 14.9945 29.3914 16.1033 28.3227 16.6445C28.0272 16.7941 27.8794 16.8689 27.8118 16.9378C27.7398 17.0112 27.7122 17.0555 27.6778 17.1524C27.6456 17.2434 27.6438 17.3674 27.6403 17.6154L27.624 18.7602C27.6042 20.1509 25.9716 20.8879 24.9154 19.983L21.6934 17.2223C21.5959 17.1388 21.5472 17.097 21.4922 17.0673C21.4434 17.0409 21.3911 17.0216 21.3369 17.0099C21.2758 16.9967 21.2116 16.9967 21.0833 16.9967H14.1826C12.37 16.9967 10.9006 15.5273 10.9006 13.7146V5.86115C10.9006 4.04853 12.37 2.5791 14.1826 2.5791H26.842Z" fill="url(#paint0_linear_6466_1278)"/>
<path fill-rule="evenodd" clip-rule="evenodd" d="M26.842 2.5791C28.6546 2.5791 30.124 4.04853 30.124 5.86115V13.7146C30.124 14.9945 29.3914 16.1033 28.3227 16.6445C28.0272 16.7941 27.8794 16.8689 27.8118 16.9378C27.7398 17.0112 27.7122 17.0555 27.6778 17.1524C27.6456 17.2434 27.6438 17.3674 27.6403 17.6154L27.624 18.7602C27.6042 20.1509 25.9716 20.8879 24.9154 19.983L21.6934 17.2223C21.5959 17.1388 21.5472 17.097 21.4922 17.0673C21.4434 17.0409 21.3911 17.0216 21.3369 17.0099C21.2758 16.9967 21.2116 16.9967 21.0833 16.9967H14.1826C12.37 16.9967 10.9006 15.5273 10.9006 13.7146V5.86115C10.9006 4.04853 12.37 2.5791 14.1826 2.5791H26.842Z" fill="url(#paint1_linear_6466_1278)"/>
<path fill-rule="evenodd" clip-rule="evenodd" d="M26.842 2.5791C28.6546 2.5791 30.124 4.04853 30.124 5.86115V13.7146C30.124 14.9945 29.3914 16.1033 28.3227 16.6445C28.0272 16.7941 27.8794 16.8689 27.8118 16.9378C27.7398 17.0112 27.7122 17.0555 27.6778 17.1524C27.6456 17.2434 27.6438 17.3674 27.6403 17.6154L27.624 18.7602C27.6042 20.1509 25.9716 20.8879 24.9154 19.983L21.6934 17.2223C21.5959 17.1388 21.5472 17.097 21.4922 17.0673C21.4434 17.0409 21.3911 17.0216 21.3369 17.0099C21.2758 16.9967 21.2116 16.9967 21.0833 16.9967H14.1826C12.37 16.9967 10.9006 15.5273 10.9006 13.7146V5.86115C10.9006 4.04853 12.37 2.5791 14.1826 2.5791H26.842Z" fill="url(#paint2_linear_6466_1278)"/>
</g>
<mask id="path-2-inside-1_6466_1278" fill="white">
<path fill-rule="evenodd" clip-rule="evenodd" d="M28.279 5.24374C28.4834 5.64493 28.4834 6.1701 28.4834 7.22046V12.3545C28.4834 13.4049 28.4834 13.9301 28.279 14.3312C28.0992 14.6841 27.8123 14.971 27.4594 15.1508C27.2418 15.2617 26.9878 15.3124 26.6333 15.3357C26.3115 15.3567 26.0516 15.6141 26.053 15.9366L26.0629 18.3626C26.0638 18.5678 25.8192 18.6749 25.6689 18.5353L22.4154 15.512C22.307 15.4113 22.1645 15.3553 22.0165 15.3553H15.5427C14.4924 15.3553 13.9672 15.3553 13.566 15.1508C13.2131 14.971 12.9262 14.6841 12.7464 14.3312C12.542 13.9301 12.542 13.4049 12.542 12.3545V7.22046C12.542 6.1701 12.542 5.64493 12.7464 5.24374C12.9262 4.89085 13.2131 4.60395 13.566 4.42414C13.9672 4.21973 14.4924 4.21973 15.5427 4.21973H25.4827C26.533 4.21973 27.0582 4.21973 27.4594 4.42414C27.8123 4.60395 28.0992 4.89085 28.279 5.24374Z"/>
</mask>
<path d="M28.279 5.24374L27.2811 5.75221V5.75221L28.279 5.24374ZM28.279 14.3312L27.2811 13.8228L28.279 14.3312ZM27.4594 15.1508L26.9509 14.1529H26.9509L27.4594 15.1508ZM26.0629 18.3626L24.9429 18.3672L26.0629 18.3626ZM25.6689 18.5353L26.4313 17.7148L26.4313 17.7148L25.6689 18.5353ZM13.566 15.1508L13.0576 16.1488L13.0576 16.1488L13.566 15.1508ZM12.7464 14.3312L11.7485 14.8397L12.7464 14.3312ZM12.7464 5.24374L11.7485 4.73528V4.73527L12.7464 5.24374ZM13.566 4.42414L13.0576 3.42621L13.0576 3.42621L13.566 4.42414ZM27.4594 4.42414L26.9509 5.42207H26.9509L27.4594 4.42414ZM22.4154 15.512L21.653 16.3325L22.4154 15.512ZM26.6333 15.3357L26.7065 16.4533L26.6333 15.3357ZM27.3634 7.22046C27.3634 6.6768 27.3625 6.33642 27.3416 6.07987C27.3217 5.83639 27.2894 5.7686 27.2811 5.75221L29.2769 4.73527C29.473 5.12007 29.5429 5.51546 29.5741 5.89746C29.6043 6.26638 29.6034 6.71376 29.6034 7.22046H27.3634ZM27.3634 12.3545V7.22046H29.6034V12.3545H27.3634ZM27.2811 13.8228C27.2894 13.8064 27.3217 13.7386 27.3416 13.4951C27.3625 13.2386 27.3634 12.8982 27.3634 12.3545H29.6034C29.6034 12.8612 29.6043 13.3086 29.5741 13.6775C29.5429 14.0595 29.473 14.4549 29.2769 14.8397L27.2811 13.8228ZM26.9509 14.1529C27.0931 14.0805 27.2086 13.9649 27.2811 13.8228L29.2769 14.8397C28.9897 15.4033 28.5315 15.8616 27.9679 16.1488L26.9509 14.1529ZM26.5601 14.2181C26.855 14.1987 26.9321 14.1625 26.9509 14.1529L27.9679 16.1488C27.5515 16.3609 27.1206 16.4261 26.7065 16.4533L26.5601 14.2181ZM27.173 15.932L27.1829 18.358L24.9429 18.3672L24.933 15.9412L27.173 15.932ZM27.1829 18.358C27.1878 19.5435 25.775 20.1627 24.9065 19.3557L26.4313 17.7148C25.8635 17.1872 24.9397 17.592 24.9429 18.3672L27.1829 18.358ZM24.9065 19.3557L21.653 16.3325L23.1778 14.6915L26.4313 17.7148L24.9065 19.3557ZM15.5427 14.2353H22.0165V16.4753H15.5427V14.2353ZM14.0745 14.1529C14.0909 14.1613 14.1587 14.1935 14.4021 14.2134C14.6587 14.2344 14.9991 14.2353 15.5427 14.2353V16.4753C15.036 16.4753 14.5887 16.4761 14.2197 16.446C13.8377 16.4148 13.4424 16.3448 13.0576 16.1488L14.0745 14.1529ZM13.7443 13.8228C13.8168 13.9649 13.9323 14.0805 14.0745 14.1529L13.0576 16.1488C12.4939 15.8616 12.0357 15.4033 11.7485 14.8397L13.7443 13.8228ZM13.662 12.3545C13.662 12.8982 13.6629 13.2386 13.6838 13.4951C13.7037 13.7386 13.736 13.8064 13.7443 13.8228L11.7485 14.8397C11.5524 14.4549 11.4825 14.0595 11.4513 13.6775C11.4211 13.3086 11.422 12.8612 11.422 12.3545H13.662ZM13.662 7.22046V12.3545H11.422V7.22046H13.662ZM13.7443 5.75221C13.736 5.7686 13.7037 5.83639 13.6838 6.07987C13.6629 6.33642 13.662 6.6768 13.662 7.22046H11.422C11.422 6.71376 11.4211 6.26638 11.4513 5.89746C11.4825 5.51546 11.5524 5.12007 11.7485 4.73528L13.7443 5.75221ZM14.0745 5.42207C13.9323 5.49449 13.8168 5.61006 13.7443 5.75221L11.7485 4.73527C12.0357 4.17164 12.4939 3.7134 13.0576 3.42621L14.0745 5.42207ZM15.5427 5.33973C14.9991 5.33973 14.6587 5.3406 14.4021 5.36156C14.1587 5.38145 14.0909 5.41372 14.0745 5.42207L13.0576 3.42621C13.4424 3.23015 13.8377 3.16021 14.2197 3.129C14.5887 3.09886 15.036 3.09973 15.5427 3.09973V5.33973ZM25.4827 5.33973H15.5427V3.09973H25.4827V5.33973ZM26.9509 5.42207C26.9345 5.41372 26.8667 5.38145 26.6233 5.36156C26.3667 5.3406 26.0263 5.33973 25.4827 5.33973V3.09973C25.9894 3.09973 26.4367 3.09886 26.8057 3.129C27.1877 3.16021 27.5831 3.23015 27.9679 3.42621L26.9509 5.42207ZM27.2811 5.75221C27.2086 5.61007 27.0931 5.49449 26.9509 5.42207L27.9679 3.42621C28.5315 3.7134 28.9897 4.17164 29.2769 4.73527L27.2811 5.75221ZM21.653 16.3325C21.7518 16.4242 21.8816 16.4753 22.0165 16.4753V14.2353C22.4473 14.2353 22.8622 14.3983 23.1778 14.6915L21.653 16.3325ZM26.7065 16.4533C26.9254 16.4389 27.1743 16.2502 27.173 15.932L24.933 15.9412C24.929 14.978 25.6977 14.2746 26.5601 14.2181L26.7065 16.4533Z" fill="url(#paint3_linear_6466_1278)" fill-opacity="0.4" mask="url(#path-2-inside-1_6466_1278)"/>
<path d="M28.279 5.24374L27.8513 5.46166V5.46166L28.279 5.24374ZM28.279 14.3312L27.8513 14.1133H27.8513L28.279 14.3312ZM27.4594 15.1508L27.2415 14.7232H27.2415L27.4594 15.1508ZM26.0629 18.3626L25.5829 18.3645V18.3645L26.0629 18.3626ZM25.6689 18.5353L25.9956 18.1836L25.9956 18.1836L25.6689 18.5353ZM13.566 15.1508L13.3481 15.5785L13.3481 15.5785L13.566 15.1508ZM12.7464 14.3312L12.3187 14.5492L12.7464 14.3312ZM12.7464 5.24374L12.3187 5.02583V5.02583L12.7464 5.24374ZM13.566 4.42414L13.3481 3.99646V3.99646L13.566 4.42414ZM27.4594 4.42414L27.2415 4.85182H27.2415L27.4594 4.42414ZM22.4154 15.512L22.0887 15.8636L22.4154 15.512ZM26.6333 15.3357L26.6647 15.8146L26.6333 15.3357ZM28.0034 7.22046C28.0034 6.68736 28.003 6.31641 27.9794 6.02775C27.9563 5.7447 27.9133 5.58331 27.8513 5.46166L28.7067 5.02583C28.8491 5.30536 28.9083 5.60715 28.9363 5.94957C28.9638 6.28639 28.9634 6.7032 28.9634 7.22046H28.0034ZM28.0034 12.3545V7.22046H28.9634V12.3545H28.0034ZM27.8513 14.1133C27.9133 13.9917 27.9563 13.8303 27.9794 13.5472C28.003 13.2586 28.0034 12.8876 28.0034 12.3545H28.9634C28.9634 12.8718 28.9638 13.2886 28.9363 13.6254C28.9083 13.9678 28.8491 14.2696 28.7067 14.5492L27.8513 14.1133ZM27.2415 14.7232C27.504 14.5894 27.7175 14.3759 27.8513 14.1133L28.7067 14.5492C28.4808 14.9924 28.1205 15.3527 27.6773 15.5785L27.2415 14.7232ZM26.6019 14.8567C26.9309 14.8351 27.1091 14.7906 27.2415 14.7232L27.6773 15.5785C27.3746 15.7328 27.0447 15.7897 26.6647 15.8146L26.6019 14.8567ZM26.533 15.9346L26.5429 18.3606L25.5829 18.3645L25.573 15.9386L26.533 15.9346ZM26.5429 18.3606C26.5455 18.9859 25.8002 19.3126 25.3422 18.8869L25.9956 18.1836C25.8382 18.0373 25.582 18.1496 25.5829 18.3645L26.5429 18.3606ZM25.3422 18.8869L22.0887 15.8636L22.7422 15.1604L25.9956 18.1836L25.3422 18.8869ZM15.5427 14.8753H22.0165V15.8353H15.5427V14.8753ZM13.7839 14.7232C13.9056 14.7851 14.067 14.8282 14.35 14.8513C14.6387 14.8749 15.0096 14.8753 15.5427 14.8753V15.8353C15.0255 15.8353 14.6087 15.8356 14.2719 15.8081C13.9294 15.7801 13.6276 15.721 13.3481 15.5785L13.7839 14.7232ZM13.1741 14.1133C13.3079 14.3759 13.5214 14.5894 13.7839 14.7232L13.3481 15.5785C12.9049 15.3527 12.5446 14.9924 12.3187 14.5492L13.1741 14.1133ZM13.022 12.3545C13.022 12.8876 13.0224 13.2586 13.046 13.5472C13.0691 13.8303 13.1121 13.9917 13.1741 14.1133L12.3187 14.5492C12.1763 14.2696 12.1171 13.9678 12.0892 13.6254C12.0616 13.2886 12.062 12.8718 12.062 12.3545H13.022ZM13.022 7.22046V12.3545H12.062V7.22046H13.022ZM13.1741 5.46166C13.1121 5.58331 13.0691 5.7447 13.046 6.02775C13.0224 6.31641 13.022 6.68736 13.022 7.22046H12.062C12.062 6.7032 12.0616 6.28639 12.0892 5.94957C12.1171 5.60715 12.1763 5.30536 12.3187 5.02583L13.1741 5.46166ZM13.7839 4.85182C13.5214 4.98561 13.3079 5.19909 13.1741 5.46166L12.3187 5.02583C12.5446 4.58262 12.9049 4.22228 13.3481 3.99646L13.7839 4.85182ZM15.5427 4.69973C15.0096 4.69973 14.6387 4.7001 14.35 4.72368C14.067 4.74681 13.9056 4.78984 13.7839 4.85182L13.3481 3.99646C13.6276 3.85403 13.9294 3.79485 14.2719 3.76687C14.6087 3.73935 15.0255 3.73973 15.5427 3.73973V4.69973ZM25.4827 4.69973H15.5427V3.73973H25.4827V4.69973ZM27.2415 4.85182C27.1198 4.78984 26.9584 4.74681 26.6754 4.72368C26.3867 4.7001 26.0158 4.69973 25.4827 4.69973V3.73973C25.9999 3.73973 26.4167 3.73935 26.7536 3.76687C27.096 3.79485 27.3978 3.85403 27.6773 3.99646L27.2415 4.85182ZM27.8513 5.46166C27.7175 5.19909 27.504 4.98561 27.2415 4.85182L27.6773 3.99646C28.1205 4.22228 28.4808 4.58262 28.7067 5.02583L27.8513 5.46166ZM22.0887 15.8636C22.0691 15.8454 22.0433 15.8353 22.0165 15.8353V14.8753C22.2857 14.8753 22.5449 14.9771 22.7422 15.1604L22.0887 15.8636ZM26.6647 15.8146C26.5746 15.8205 26.5328 15.8868 26.533 15.9346L25.573 15.9386C25.5705 15.3415 26.0484 14.8929 26.6019 14.8567L26.6647 15.8146Z" fill="url(#paint4_linear_6466_1278)"/>
<path d="M28.279 5.24374L27.8513 5.46166V5.46166L28.279 5.24374ZM28.279 14.3312L27.8513 14.1133H27.8513L28.279 14.3312ZM27.4594 15.1508L27.2415 14.7232H27.2415L27.4594 15.1508ZM26.0629 18.3626L25.5829 18.3645V18.3645L26.0629 18.3626ZM25.6689 18.5353L25.9956 18.1836L25.9956 18.1836L25.6689 18.5353ZM13.566 15.1508L13.3481 15.5785L13.3481 15.5785L13.566 15.1508ZM12.7464 14.3312L12.3187 14.5492L12.7464 14.3312ZM12.7464 5.24374L12.3187 5.02583V5.02583L12.7464 5.24374ZM13.566 4.42414L13.3481 3.99646V3.99646L13.566 4.42414ZM27.4594 4.42414L27.2415 4.85182H27.2415L27.4594 4.42414ZM22.4154 15.512L22.0887 15.8636L22.4154 15.512ZM26.6333 15.3357L26.6647 15.8146L26.6333 15.3357ZM28.0034 7.22046C28.0034 6.68736 28.003 6.31641 27.9794 6.02775C27.9563 5.7447 27.9133 5.58331 27.8513 5.46166L28.7067 5.02583C28.8491 5.30536 28.9083 5.60715 28.9363 5.94957C28.9638 6.28639 28.9634 6.7032 28.9634 7.22046H28.0034ZM28.0034 12.3545V7.22046H28.9634V12.3545H28.0034ZM27.8513 14.1133C27.9133 13.9917 27.9563 13.8303 27.9794 13.5472C28.003 13.2586 28.0034 12.8876 28.0034 12.3545H28.9634C28.9634 12.8718 28.9638 13.2886 28.9363 13.6254C28.9083 13.9678 28.8491 14.2696 28.7067 14.5492L27.8513 14.1133ZM27.2415 14.7232C27.504 14.5894 27.7175 14.3759 27.8513 14.1133L28.7067 14.5492C28.4808 14.9924 28.1205 15.3527 27.6773 15.5785L27.2415 14.7232ZM26.6019 14.8567C26.9309 14.8351 27.1091 14.7906 27.2415 14.7232L27.6773 15.5785C27.3746 15.7328 27.0447 15.7897 26.6647 15.8146L26.6019 14.8567ZM26.533 15.9346L26.5429 18.3606L25.5829 18.3645L25.573 15.9386L26.533 15.9346ZM26.5429 18.3606C26.5455 18.9859 25.8002 19.3126 25.3422 18.8869L25.9956 18.1836C25.8382 18.0373 25.582 18.1496 25.5829 18.3645L26.5429 18.3606ZM25.3422 18.8869L22.0887 15.8636L22.7422 15.1604L25.9956 18.1836L25.3422 18.8869ZM15.5427 14.8753H22.0165V15.8353H15.5427V14.8753ZM13.7839 14.7232C13.9056 14.7851 14.067 14.8282 14.35 14.8513C14.6387 14.8749 15.0096 14.8753 15.5427 14.8753V15.8353C15.0255 15.8353 14.6087 15.8356 14.2719 15.8081C13.9294 15.7801 13.6276 15.721 13.3481 15.5785L13.7839 14.7232ZM13.1741 14.1133C13.3079 14.3759 13.5214 14.5894 13.7839 14.7232L13.3481 15.5785C12.9049 15.3527 12.5446 14.9924 12.3187 14.5492L13.1741 14.1133ZM13.022 12.3545C13.022 12.8876 13.0224 13.2586 13.046 13.5472C13.0691 13.8303 13.1121 13.9917 13.1741 14.1133L12.3187 14.5492C12.1763 14.2696 12.1171 13.9678 12.0892 13.6254C12.0616 13.2886 12.062 12.8718 12.062 12.3545H13.022ZM13.022 7.22046V12.3545H12.062V7.22046H13.022ZM13.1741 5.46166C13.1121 5.58331 13.0691 5.7447 13.046 6.02775C13.0224 6.31641 13.022 6.68736 13.022 7.22046H12.062C12.062 6.7032 12.0616 6.28639 12.0892 5.94957C12.1171 5.60715 12.1763 5.30536 12.3187 5.02583L13.1741 5.46166ZM13.7839 4.85182C13.5214 4.98561 13.3079 5.19909 13.1741 5.46166L12.3187 5.02583C12.5446 4.58262 12.9049 4.22228 13.3481 3.99646L13.7839 4.85182ZM15.5427 4.69973C15.0096 4.69973 14.6387 4.7001 14.35 4.72368C14.067 4.74681 13.9056 4.78984 13.7839 4.85182L13.3481 3.99646C13.6276 3.85403 13.9294 3.79485 14.2719 3.76687C14.6087 3.73935 15.0255 3.73973 15.5427 3.73973V4.69973ZM25.4827 4.69973H15.5427V3.73973H25.4827V4.69973ZM27.2415 4.85182C27.1198 4.78984 26.9584 4.74681 26.6754 4.72368C26.3867 4.7001 26.0158 4.69973 25.4827 4.69973V3.73973C25.9999 3.73973 26.4167 3.73935 26.7536 3.76687C27.096 3.79485 27.3978 3.85403 27.6773 3.99646L27.2415 4.85182ZM27.8513 5.46166C27.7175 5.19909 27.504 4.98561 27.2415 4.85182L27.6773 3.99646C28.1205 4.22228 28.4808 4.58262 28.7067 5.02583L27.8513 5.46166ZM22.0887 15.8636C22.0691 15.8454 22.0433 15.8353 22.0165 15.8353V14.8753C22.2857 14.8753 22.5449 14.9771 22.7422 15.1604L22.0887 15.8636ZM26.6647 15.8146C26.5746 15.8205 26.5328 15.8868 26.533 15.9346L25.573 15.9386C25.5705 15.3415 26.0484 14.8929 26.6019 14.8567L26.6647 15.8146Z" fill="url(#paint5_linear_6466_1278)"/>
<g filter="url(#filter1_di_6466_1278)">
<path fill-rule="evenodd" clip-rule="evenodd" d="M5.39143 11.2529C3.5788 11.2529 2.10938 12.7224 2.10938 14.535V22.3885C2.10938 23.6683 2.84199 24.7771 3.91074 25.3183C4.20624 25.468 4.35399 25.5428 4.42156 25.6117C4.49356 25.6851 4.52121 25.7293 4.55556 25.8263C4.58779 25.9172 4.58955 26.0412 4.59309 26.2892L4.6094 27.434C4.62921 28.8248 6.26175 29.5618 7.31798 28.6568L10.54 25.8961C10.6375 25.8126 10.6862 25.7709 10.7412 25.7411C10.79 25.7147 10.8423 25.6954 10.8965 25.6837C10.9576 25.6705 11.0218 25.6705 11.1501 25.6705H18.0508C19.8634 25.6705 21.3328 24.2011 21.3328 22.3885V14.535C21.3328 12.7224 19.8634 11.2529 18.0508 11.2529H5.39143Z" fill="url(#paint6_linear_6466_1278)"/>
<path fill-rule="evenodd" clip-rule="evenodd" d="M5.39143 11.2529C3.5788 11.2529 2.10938 12.7224 2.10938 14.535V22.3885C2.10938 23.6683 2.84199 24.7771 3.91074 25.3183C4.20624 25.468 4.35399 25.5428 4.42156 25.6117C4.49356 25.6851 4.52121 25.7293 4.55556 25.8263C4.58779 25.9172 4.58955 26.0412 4.59309 26.2892L4.6094 27.434C4.62921 28.8248 6.26175 29.5618 7.31798 28.6568L10.54 25.8961C10.6375 25.8126 10.6862 25.7709 10.7412 25.7411C10.79 25.7147 10.8423 25.6954 10.8965 25.6837C10.9576 25.6705 11.0218 25.6705 11.1501 25.6705H18.0508C19.8634 25.6705 21.3328 24.2011 21.3328 22.3885V14.535C21.3328 12.7224 19.8634 11.2529 18.0508 11.2529H5.39143Z" fill="url(#paint7_linear_6466_1278)"/>
<path fill-rule="evenodd" clip-rule="evenodd" d="M5.39143 11.2529C3.5788 11.2529 2.10938 12.7224 2.10938 14.535V22.3885C2.10938 23.6683 2.84199 24.7771 3.91074 25.3183C4.20624 25.468 4.35399 25.5428 4.42156 25.6117C4.49356 25.6851 4.52121 25.7293 4.55556 25.8263C4.58779 25.9172 4.58955 26.0412 4.59309 26.2892L4.6094 27.434C4.62921 28.8248 6.26175 29.5618 7.31798 28.6568L10.54 25.8961C10.6375 25.8126 10.6862 25.7709 10.7412 25.7411C10.79 25.7147 10.8423 25.6954 10.8965 25.6837C10.9576 25.6705 11.0218 25.6705 11.1501 25.6705H18.0508C19.8634 25.6705 21.3328 24.2011 21.3328 22.3885V14.535C21.3328 12.7224 19.8634 11.2529 18.0508 11.2529H5.39143Z" fill="url(#paint8_linear_6466_1278)"/>
</g>
<mask id="path-6-inside-2_6466_1278" fill="white">
<path fill-rule="evenodd" clip-rule="evenodd" d="M3.95539 13.9176C3.75098 14.3188 3.75098 14.8439 3.75098 15.8943V21.0284C3.75098 22.0787 3.75098 22.6039 3.95539 23.0051C4.1352 23.358 4.4221 23.6449 4.77499 23.8247C4.99256 23.9355 5.24658 23.9863 5.60106 24.0095C5.92283 24.0306 6.18273 24.288 6.18141 24.6104L6.17146 27.0364C6.17062 27.2416 6.41516 27.3488 6.56547 27.2091L9.81895 24.1858C9.92737 24.0851 10.0699 24.0291 10.2179 24.0291H16.6916C17.742 24.0291 18.2672 24.0291 18.6684 23.8247C19.0212 23.6449 19.3081 23.358 19.488 23.0051C19.6924 22.6039 19.6924 22.0787 19.6924 21.0284V15.8943C19.6924 14.8439 19.6924 14.3188 19.488 13.9176C19.3081 13.5647 19.0212 13.2778 18.6684 13.098C18.2672 12.8936 17.742 12.8936 16.6916 12.8936H6.75171C5.70135 12.8936 5.17618 12.8936 4.77499 13.098C4.4221 13.2778 4.1352 13.5647 3.95539 13.9176Z"/>
</mask>
<path d="M3.95539 13.9176L4.95332 14.426V14.426L3.95539 13.9176ZM3.95539 23.0051L4.95332 22.4966L3.95539 23.0051ZM4.77499 23.8247L5.28346 22.8267H5.28346L4.77499 23.8247ZM6.17146 27.0364L7.29145 27.041L6.17146 27.0364ZM6.56547 27.2091L5.80308 26.3886L5.80307 26.3886L6.56547 27.2091ZM18.6684 23.8247L19.1768 24.8226L19.1768 24.8226L18.6684 23.8247ZM19.488 23.0051L20.4859 23.5135L19.488 23.0051ZM19.488 13.9176L20.4859 13.4091V13.4091L19.488 13.9176ZM18.6684 13.098L19.1768 12.1L19.1768 12.1L18.6684 13.098ZM4.77499 13.098L5.28346 14.0959H5.28346L4.77499 13.098ZM9.81895 24.1858L10.5814 25.0063L9.81895 24.1858ZM5.60106 24.0095L5.52784 25.1271L5.60106 24.0095ZM4.87098 15.8943C4.87098 15.3506 4.87185 15.0102 4.89281 14.7537C4.9127 14.5102 4.94497 14.4424 4.95332 14.426L2.95746 13.4091C2.7614 13.7939 2.69146 14.1893 2.66025 14.5713C2.63011 14.9402 2.63098 15.3876 2.63098 15.8943H4.87098ZM4.87098 21.0284V15.8943H2.63098V21.0284H4.87098ZM4.95332 22.4966C4.94497 22.4802 4.9127 22.4124 4.89281 22.1689C4.87185 21.9124 4.87098 21.572 4.87098 21.0284H2.63098C2.63098 21.535 2.63011 21.9824 2.66025 22.3514C2.69146 22.7334 2.7614 23.1287 2.95746 23.5135L4.95332 22.4966ZM5.28346 22.8267C5.14132 22.7543 5.02575 22.6387 4.95332 22.4966L2.95746 23.5135C3.24465 24.0772 3.70289 24.5354 4.26652 24.8226L5.28346 22.8267ZM5.67427 22.8919C5.37936 22.8726 5.30226 22.8363 5.28346 22.8267L4.26652 24.8226C4.68285 25.0347 5.1138 25.1 5.52784 25.1271L5.67427 22.8919ZM5.06142 24.6058L5.05147 27.0318L7.29145 27.041L7.3014 24.615L5.06142 24.6058ZM5.05147 27.0318C5.04661 28.2173 6.45942 28.8365 7.32787 28.0295L5.80307 26.3886C6.37089 25.861 7.29463 26.2659 7.29145 27.041L5.05147 27.0318ZM7.32787 28.0295L10.5814 25.0063L9.05655 23.3654L5.80308 26.3886L7.32787 28.0295ZM16.6916 22.9091H10.2179V25.1491H16.6916V22.9091ZM18.1599 22.8267C18.1435 22.8351 18.0757 22.8674 17.8322 22.8873C17.5757 22.9082 17.2353 22.9091 16.6916 22.9091V25.1491C17.1983 25.1491 17.6457 25.15 18.0146 25.1198C18.3966 25.0886 18.792 25.0187 19.1768 24.8226L18.1599 22.8267ZM18.49 22.4966C18.4176 22.6387 18.302 22.7543 18.1599 22.8267L19.1768 24.8226C19.7405 24.5354 20.1987 24.0772 20.4859 23.5135L18.49 22.4966ZM18.5724 21.0284C18.5724 21.572 18.5715 21.9124 18.5505 22.1689C18.5306 22.4124 18.4984 22.4802 18.49 22.4966L20.4859 23.5135C20.6819 23.1287 20.7519 22.7334 20.7831 22.3514C20.8132 21.9824 20.8124 21.535 20.8124 21.0284H18.5724ZM18.5724 15.8943V21.0284H20.8124V15.8943H18.5724ZM18.49 14.426C18.4984 14.4424 18.5306 14.5102 18.5505 14.7537C18.5715 15.0102 18.5724 15.3506 18.5724 15.8943H20.8124C20.8124 15.3876 20.8132 14.9402 20.7831 14.5713C20.7519 14.1893 20.6819 13.7939 20.4859 13.4091L18.49 14.426ZM18.1599 14.0959C18.302 14.1683 18.4176 14.2839 18.49 14.426L20.4859 13.4091C20.1987 12.8455 19.7405 12.3872 19.1768 12.1L18.1599 14.0959ZM16.6916 14.0136C17.2353 14.0136 17.5757 14.0144 17.8322 14.0354C18.0757 14.0553 18.1435 14.0875 18.1599 14.0959L19.1768 12.1C18.792 11.904 18.3966 11.834 18.0146 11.8028C17.6457 11.7727 17.1983 11.7736 16.6916 11.7736V14.0136ZM6.75171 14.0136H16.6916V11.7736H6.75171V14.0136ZM5.28346 14.0959C5.29985 14.0875 5.36764 14.0553 5.61112 14.0354C5.86767 14.0144 6.20805 14.0136 6.75171 14.0136V11.7736C6.24501 11.7736 5.79763 11.7727 5.42871 11.8028C5.04671 11.834 4.65132 11.904 4.26652 12.1L5.28346 14.0959ZM4.95332 14.426C5.02574 14.2839 5.14132 14.1683 5.28346 14.0959L4.26652 12.1C3.70289 12.3872 3.24465 12.8455 2.95746 13.4091L4.95332 14.426ZM10.5814 25.0063C10.4826 25.0981 10.3527 25.1491 10.2179 25.1491V22.9091C9.78706 22.9091 9.37217 23.0721 9.05655 23.3654L10.5814 25.0063ZM5.52784 25.1271C5.30893 25.1127 5.06011 24.9241 5.06142 24.6058L7.3014 24.615C7.30535 23.6519 6.53672 22.9484 5.67427 22.8919L5.52784 25.1271Z" fill="url(#paint9_linear_6466_1278)" fill-opacity="0.4" mask="url(#path-6-inside-2_6466_1278)"/>
<path d="M3.95539 13.9176L4.38307 14.1355V14.1355L3.95539 13.9176ZM3.95539 23.0051L4.38307 22.7872H4.38307L3.95539 23.0051ZM4.77499 23.8247L4.99291 23.397H4.99291L4.77499 23.8247ZM6.17146 27.0364L6.65146 27.0384V27.0384L6.17146 27.0364ZM6.56547 27.2091L6.23873 26.8575L6.23873 26.8575L6.56547 27.2091ZM18.6684 23.8247L18.8863 24.2524L18.8863 24.2524L18.6684 23.8247ZM19.488 23.0051L19.9156 23.223L19.488 23.0051ZM19.488 13.9176L19.9156 13.6997V13.6997L19.488 13.9176ZM18.6684 13.098L18.8863 12.6703V12.6703L18.6684 13.098ZM4.77499 13.098L4.99291 13.5257H4.99291L4.77499 13.098ZM9.81895 24.1858L10.1457 24.5375L9.81895 24.1858ZM5.60106 24.0095L5.56968 24.4885L5.60106 24.0095ZM4.23098 15.8943C4.23098 15.3612 4.23135 14.9902 4.25493 14.7016C4.27806 14.4185 4.32109 14.2571 4.38307 14.1355L3.52771 13.6997C3.38528 13.9792 3.3261 14.281 3.29812 14.6234C3.2706 14.9602 3.27098 15.377 3.27098 15.8943H4.23098ZM4.23098 21.0284V15.8943H3.27098V21.0284H4.23098ZM4.38307 22.7872C4.32109 22.6655 4.27806 22.5041 4.25493 22.2211C4.23135 21.9324 4.23098 21.5615 4.23098 21.0284H3.27098C3.27098 21.5456 3.2706 21.9624 3.29812 22.2992C3.3261 22.6417 3.38528 22.9434 3.52771 23.223L4.38307 22.7872ZM4.99291 23.397C4.73034 23.2632 4.51686 23.0497 4.38307 22.7872L3.52771 23.223C3.75353 23.6662 4.11387 24.0265 4.55708 24.2524L4.99291 23.397ZM5.63243 23.5305C5.30349 23.509 5.12529 23.4644 4.99291 23.397L4.55708 24.2524C4.85982 24.4066 5.18968 24.4636 5.56968 24.4885L5.63243 23.5305ZM5.70141 24.6085L5.69147 27.0344L6.65146 27.0384L6.66141 24.6124L5.70141 24.6085ZM5.69147 27.0344C5.6889 27.6598 6.43413 27.9864 6.89222 27.5607L6.23873 26.8575C6.39619 26.7111 6.65234 26.8234 6.65146 27.0384L5.69147 27.0344ZM6.89222 27.5607L10.1457 24.5375L9.49221 23.8342L6.23873 26.8575L6.89222 27.5607ZM16.6916 23.5491H10.2179V24.5091H16.6916V23.5491ZM18.4504 23.397C18.3288 23.459 18.1674 23.502 17.8843 23.5251C17.5957 23.5487 17.2247 23.5491 16.6916 23.5491V24.5091C17.2089 24.5091 17.6257 24.5095 17.9625 24.4819C18.3049 24.454 18.6067 24.3948 18.8863 24.2524L18.4504 23.397ZM19.0603 22.7872C18.9265 23.0497 18.713 23.2632 18.4504 23.397L18.8863 24.2524C19.3295 24.0265 19.6898 23.6662 19.9156 23.223L19.0603 22.7872ZM19.2124 21.0284C19.2124 21.5615 19.212 21.9324 19.1884 22.2211C19.1653 22.5041 19.1223 22.6655 19.0603 22.7872L19.9156 23.223C20.0581 22.9434 20.1172 22.6417 20.1452 22.2992C20.1727 21.9624 20.1724 21.5456 20.1724 21.0284H19.2124ZM19.2124 15.8943V21.0284H20.1724V15.8943H19.2124ZM19.0603 14.1355C19.1223 14.2571 19.1653 14.4185 19.1884 14.7016C19.212 14.9902 19.2124 15.3612 19.2124 15.8943H20.1724C20.1724 15.377 20.1727 14.9602 20.1452 14.6234C20.1172 14.281 20.0581 13.9792 19.9156 13.6997L19.0603 14.1355ZM18.4504 13.5257C18.713 13.6594 18.9265 13.8729 19.0603 14.1355L19.9156 13.6997C19.6898 13.2564 19.3295 12.8961 18.8863 12.6703L18.4504 13.5257ZM16.6916 13.3736C17.2247 13.3736 17.5957 13.3739 17.8843 13.3975C18.1674 13.4206 18.3288 13.4637 18.4504 13.5257L18.8863 12.6703C18.6067 12.5279 18.3049 12.4687 17.9625 12.4407C17.6257 12.4132 17.2089 12.4136 16.6916 12.4136V13.3736ZM6.75171 13.3736H16.6916V12.4136H6.75171V13.3736ZM4.99291 13.5257C5.11456 13.4637 5.27595 13.4206 5.559 13.3975C5.84766 13.3739 6.21861 13.3736 6.75171 13.3736V12.4136C6.23445 12.4136 5.81764 12.4132 5.48082 12.4407C5.1384 12.4687 4.83661 12.5279 4.55708 12.6703L4.99291 13.5257ZM4.38307 14.1355C4.51686 13.8729 4.73034 13.6594 4.99291 13.5257L4.55708 12.6703C4.11387 12.8961 3.75353 13.2564 3.52771 13.6997L4.38307 14.1355ZM10.1457 24.5375C10.1653 24.5192 10.1911 24.5091 10.2179 24.5091V23.5491C9.94868 23.5491 9.68943 23.6509 9.49221 23.8342L10.1457 24.5375ZM5.56968 24.4885C5.65973 24.4944 5.70161 24.5606 5.70141 24.6085L6.66141 24.6124C6.66385 24.0154 6.18593 23.5668 5.63243 23.5305L5.56968 24.4885Z" fill="url(#paint10_linear_6466_1278)"/>
<path d="M3.95539 13.9176L4.38307 14.1355V14.1355L3.95539 13.9176ZM3.95539 23.0051L4.38307 22.7872H4.38307L3.95539 23.0051ZM4.77499 23.8247L4.99291 23.397H4.99291L4.77499 23.8247ZM6.17146 27.0364L6.65146 27.0384V27.0384L6.17146 27.0364ZM6.56547 27.2091L6.23873 26.8575L6.23873 26.8575L6.56547 27.2091ZM18.6684 23.8247L18.8863 24.2524L18.8863 24.2524L18.6684 23.8247ZM19.488 23.0051L19.9156 23.223L19.488 23.0051ZM19.488 13.9176L19.9156 13.6997V13.6997L19.488 13.9176ZM18.6684 13.098L18.8863 12.6703V12.6703L18.6684 13.098ZM4.77499 13.098L4.99291 13.5257H4.99291L4.77499 13.098ZM9.81895 24.1858L10.1457 24.5375L9.81895 24.1858ZM5.60106 24.0095L5.56968 24.4885L5.60106 24.0095ZM4.23098 15.8943C4.23098 15.3612 4.23135 14.9902 4.25493 14.7016C4.27806 14.4185 4.32109 14.2571 4.38307 14.1355L3.52771 13.6997C3.38528 13.9792 3.3261 14.281 3.29812 14.6234C3.2706 14.9602 3.27098 15.377 3.27098 15.8943H4.23098ZM4.23098 21.0284V15.8943H3.27098V21.0284H4.23098ZM4.38307 22.7872C4.32109 22.6655 4.27806 22.5041 4.25493 22.2211C4.23135 21.9324 4.23098 21.5615 4.23098 21.0284H3.27098C3.27098 21.5456 3.2706 21.9624 3.29812 22.2992C3.3261 22.6417 3.38528 22.9434 3.52771 23.223L4.38307 22.7872ZM4.99291 23.397C4.73034 23.2632 4.51686 23.0497 4.38307 22.7872L3.52771 23.223C3.75353 23.6662 4.11387 24.0265 4.55708 24.2524L4.99291 23.397ZM5.63243 23.5305C5.30349 23.509 5.12529 23.4644 4.99291 23.397L4.55708 24.2524C4.85982 24.4066 5.18968 24.4636 5.56968 24.4885L5.63243 23.5305ZM5.70141 24.6085L5.69147 27.0344L6.65146 27.0384L6.66141 24.6124L5.70141 24.6085ZM5.69147 27.0344C5.6889 27.6598 6.43413 27.9864 6.89222 27.5607L6.23873 26.8575C6.39619 26.7111 6.65234 26.8234 6.65146 27.0384L5.69147 27.0344ZM6.89222 27.5607L10.1457 24.5375L9.49221 23.8342L6.23873 26.8575L6.89222 27.5607ZM16.6916 23.5491H10.2179V24.5091H16.6916V23.5491ZM18.4504 23.397C18.3288 23.459 18.1674 23.502 17.8843 23.5251C17.5957 23.5487 17.2247 23.5491 16.6916 23.5491V24.5091C17.2089 24.5091 17.6257 24.5095 17.9625 24.4819C18.3049 24.454 18.6067 24.3948 18.8863 24.2524L18.4504 23.397ZM19.0603 22.7872C18.9265 23.0497 18.713 23.2632 18.4504 23.397L18.8863 24.2524C19.3295 24.0265 19.6898 23.6662 19.9156 23.223L19.0603 22.7872ZM19.2124 21.0284C19.2124 21.5615 19.212 21.9324 19.1884 22.2211C19.1653 22.5041 19.1223 22.6655 19.0603 22.7872L19.9156 23.223C20.0581 22.9434 20.1172 22.6417 20.1452 22.2992C20.1727 21.9624 20.1724 21.5456 20.1724 21.0284H19.2124ZM19.2124 15.8943V21.0284H20.1724V15.8943H19.2124ZM19.0603 14.1355C19.1223 14.2571 19.1653 14.4185 19.1884 14.7016C19.212 14.9902 19.2124 15.3612 19.2124 15.8943H20.1724C20.1724 15.377 20.1727 14.9602 20.1452 14.6234C20.1172 14.281 20.0581 13.9792 19.9156 13.6997L19.0603 14.1355ZM18.4504 13.5257C18.713 13.6594 18.9265 13.8729 19.0603 14.1355L19.9156 13.6997C19.6898 13.2564 19.3295 12.8961 18.8863 12.6703L18.4504 13.5257ZM16.6916 13.3736C17.2247 13.3736 17.5957 13.3739 17.8843 13.3975C18.1674 13.4206 18.3288 13.4637 18.4504 13.5257L18.8863 12.6703C18.6067 12.5279 18.3049 12.4687 17.9625 12.4407C17.6257 12.4132 17.2089 12.4136 16.6916 12.4136V13.3736ZM6.75171 13.3736H16.6916V12.4136H6.75171V13.3736ZM4.99291 13.5257C5.11456 13.4637 5.27595 13.4206 5.559 13.3975C5.84766 13.3739 6.21861 13.3736 6.75171 13.3736V12.4136C6.23445 12.4136 5.81764 12.4132 5.48082 12.4407C5.1384 12.4687 4.83661 12.5279 4.55708 12.6703L4.99291 13.5257ZM4.38307 14.1355C4.51686 13.8729 4.73034 13.6594 4.99291 13.5257L4.55708 12.6703C4.11387 12.8961 3.75353 13.2564 3.52771 13.6997L4.38307 14.1355ZM10.1457 24.5375C10.1653 24.5192 10.1911 24.5091 10.2179 24.5091V23.5491C9.94868 23.5491 9.68943 23.6509 9.49221 23.8342L10.1457 24.5375ZM5.56968 24.4885C5.65973 24.4944 5.70161 24.5606 5.70141 24.6085L6.66141 24.6124C6.66385 24.0154 6.18593 23.5668 5.63243 23.5305L5.56968 24.4885Z" fill="url(#paint11_linear_6466_1278)"/>
</g>
<defs>
<filter id="filter0_di_6466_1278" x="8.98039" y="1.3791" width="23.0636" height="21.6418" filterUnits="userSpaceOnUse" color-interpolation-filters="sRGB">
<feFlood flood-opacity="0" result="BackgroundImageFix"/>
<feColorMatrix in="SourceAlpha" type="matrix" values="0 0 0 0 0 0 0 0 0 0 0 0 0 0 0 0 0 0 127 0" result="hardAlpha"/>
<feOffset dy="0.72"/>
<feGaussianBlur stdDeviation="0.96"/>
<feComposite in2="hardAlpha" operator="out"/>
<feColorMatrix type="matrix" values="0 0 0 0 0 0 0 0 0 0 0 0 0 0 0 0 0 0 0.25 0"/>
<feBlend mode="normal" in2="BackgroundImageFix" result="effect1_dropShadow_6466_1278"/>
<feBlend mode="normal" in="SourceGraphic" in2="effect1_dropShadow_6466_1278" result="shape"/>
<feColorMatrix in="SourceAlpha" type="matrix" values="0 0 0 0 0 0 0 0 0 0 0 0 0 0 0 0 0 0 127 0" result="hardAlpha"/>
<feOffset dy="0.160586"/>
<feGaussianBlur stdDeviation="0.08"/>
<feComposite in2="hardAlpha" operator="arithmetic" k2="-1" k3="1"/>
<feColorMatrix type="matrix" values="0 0 0 0 1 0 0 0 0 1 0 0 0 0 1 0 0 0 0.15 0"/>
<feBlend mode="normal" in2="shape" result="effect2_innerShadow_6466_1278"/>
</filter>
<filter id="filter1_di_6466_1278" x="0.189375" y="10.0529" width="23.0636" height="21.6418" filterUnits="userSpaceOnUse" color-interpolation-filters="sRGB">
<feFlood flood-opacity="0" result="BackgroundImageFix"/>
<feColorMatrix in="SourceAlpha" type="matrix" values="0 0 0 0 0 0 0 0 0 0 0 0 0 0 0 0 0 0 127 0" result="hardAlpha"/>
<feOffset dy="0.72"/>
<feGaussianBlur stdDeviation="0.96"/>
<feComposite in2="hardAlpha" operator="out"/>
<feColorMatrix type="matrix" values="0 0 0 0 0 0 0 0 0 0 0 0 0 0 0 0 0 0 0.25 0"/>
<feBlend mode="normal" in2="BackgroundImageFix" result="effect1_dropShadow_6466_1278"/>
<feBlend mode="normal" in="SourceGraphic" in2="effect1_dropShadow_6466_1278" result="shape"/>
<feColorMatrix in="SourceAlpha" type="matrix" values="0 0 0 0 0 0 0 0 0 0 0 0 0 0 0 0 0 0 127 0" result="hardAlpha"/>
<feOffset dy="0.160586"/>
<feGaussianBlur stdDeviation="0.08"/>
<feComposite in2="hardAlpha" operator="arithmetic" k2="-1" k3="1"/>
<feColorMatrix type="matrix" values="0 0 0 0 1 0 0 0 0 1 0 0 0 0 1 0 0 0 0.15 0"/>
<feBlend mode="normal" in2="shape" result="effect2_innerShadow_6466_1278"/>
</filter>
<linearGradient id="paint0_linear_6466_1278" x1="24.7388" y1="4.589" x2="21.4206" y2="20.5008" gradientUnits="userSpaceOnUse">
<stop stop-color="white"/>
<stop offset="1" stop-color="#D7D7D7"/>
</linearGradient>
<linearGradient id="paint1_linear_6466_1278" x1="21.5102" y1="3.80716" x2="16.9972" y2="19.8801" gradientUnits="userSpaceOnUse">
<stop stop-color="#322D37"/>
<stop offset="1" stop-color="#18151B"/>
</linearGradient>
<linearGradient id="paint2_linear_6466_1278" x1="21.4655" y1="3.31142" x2="16.202" y2="20.5157" gradientUnits="userSpaceOnUse">
<stop stop-color="white"/>
<stop offset="1" stop-color="#D7D7D7"/>
</linearGradient>
<linearGradient id="paint3_linear_6466_1278" x1="23.9133" y1="5.90279" x2="19.0664" y2="18.7607" gradientUnits="userSpaceOnUse">
<stop stop-color="#FF00A0"/>
<stop offset="1" stop-color="#9600FF"/>
</linearGradient>
<linearGradient id="paint4_linear_6466_1278" x1="21.4978" y1="2.54874" x2="16.5961" y2="19.1352" gradientUnits="userSpaceOnUse">
<stop stop-color="#F3F3F3"/>
<stop offset="1" stop-color="#8F8F95"/>
</linearGradient>
<linearGradient id="paint5_linear_6466_1278" x1="21.4148" y1="4.21971" x2="16.7605" y2="19.0089" gradientUnits="userSpaceOnUse">
<stop stop-color="#4C4C4C"/>
<stop offset="1" stop-color="#1B1B1F"/>
</linearGradient>
<linearGradient id="paint6_linear_6466_1278" x1="7.49464" y1="13.2628" x2="10.8128" y2="29.1746" gradientUnits="userSpaceOnUse">
<stop stop-color="white"/>
<stop offset="1" stop-color="#D7D7D7"/>
</linearGradient>
<linearGradient id="paint7_linear_6466_1278" x1="10.7232" y1="12.481" x2="15.2362" y2="28.554" gradientUnits="userSpaceOnUse">
<stop stop-color="#322D37"/>
<stop offset="1" stop-color="#18151B"/>
</linearGradient>
<linearGradient id="paint8_linear_6466_1278" x1="10.7679" y1="11.9852" x2="16.0314" y2="29.1896" gradientUnits="userSpaceOnUse">
<stop stop-color="white"/>
<stop offset="1" stop-color="#D7D7D7"/>
</linearGradient>
<linearGradient id="paint9_linear_6466_1278" x1="8.32103" y1="14.5766" x2="13.168" y2="27.4345" gradientUnits="userSpaceOnUse">
<stop stop-color="#FF00A0"/>
<stop offset="1" stop-color="#9600FF"/>
</linearGradient>
<linearGradient id="paint10_linear_6466_1278" x1="10.7366" y1="11.2226" x2="15.6382" y2="27.809" gradientUnits="userSpaceOnUse">
<stop stop-color="#F3F3F3"/>
<stop offset="1" stop-color="#8F8F95"/>
</linearGradient>
<linearGradient id="paint11_linear_6466_1278" x1="10.8196" y1="12.8935" x2="15.4739" y2="27.6827" gradientUnits="userSpaceOnUse">
<stop stop-color="#4C4C4C"/>
<stop offset="1" stop-color="#1B1B1F"/>
</linearGradient>
<clipPath id="clip0_6466_1278">
<rect width="32" height="32" fill="white"/>
</clipPath>
</defs>
</svg>
