<svg width="32" height="32" viewBox="0 0 32 32" fill="none" xmlns="http://www.w3.org/2000/svg">
<g clip-path="url(#clip0_6466_1256)">
<g filter="url(#filter0_di_6466_1256)">
<path fill-rule="evenodd" clip-rule="evenodd" d="M5.63804 10.2094C5.53711 10.6315 5.53711 11.0797 5.53711 11.9762L5.53711 22.7956C5.53711 24.6774 5.53711 25.6183 5.90333 26.337C6.22546 26.9692 6.73948 27.4833 7.3717 27.8054C8.09044 28.1716 9.03133 28.1716 10.9131 28.1716L17.2374 28.1716C17.3389 28.1716 17.3897 28.1716 17.4351 28.1768C17.4805 28.182 17.5103 28.1877 17.5544 28.1998C17.5985 28.2118 17.6565 28.235 17.7726 28.2814C18.4334 28.5455 19.1545 28.6908 19.9096 28.6908C20.3983 28.6908 20.8727 28.63 21.3257 28.5155C21.6916 28.423 21.8746 28.3767 21.9993 28.3845C22.1259 28.3924 22.203 28.4136 22.3157 28.4717C22.4268 28.5289 22.5342 28.6363 22.749 28.8511L23.0878 29.1899C23.8833 29.9853 25.1729 29.9853 25.9684 29.1899C26.7638 28.3944 26.7638 27.1048 25.9684 26.3093L25.7405 26.0815C25.514 25.855 25.4008 25.7417 25.3426 25.625C25.2835 25.5064 25.2632 25.4258 25.259 25.2933C25.255 25.163 25.3123 24.9722 25.4269 24.5906C25.5848 24.065 25.6696 23.5078 25.6696 22.9308C25.6696 22.1084 25.4973 21.3262 25.1867 20.6184C25.1319 20.4937 25.1046 20.4314 25.0904 20.3838C25.0762 20.336 25.0694 20.3038 25.0633 20.2544C25.0571 20.2051 25.0571 20.1498 25.0571 20.0391L25.0571 8.2676C25.0571 6.38583 25.0571 5.44494 24.6909 4.72619C24.3688 4.09397 23.8547 3.57995 23.2225 3.25782C22.5038 2.8916 21.5629 2.8916 19.6811 2.8916L14.6032 2.8916C13.6995 2.8916 13.2477 2.8916 12.8227 2.99403C12.4458 3.08484 12.0857 3.23461 11.7557 3.4378C11.3834 3.66699 11.0648 3.98742 10.4277 4.62827L7.24958 7.82488C6.6175 8.46065 6.30146 8.77853 6.07549 9.14898C5.87514 9.47742 5.72753 9.83525 5.63804 10.2094Z" fill="url(#paint0_linear_6466_1256)"/>
<path fill-rule="evenodd" clip-rule="evenodd" d="M5.63804 10.2094C5.53711 10.6315 5.53711 11.0797 5.53711 11.9762L5.53711 22.7956C5.53711 24.6774 5.53711 25.6183 5.90333 26.337C6.22546 26.9692 6.73948 27.4833 7.3717 27.8054C8.09044 28.1716 9.03133 28.1716 10.9131 28.1716L17.2374 28.1716C17.3389 28.1716 17.3897 28.1716 17.4351 28.1768C17.4805 28.182 17.5103 28.1877 17.5544 28.1998C17.5985 28.2118 17.6565 28.235 17.7726 28.2814C18.4334 28.5455 19.1545 28.6908 19.9096 28.6908C20.3983 28.6908 20.8727 28.63 21.3257 28.5155C21.6916 28.423 21.8746 28.3767 21.9993 28.3845C22.1259 28.3924 22.203 28.4136 22.3157 28.4717C22.4268 28.5289 22.5342 28.6363 22.749 28.8511L23.0878 29.1899C23.8833 29.9853 25.1729 29.9853 25.9684 29.1899C26.7638 28.3944 26.7638 27.1048 25.9684 26.3093L25.7405 26.0815C25.514 25.855 25.4008 25.7417 25.3426 25.625C25.2835 25.5064 25.2632 25.4258 25.259 25.2933C25.255 25.163 25.3123 24.9722 25.4269 24.5906C25.5848 24.065 25.6696 23.5078 25.6696 22.9308C25.6696 22.1084 25.4973 21.3262 25.1867 20.6184C25.1319 20.4937 25.1046 20.4314 25.0904 20.3838C25.0762 20.336 25.0694 20.3038 25.0633 20.2544C25.0571 20.2051 25.0571 20.1498 25.0571 20.0391L25.0571 8.2676C25.0571 6.38583 25.0571 5.44494 24.6909 4.72619C24.3688 4.09397 23.8547 3.57995 23.2225 3.25782C22.5038 2.8916 21.5629 2.8916 19.6811 2.8916L14.6032 2.8916C13.6995 2.8916 13.2477 2.8916 12.8227 2.99403C12.4458 3.08484 12.0857 3.23461 11.7557 3.4378C11.3834 3.66699 11.0648 3.98742 10.4277 4.62827L7.24958 7.82488C6.6175 8.46065 6.30146 8.77853 6.07549 9.14898C5.87514 9.47742 5.72753 9.83525 5.63804 10.2094Z" fill="url(#paint1_linear_6466_1256)"/>
<path fill-rule="evenodd" clip-rule="evenodd" d="M5.63804 10.2094C5.53711 10.6315 5.53711 11.0797 5.53711 11.9762L5.53711 22.7956C5.53711 24.6774 5.53711 25.6183 5.90333 26.337C6.22546 26.9692 6.73948 27.4833 7.3717 27.8054C8.09044 28.1716 9.03133 28.1716 10.9131 28.1716L17.2374 28.1716C17.3389 28.1716 17.3897 28.1716 17.4351 28.1768C17.4805 28.182 17.5103 28.1877 17.5544 28.1998C17.5985 28.2118 17.6565 28.235 17.7726 28.2814C18.4334 28.5455 19.1545 28.6908 19.9096 28.6908C20.3983 28.6908 20.8727 28.63 21.3257 28.5155C21.6916 28.423 21.8746 28.3767 21.9993 28.3845C22.1259 28.3924 22.203 28.4136 22.3157 28.4717C22.4268 28.5289 22.5342 28.6363 22.749 28.8511L23.0878 29.1899C23.8833 29.9853 25.1729 29.9853 25.9684 29.1899C26.7638 28.3944 26.7638 27.1048 25.9684 26.3093L25.7405 26.0815C25.514 25.855 25.4008 25.7417 25.3426 25.625C25.2835 25.5064 25.2632 25.4258 25.259 25.2933C25.255 25.163 25.3123 24.9722 25.4269 24.5906C25.5848 24.065 25.6696 23.5078 25.6696 22.9308C25.6696 22.1084 25.4973 21.3262 25.1867 20.6184C25.1319 20.4937 25.1046 20.4314 25.0904 20.3838C25.0762 20.336 25.0694 20.3038 25.0633 20.2544C25.0571 20.2051 25.0571 20.1498 25.0571 20.0391L25.0571 8.2676C25.0571 6.38583 25.0571 5.44494 24.6909 4.72619C24.3688 4.09397 23.8547 3.57995 23.2225 3.25782C22.5038 2.8916 21.5629 2.8916 19.6811 2.8916L14.6032 2.8916C13.6995 2.8916 13.2477 2.8916 12.8227 2.99403C12.4458 3.08484 12.0857 3.23461 11.7557 3.4378C11.3834 3.66699 11.0648 3.98742 10.4277 4.62827L7.24958 7.82488C6.6175 8.46065 6.30146 8.77853 6.07549 9.14898C5.87514 9.47742 5.72753 9.83525 5.63804 10.2094Z" fill="url(#paint2_linear_6466_1256)"/>
</g>
<path d="M23.2009 23.0504C23.2009 24.6127 21.9176 25.8904 20.3209 25.8904C18.7241 25.8904 17.4409 24.6127 17.4409 23.0504C17.4409 21.4881 18.7241 20.2104 20.3209 20.2104C21.9176 20.2104 23.2009 21.4881 23.2009 23.0504Z" stroke="url(#paint3_linear_6466_1256)" stroke-opacity="0.3" stroke-width="1.12" stroke-miterlimit="10" stroke-linejoin="bevel"/>
<path fill-rule="evenodd" clip-rule="evenodd" d="M17.3428 23.0604C17.3428 21.4133 18.678 20.0782 20.325 20.0782C21.9721 20.0782 23.3072 21.4133 23.3072 23.0604C23.3072 24.7074 21.9721 26.0426 20.325 26.0426C18.678 26.0426 17.3428 24.7074 17.3428 23.0604ZM20.325 19.1182C18.1478 19.1182 16.3828 20.8832 16.3828 23.0604C16.3828 25.2376 18.1478 27.0026 20.325 27.0026C21.1904 27.0026 21.9907 26.7237 22.6409 26.251L24.4334 28.0434C24.6208 28.2309 24.9248 28.2309 25.1122 28.0434C25.2997 27.856 25.2997 27.552 25.1122 27.3646L23.3437 25.596C23.92 24.9106 24.2672 24.026 24.2672 23.0604C24.2672 20.8832 22.5022 19.1182 20.325 19.1182Z" fill="url(#paint4_linear_6466_1256)"/>
<path fill-rule="evenodd" clip-rule="evenodd" d="M17.3428 23.0604C17.3428 21.4133 18.678 20.0782 20.325 20.0782C21.9721 20.0782 23.3072 21.4133 23.3072 23.0604C23.3072 24.7074 21.9721 26.0426 20.325 26.0426C18.678 26.0426 17.3428 24.7074 17.3428 23.0604ZM20.325 19.1182C18.1478 19.1182 16.3828 20.8832 16.3828 23.0604C16.3828 25.2376 18.1478 27.0026 20.325 27.0026C21.1904 27.0026 21.9907 26.7237 22.6409 26.251L24.4334 28.0434C24.6208 28.2309 24.9248 28.2309 25.1122 28.0434C25.2997 27.856 25.2997 27.552 25.1122 27.3646L23.3437 25.596C23.92 24.9106 24.2672 24.026 24.2672 23.0604C24.2672 20.8832 22.5022 19.1182 20.325 19.1182Z" fill="url(#paint5_linear_6466_1256)"/>
<path fill-rule="evenodd" clip-rule="evenodd" d="M17.3428 23.0604C17.3428 21.4133 18.678 20.0782 20.325 20.0782C21.9721 20.0782 23.3072 21.4133 23.3072 23.0604C23.3072 24.7074 21.9721 26.0426 20.325 26.0426C18.678 26.0426 17.3428 24.7074 17.3428 23.0604ZM20.325 19.1182C18.1478 19.1182 16.3828 20.8832 16.3828 23.0604C16.3828 25.2376 18.1478 27.0026 20.325 27.0026C21.1904 27.0026 21.9907 26.7237 22.6409 26.251L24.4334 28.0434C24.6208 28.2309 24.9248 28.2309 25.1122 28.0434C25.2997 27.856 25.2997 27.552 25.1122 27.3646L23.3437 25.596C23.92 24.9106 24.2672 24.026 24.2672 23.0604C24.2672 20.8832 22.5022 19.1182 20.325 19.1182Z" fill="url(#paint6_linear_6466_1256)"/>
<path fill-rule="evenodd" clip-rule="evenodd" d="M21.9372 18.8232V6.57168C21.9372 6.30658 21.7223 6.09168 21.4572 6.09168L14.2113 6.09168C13.8718 6.09168 13.5463 6.22654 13.3062 6.46658L9.11209 10.6607C8.87204 10.9007 8.73719 11.2263 8.73719 11.5658L8.73719 24.4917C8.73719 24.7568 8.95209 24.9717 9.21719 24.9717H16.1916C16.3865 25.3826 16.642 25.7597 16.9467 26.0917H9.21719C8.33353 26.0917 7.61719 25.3753 7.61719 24.4917L7.61719 11.5658C7.61719 10.9293 7.87004 10.3188 8.32013 9.86874L12.5142 5.67462C12.9643 5.22454 13.5748 4.97168 14.2113 4.97168L21.4572 4.97168C22.3408 4.97168 23.0572 5.68802 23.0572 6.57168V19.435C22.7175 19.1821 22.3411 18.975 21.9372 18.8232Z" fill="url(#paint7_linear_6466_1256)" fill-opacity="0.3"/>
<path fill-rule="evenodd" clip-rule="evenodd" d="M14.2108 5.45121C14.0355 5.45121 13.8627 5.47519 13.6967 5.52132V9.77121C13.6967 10.4781 13.1236 11.0512 12.4167 11.0512H8.25671C8.22678 11.0512 8.19748 11.0485 8.16906 11.0432C8.12147 11.2116 8.09672 11.3872 8.09672 11.5653L8.09672 24.4912C8.09672 25.1098 8.59816 25.6112 9.21672 25.6112H16.5619C16.8131 25.9728 17.116 26.2963 17.4601 26.5712H9.21672C8.06797 26.5712 7.13672 25.64 7.13672 24.4912L7.13672 11.5653C7.13672 10.8015 7.44015 10.069 7.98025 9.52886L12.1744 5.33474C12.7145 4.79464 13.447 4.49121 14.2108 4.49121L21.3767 4.49121C22.5255 4.49121 23.4567 5.42246 23.4567 6.57121L23.4567 19.7697C23.1696 19.4999 22.847 19.2667 22.4967 19.0777V6.57121C22.4967 5.95265 21.9953 5.45121 21.3767 5.45121L14.2108 5.45121ZM8.77554 10.0912L12.7367 6.13004V9.77121C12.7367 9.94794 12.5934 10.0912 12.4167 10.0912H8.77554Z" fill="url(#paint8_linear_6466_1256)"/>
<path fill-rule="evenodd" clip-rule="evenodd" d="M14.2108 5.45121C14.0355 5.45121 13.8627 5.47519 13.6967 5.52132V9.77121C13.6967 10.4781 13.1236 11.0512 12.4167 11.0512H8.25671C8.22678 11.0512 8.19748 11.0485 8.16906 11.0432C8.12147 11.2116 8.09672 11.3872 8.09672 11.5653L8.09672 24.4912C8.09672 25.1098 8.59816 25.6112 9.21672 25.6112H16.5619C16.8131 25.9728 17.116 26.2963 17.4601 26.5712H9.21672C8.06797 26.5712 7.13672 25.64 7.13672 24.4912L7.13672 11.5653C7.13672 10.8015 7.44015 10.069 7.98025 9.52886L12.1744 5.33474C12.7145 4.79464 13.447 4.49121 14.2108 4.49121L21.3767 4.49121C22.5255 4.49121 23.4567 5.42246 23.4567 6.57121L23.4567 19.7697C23.1696 19.4999 22.847 19.2667 22.4967 19.0777V6.57121C22.4967 5.95265 21.9953 5.45121 21.3767 5.45121L14.2108 5.45121ZM8.77554 10.0912L12.7367 6.13004V9.77121C12.7367 9.94794 12.5934 10.0912 12.4167 10.0912H8.77554Z" fill="url(#paint9_linear_6466_1256)"/>
<path fill-rule="evenodd" clip-rule="evenodd" d="M14.2108 5.45121C14.0355 5.45121 13.8627 5.47519 13.6967 5.52132V9.77121C13.6967 10.4781 13.1236 11.0512 12.4167 11.0512H8.25671C8.22678 11.0512 8.19748 11.0485 8.16906 11.0432C8.12147 11.2116 8.09672 11.3872 8.09672 11.5653L8.09672 24.4912C8.09672 25.1098 8.59816 25.6112 9.21672 25.6112H16.5619C16.8131 25.9728 17.116 26.2963 17.4601 26.5712H9.21672C8.06797 26.5712 7.13672 25.64 7.13672 24.4912L7.13672 11.5653C7.13672 10.8015 7.44015 10.069 7.98025 9.52886L12.1744 5.33474C12.7145 4.79464 13.447 4.49121 14.2108 4.49121L21.3767 4.49121C22.5255 4.49121 23.4567 5.42246 23.4567 6.57121L23.4567 19.7697C23.1696 19.4999 22.847 19.2667 22.4967 19.0777V6.57121C22.4967 5.95265 21.9953 5.45121 21.3767 5.45121L14.2108 5.45121ZM8.77554 10.0912L12.7367 6.13004V9.77121C12.7367 9.94794 12.5934 10.0912 12.4167 10.0912H8.77554Z" fill="url(#paint10_linear_6466_1256)"/>
<rect x="10.9014" y="12.6592" width="5.12" height="0.96" rx="0.48" fill="url(#paint11_linear_6466_1256)" fill-opacity="0.4"/>
<rect x="10.9014" y="17.459" width="5.12" height="0.96" rx="0.48" fill="url(#paint12_linear_6466_1256)" fill-opacity="0.4"/>
<rect x="10.9014" y="14.2598" width="3.28" height="0.96" rx="0.48" fill="url(#paint13_linear_6466_1256)" fill-opacity="0.4"/>
<rect x="10.9014" y="15.8594" width="7.76" height="0.96" rx="0.48" fill="url(#paint14_linear_6466_1256)" fill-opacity="0.4"/>
</g>
<defs>
<filter id="filter0_di_6466_1256" x="3.61711" y="1.6916" width="24.8683" height="30.7345" filterUnits="userSpaceOnUse" color-interpolation-filters="sRGB">
<feFlood flood-opacity="0" result="BackgroundImageFix"/>
<feColorMatrix in="SourceAlpha" type="matrix" values="0 0 0 0 0 0 0 0 0 0 0 0 0 0 0 0 0 0 127 0" result="hardAlpha"/>
<feOffset dy="0.72"/>
<feGaussianBlur stdDeviation="0.96"/>
<feComposite in2="hardAlpha" operator="out"/>
<feColorMatrix type="matrix" values="0 0 0 0 0 0 0 0 0 0 0 0 0 0 0 0 0 0 0.25 0"/>
<feBlend mode="normal" in2="BackgroundImageFix" result="effect1_dropShadow_6466_1256"/>
<feBlend mode="normal" in="SourceGraphic" in2="effect1_dropShadow_6466_1256" result="shape"/>
<feColorMatrix in="SourceAlpha" type="matrix" values="0 0 0 0 0 0 0 0 0 0 0 0 0 0 0 0 0 0 127 0" result="hardAlpha"/>
<feOffset dy="0.160586"/>
<feGaussianBlur stdDeviation="0.08"/>
<feComposite in2="hardAlpha" operator="arithmetic" k2="-1" k3="1"/>
<feColorMatrix type="matrix" values="0 0 0 0 1 0 0 0 0 1 0 0 0 0 1 0 0 0 0.15 0"/>
<feBlend mode="normal" in2="shape" result="effect2_innerShadow_6466_1256"/>
</filter>
<linearGradient id="paint0_linear_6466_1256" x1="15.6132" y1="4.04184" x2="26.0385" y2="29.2887" gradientUnits="userSpaceOnUse">
<stop stop-color="white"/>
<stop offset="1" stop-color="#D7D7D7"/>
</linearGradient>
<linearGradient id="paint1_linear_6466_1256" x1="14.9608" y1="2.97723" x2="26.6345" y2="28.5163" gradientUnits="userSpaceOnUse">
<stop stop-color="#322D37"/>
<stop offset="1" stop-color="#18151B"/>
</linearGradient>
<linearGradient id="paint2_linear_6466_1256" x1="15.0084" y1="3.99799" x2="25.1999" y2="28.1167" gradientUnits="userSpaceOnUse">
<stop stop-color="white"/>
<stop offset="1" stop-color="#D7D7D7"/>
</linearGradient>
<linearGradient id="paint3_linear_6466_1256" x1="18.5464" y1="20.4463" x2="21.2877" y2="26.0503" gradientUnits="userSpaceOnUse">
<stop stop-color="#FF00A0"/>
<stop offset="1" stop-color="#9600FF"/>
</linearGradient>
<linearGradient id="paint4_linear_6466_1256" x1="16.93" y1="7.67124" x2="21.5381" y2="27.0491" gradientUnits="userSpaceOnUse">
<stop stop-color="#4C4C4C"/>
<stop offset="1" stop-color="#1B1B1F"/>
</linearGradient>
<linearGradient id="paint5_linear_6466_1256" x1="20.3579" y1="19.1182" x2="23.5079" y2="28.0529" gradientUnits="userSpaceOnUse">
<stop stop-color="#F3F3F3"/>
<stop offset="1" stop-color="#8F8F95"/>
</linearGradient>
<linearGradient id="paint6_linear_6466_1256" x1="20.3159" y1="19.1182" x2="23.5582" y2="28.2101" gradientUnits="userSpaceOnUse">
<stop stop-color="#4C4C4C"/>
<stop offset="1" stop-color="#1B1B1F"/>
</linearGradient>
<linearGradient id="paint7_linear_6466_1256" x1="11.355" y1="7.44383" x2="21.3683" y2="22.2348" gradientUnits="userSpaceOnUse">
<stop stop-color="#FF00A0"/>
<stop offset="1" stop-color="#9600FF"/>
</linearGradient>
<linearGradient id="paint8_linear_6466_1256" x1="14.4505" y1="4.49119" x2="23.8262" y2="24.5811" gradientUnits="userSpaceOnUse">
<stop stop-color="#4C4C4C"/>
<stop offset="1" stop-color="#1B1B1F"/>
</linearGradient>
<linearGradient id="paint9_linear_6466_1256" x1="14.4505" y1="4.49119" x2="23.8262" y2="24.5811" gradientUnits="userSpaceOnUse">
<stop stop-color="#F3F3F3"/>
<stop offset="1" stop-color="#8F8F95"/>
</linearGradient>
<linearGradient id="paint10_linear_6466_1256" x1="14.3732" y1="4.49119" x2="24.0085" y2="24.9024" gradientUnits="userSpaceOnUse">
<stop stop-color="#4C4C4C"/>
<stop offset="1" stop-color="#1B1B1F"/>
</linearGradient>
<linearGradient id="paint11_linear_6466_1256" x1="12.1408" y1="12.7716" x2="12.231" y2="13.7436" gradientUnits="userSpaceOnUse">
<stop stop-color="#FF00A0"/>
<stop offset="1" stop-color="#9600FF"/>
</linearGradient>
<linearGradient id="paint12_linear_6466_1256" x1="12.1408" y1="17.5714" x2="12.231" y2="18.5434" gradientUnits="userSpaceOnUse">
<stop stop-color="#FF00A0"/>
<stop offset="1" stop-color="#9600FF"/>
</linearGradient>
<linearGradient id="paint13_linear_6466_1256" x1="11.6954" y1="14.3721" x2="11.8345" y2="15.3324" gradientUnits="userSpaceOnUse">
<stop stop-color="#FF00A0"/>
<stop offset="1" stop-color="#9600FF"/>
</linearGradient>
<linearGradient id="paint14_linear_6466_1256" x1="12.7799" y1="15.9717" x2="12.8397" y2="16.9485" gradientUnits="userSpaceOnUse">
<stop stop-color="#FF00A0"/>
<stop offset="1" stop-color="#9600FF"/>
</linearGradient>
<clipPath id="clip0_6466_1256">
<rect width="32" height="32" fill="white"/>
</clipPath>
</defs>
</svg>
