<svg width="638" height="66" viewBox="0 0 638 66" fill="none" xmlns="http://www.w3.org/2000/svg">
<path d="M248.612 15.1235C234.747 15.1235 223.502 26.5131 223.502 40.5563C223.502 54.5994 234.747 65.989 248.612 65.989C253.074 65.989 257.273 64.8015 260.91 62.7296V65.4922H273.722V40.5563C273.722 26.5131 262.477 15.1235 248.612 15.1235ZM248.612 53.0121C241.817 53.0121 236.314 47.4385 236.314 40.5563C236.314 33.674 241.817 28.1004 248.612 28.1004C255.407 28.1004 260.91 33.674 260.91 40.5563C260.91 47.4385 255.407 53.0121 248.612 53.0121ZM32.515 27.4824C27.1198 26.61 20.7316 25.5923 16.4728 22.0906C13.7692 19.8853 14.9057 16.3958 17.7529 14.4813C23.2917 10.81 32.5031 12.8698 34.3573 19.5824H48.8323C48.8323 7.61123 36.3431 -0.143389 24.6913 0.00200992C18.1476 0.00200992 12.0586 1.61352 7.36911 5.55141C1.69872 10.2284 -1.13647 19.1341 2.40453 25.7255C8.23044 35.5157 22.2868 35.3703 31.7972 39.2961C34.3573 40.6168 35.9244 42.0829 35.9244 44.8455C35.9244 50.8432 30.6727 53.3271 24.7033 53.3271C19.0329 53.4725 14.7741 49.0863 14.1999 43.6823H0C0.430663 64.8743 27.8256 72.4835 43.2935 59.8943C47.6959 56.0897 50.1124 50.6857 50.1124 44.8576C50.244 35.3582 41.4513 28.9364 32.515 27.4824ZM192.674 15.1235C178.809 15.1235 167.564 26.5131 167.564 40.5563C167.564 54.5994 178.809 65.989 192.674 65.989C203.715 65.989 213.094 58.7675 216.456 48.7471H201.945C199.696 51.3521 196.382 53 192.686 53C187.506 53 183.067 49.7527 181.261 45.1606H217.377C217.652 43.6702 217.784 42.1193 217.784 40.5563C217.784 26.5131 206.539 15.1235 192.674 15.1235ZM181.261 35.9398C183.067 31.3476 187.506 28.1004 192.686 28.1004C197.865 28.1004 202.304 31.3476 204.11 35.9398H181.261ZM140.743 32.8501C140.037 35.2976 139.606 37.8906 139.606 40.4957V65.4801H152.419V40.4957C152.766 31.9171 158.747 27.6278 164.704 27.6278V15.1356H164.657C153.699 15.1356 144.021 22.3329 140.743 32.8501ZM112.786 32.8501C112.08 35.2976 111.649 37.8906 111.649 40.4957V65.4801H124.461V40.4957C124.808 31.9171 130.79 27.6278 136.747 27.6278V15.1356H136.699C125.741 15.1356 116.064 22.3329 112.786 32.8501ZM93.1188 40.6289C92.413 57.786 69.2051 57.786 68.6428 40.6289V15.6445H55.8306V40.6168C55.8306 43.2098 56.2613 45.8027 56.9671 48.2624C60.2449 58.7917 69.9228 65.989 80.8808 65.989C91.8388 65.989 101.517 58.7917 104.795 48.2745C105.5 45.827 105.931 43.234 105.931 40.6289V15.6445H93.1188V40.6289ZM279.44 65.5043H292.252V0.486674H279.44V65.5043ZM345.127 18.5655C346.946 16.7228 349.068 15.2729 351.494 14.2195C353.923 13.1661 356.522 12.6411 359.293 12.6411C362.935 12.6411 366.225 13.5052 369.172 15.23C372.12 16.9548 374.486 19.2546 376.277 22.1185H391.353C390.196 18.901 388.582 15.9335 386.501 13.2124C384.421 10.4912 381.981 8.15224 379.182 6.19165C376.379 4.23119 373.287 2.70983 369.909 1.62781C366.528 0.545924 362.992 0.00322158 359.293 0.00322158C354.614 0.00322158 350.211 0.867377 346.079 2.5923C341.95 4.32073 338.34 6.67401 335.248 9.65579C332.159 12.6412 329.733 16.1372 327.97 20.144C326.208 24.1544 325.33 28.4395 325.33 33.0034C325.33 37.5672 326.208 41.8525 327.97 45.8592C329.733 49.8659 332.159 53.362 335.248 56.3474C338.34 59.3292 341.95 61.6861 346.079 63.4109C350.211 65.1357 354.614 66 359.293 66C362.992 66 366.514 65.4608 369.867 64.3788C373.216 63.2968 376.277 61.7897 379.051 59.8579C381.823 57.9259 384.248 55.6155 386.329 52.9229C388.409 50.2339 390.024 47.2771 391.18 44.0595H376.104C374.313 46.87 371.958 49.1233 369.042 50.8195C366.126 52.5157 362.875 53.362 359.293 53.362C356.522 53.362 353.923 52.8228 351.494 51.7408C349.069 50.6588 346.946 49.1947 345.127 47.352C343.307 45.5093 341.862 43.3595 340.794 40.899C339.725 38.4421 339.193 35.8103 339.193 33.0034C339.193 30.1964 339.725 27.5468 340.794 25.0613C341.862 22.5723 343.308 20.4081 345.127 18.5655ZM397.071 65.5105H409.883V0.492853H397.071V65.5105ZM566.188 18.3828C562.551 16.3108 558.352 15.1234 553.89 15.1234C540.025 15.1234 528.78 26.513 528.78 40.5561C528.78 54.5993 540.025 65.9889 553.89 65.9889C558.358 65.9889 562.553 64.8047 566.188 62.7317V65.5042H579V0.486674H566.188V18.3828ZM553.89 53.0121C547.095 53.0121 541.592 47.4385 541.592 40.5563C541.592 33.674 547.095 28.1004 553.89 28.1004C560.685 28.1004 566.188 33.674 566.188 40.5563C566.188 47.4385 560.685 53.0121 553.89 53.0121ZM459.659 23.1722C457.321 20.8903 454.593 19.0905 451.472 17.7763C448.352 16.4586 445.003 15.8016 441.42 15.8016C437.838 15.8016 434.489 16.4586 431.369 17.7763C428.252 19.0905 425.519 20.8903 423.182 23.1722C420.841 25.4541 418.993 28.1181 417.636 31.1607C416.278 34.2033 415.602 37.4493 415.602 40.8989C415.602 44.3485 416.278 47.6018 417.636 50.6408C418.993 53.6869 420.841 56.3473 423.182 58.6292C425.519 60.9112 428.252 62.711 431.369 64.0251C434.489 65.3428 437.838 65.9999 441.42 65.9999C445.003 65.9999 448.352 65.3428 451.472 64.0251C454.593 62.711 457.322 60.9112 459.659 58.6292C462 56.3473 463.848 53.6869 465.205 50.6408C466.563 47.6018 467.243 44.3521 467.243 40.8989C467.243 37.4457 466.563 34.2032 465.205 31.1607C463.848 28.1182 462 25.4541 459.659 23.1722ZM453.249 46.034C452.583 47.6446 451.673 49.0337 450.52 50.2051C449.364 51.3727 448.006 52.3084 446.448 53.0119C444.886 53.7154 443.211 54.0653 441.42 54.0653C439.629 54.0653 437.955 53.7154 436.396 53.0119C434.834 52.3084 433.477 51.3727 432.324 50.2051C431.167 49.0337 430.258 47.6446 429.595 46.034C428.929 44.427 428.597 42.7165 428.597 40.8989C428.597 39.0813 428.929 37.3778 429.595 35.7673C430.258 34.1567 431.167 32.7676 432.324 31.5963C433.477 30.4286 434.834 29.493 436.396 28.7895C437.955 28.086 439.629 27.736 441.42 27.736C443.212 27.736 444.886 28.086 446.448 28.7895C448.006 29.493 449.364 30.4286 450.52 31.5963C451.673 32.7676 452.583 34.1567 453.249 35.7673C453.912 37.3778 454.244 39.0883 454.244 40.8989C454.244 42.7095 453.912 44.4271 453.249 46.034ZM510.25 40.6289C509.544 57.786 486.336 57.786 485.774 40.6289V15.6445H472.961V40.6168C472.961 43.2098 473.392 45.8027 474.098 48.2624C477.376 58.7917 487.054 65.989 498.012 65.989C508.97 65.989 518.647 58.7917 521.925 48.2745C522.631 45.827 523.062 43.234 523.062 40.6289V15.6445H510.25V40.6289Z" fill="url(#paint0_linear_4917_178)"/>
<path opacity="0.5" d="M611.612 4.06909C606.313 4.02917 603.369 10.9207 607.294 15.0996C610.338 18.4506 615.976 17.214 617.398 12.6163H614.005C612.584 14.7207 609.577 14.1921 608.742 11.7088H617.599C618.36 7.71952 615.206 3.95932 611.612 4.06909ZM608.733 9.37484C609.778 6.44262 613.446 6.44262 614.482 9.37484H608.733ZM631.949 4.06909C628.593 4.06909 625.897 6.9614 625.897 10.5318C625.897 14.1023 628.593 16.9946 631.949 16.9946C633.021 16.9946 634.021 16.6953 634.892 16.1667V16.9946H638V10.5318C638 6.9614 635.304 4.06909 631.949 4.06909ZM631.912 13.8829C630.152 13.8829 628.767 12.3769 628.767 10.5019C628.767 8.6568 630.188 7.12091 631.912 7.12091C633.672 7.12091 635.057 8.62686 635.057 10.5019C635.057 12.3769 633.636 13.8829 631.912 13.8829ZM598.052 4.06909C596.988 4.06909 595.989 4.35834 595.117 4.87695V0H592V16.9946H595.117V16.1767C595.979 16.6953 596.979 16.9946 598.052 16.9946C601.407 16.9946 604.103 14.1023 604.103 10.5318C604.103 6.9614 601.407 4.06909 598.052 4.06909ZM598.079 13.8729C596.355 13.8829 594.934 12.3769 594.934 10.4919C594.934 8.61688 596.319 7.11093 598.079 7.11093C599.803 7.11093 601.224 8.64682 601.224 10.4919C601.224 12.3669 599.84 13.8729 598.079 13.8729ZM622.22 2.02457H619.103V10.3622C619.103 11.0403 619.204 11.7186 619.378 12.3568C620.176 15.1094 622.532 16.9944 625.2 16.9944V13.7631C623.743 13.7631 622.294 12.6361 622.22 10.3722V7.43993H625.2V4.04897H622.22V2.02457Z" fill="url(#paint1_linear_4917_178)"/>
<defs>
<linearGradient id="paint0_linear_4917_178" x1="0" y1="32.9998" x2="621.906" y2="32.9998" gradientUnits="userSpaceOnUse">
<stop stop-color="white"/>
<stop offset="1" stop-color="#929294"/>
</linearGradient>
<linearGradient id="paint1_linear_4917_178" x1="-131.28" y1="43.1857" x2="638" y2="43.1857" gradientUnits="userSpaceOnUse">
<stop stop-color="white"/>
<stop offset="1" stop-color="#929294"/>
</linearGradient>
</defs>
</svg>
