<svg width="32" height="32" viewBox="0 0 32 32" fill="none" xmlns="http://www.w3.org/2000/svg">
<g clip-path="url(#clip0_6425_1453)">
<g filter="url(#filter0_di_6425_1453)">
<path fill-rule="evenodd" clip-rule="evenodd" d="M5.63804 10.2089C5.53711 10.631 5.53711 11.0792 5.53711 11.9757L5.53711 22.7951C5.53711 24.6769 5.53711 25.6178 5.90333 26.3365C6.22546 26.9687 6.73948 27.4828 7.3717 27.8049C8.09044 28.1711 9.03133 28.1711 10.9131 28.1711L17.2374 28.1711C17.3389 28.1711 17.3897 28.1711 17.4351 28.1763C17.4805 28.1815 17.5103 28.1873 17.5544 28.1993C17.5985 28.2113 17.6565 28.2345 17.7726 28.2809C18.4334 28.5451 19.1545 28.6904 19.9096 28.6904C20.3983 28.6904 20.8727 28.6295 21.3257 28.515C21.6916 28.4225 21.8746 28.3762 21.9993 28.384C22.1259 28.3919 22.203 28.4132 22.3157 28.4712C22.4268 28.5284 22.5342 28.6358 22.749 28.8506L23.0878 29.1894C23.8833 29.9848 25.1729 29.9848 25.9684 29.1894C26.7638 28.394 26.7638 27.1043 25.9684 26.3089L25.7405 26.081C25.514 25.8545 25.4008 25.7412 25.3426 25.6245C25.2835 25.5059 25.2632 25.4253 25.259 25.2928C25.255 25.1625 25.3123 24.9717 25.4269 24.5901C25.5848 24.0645 25.6696 23.5074 25.6696 22.9304C25.6696 22.1079 25.4973 21.3257 25.1867 20.6179C25.1319 20.4932 25.1046 20.4309 25.0904 20.3833C25.0762 20.3355 25.0694 20.3033 25.0633 20.2539C25.0571 20.2046 25.0571 20.1493 25.0571 20.0386L25.0571 8.26711C25.0571 6.38534 25.0571 5.44445 24.6909 4.72571C24.3688 4.09348 23.8547 3.57947 23.2225 3.25733C22.5038 2.89111 21.5629 2.89111 19.6811 2.89111L14.6032 2.89111C13.6995 2.89111 13.2477 2.89111 12.8227 2.99354C12.4458 3.08435 12.0857 3.23412 11.7557 3.43731C11.3834 3.6665 11.0648 3.98693 10.4277 4.62778L7.24958 7.8244C6.6175 8.46016 6.30146 8.77804 6.07549 9.14849C5.87514 9.47693 5.72753 9.83476 5.63804 10.2089Z" fill="url(#paint0_linear_6425_1453)"/>
<path fill-rule="evenodd" clip-rule="evenodd" d="M5.63804 10.2089C5.53711 10.631 5.53711 11.0792 5.53711 11.9757L5.53711 22.7951C5.53711 24.6769 5.53711 25.6178 5.90333 26.3365C6.22546 26.9687 6.73948 27.4828 7.3717 27.8049C8.09044 28.1711 9.03133 28.1711 10.9131 28.1711L17.2374 28.1711C17.3389 28.1711 17.3897 28.1711 17.4351 28.1763C17.4805 28.1815 17.5103 28.1873 17.5544 28.1993C17.5985 28.2113 17.6565 28.2345 17.7726 28.2809C18.4334 28.5451 19.1545 28.6904 19.9096 28.6904C20.3983 28.6904 20.8727 28.6295 21.3257 28.515C21.6916 28.4225 21.8746 28.3762 21.9993 28.384C22.1259 28.3919 22.203 28.4132 22.3157 28.4712C22.4268 28.5284 22.5342 28.6358 22.749 28.8506L23.0878 29.1894C23.8833 29.9848 25.1729 29.9848 25.9684 29.1894C26.7638 28.394 26.7638 27.1043 25.9684 26.3089L25.7405 26.081C25.514 25.8545 25.4008 25.7412 25.3426 25.6245C25.2835 25.5059 25.2632 25.4253 25.259 25.2928C25.255 25.1625 25.3123 24.9717 25.4269 24.5901C25.5848 24.0645 25.6696 23.5074 25.6696 22.9304C25.6696 22.1079 25.4973 21.3257 25.1867 20.6179C25.1319 20.4932 25.1046 20.4309 25.0904 20.3833C25.0762 20.3355 25.0694 20.3033 25.0633 20.2539C25.0571 20.2046 25.0571 20.1493 25.0571 20.0386L25.0571 8.26711C25.0571 6.38534 25.0571 5.44445 24.6909 4.72571C24.3688 4.09348 23.8547 3.57947 23.2225 3.25733C22.5038 2.89111 21.5629 2.89111 19.6811 2.89111L14.6032 2.89111C13.6995 2.89111 13.2477 2.89111 12.8227 2.99354C12.4458 3.08435 12.0857 3.23412 11.7557 3.43731C11.3834 3.6665 11.0648 3.98693 10.4277 4.62778L7.24958 7.8244C6.6175 8.46016 6.30146 8.77804 6.07549 9.14849C5.87514 9.47693 5.72753 9.83476 5.63804 10.2089Z" fill="url(#paint1_linear_6425_1453)"/>
</g>
<path d="M23.2009 23.0503C23.2009 24.6126 21.9176 25.8903 20.3209 25.8903C18.7241 25.8903 17.4409 24.6126 17.4409 23.0503C17.4409 21.4879 18.7241 20.2103 20.3209 20.2103C21.9176 20.2103 23.2009 21.4879 23.2009 23.0503Z" stroke="url(#paint2_linear_6425_1453)" stroke-opacity="0.3" stroke-width="1.12" stroke-miterlimit="10" stroke-linejoin="bevel"/>
<path fill-rule="evenodd" clip-rule="evenodd" d="M17.3428 23.0594C17.3428 21.4124 18.678 20.0772 20.325 20.0772C21.9721 20.0772 23.3072 21.4124 23.3072 23.0594C23.3072 24.7064 21.9721 26.0416 20.325 26.0416C18.678 26.0416 17.3428 24.7064 17.3428 23.0594ZM20.325 19.1172C18.1478 19.1172 16.3828 20.8822 16.3828 23.0594C16.3828 25.2366 18.1478 27.0016 20.325 27.0016C21.1904 27.0016 21.9907 26.7227 22.6409 26.25L24.4334 28.0424C24.6208 28.2299 24.9248 28.2299 25.1122 28.0424C25.2997 27.855 25.2997 27.5511 25.1122 27.3636L23.3437 25.5951C23.92 24.9096 24.2672 24.0251 24.2672 23.0594C24.2672 20.8822 22.5022 19.1172 20.325 19.1172Z" fill="url(#paint3_linear_6425_1453)"/>
<path fill-rule="evenodd" clip-rule="evenodd" d="M17.3428 23.0594C17.3428 21.4124 18.678 20.0772 20.325 20.0772C21.9721 20.0772 23.3072 21.4124 23.3072 23.0594C23.3072 24.7064 21.9721 26.0416 20.325 26.0416C18.678 26.0416 17.3428 24.7064 17.3428 23.0594ZM20.325 19.1172C18.1478 19.1172 16.3828 20.8822 16.3828 23.0594C16.3828 25.2366 18.1478 27.0016 20.325 27.0016C21.1904 27.0016 21.9907 26.7227 22.6409 26.25L24.4334 28.0424C24.6208 28.2299 24.9248 28.2299 25.1122 28.0424C25.2997 27.855 25.2997 27.5511 25.1122 27.3636L23.3437 25.5951C23.92 24.9096 24.2672 24.0251 24.2672 23.0594C24.2672 20.8822 22.5022 19.1172 20.325 19.1172Z" fill="url(#paint4_linear_6425_1453)"/>
<path fill-rule="evenodd" clip-rule="evenodd" d="M21.9372 18.8226V6.57107C21.9372 6.30597 21.7223 6.09107 21.4572 6.09107L14.2113 6.09107C13.8718 6.09107 13.5463 6.22593 13.3062 6.46597L9.11209 10.6601C8.87204 10.9001 8.73719 11.2257 8.73719 11.5652L8.73719 24.4911C8.73719 24.7562 8.95209 24.9711 9.21719 24.9711H16.1916C16.3865 25.382 16.642 25.7591 16.9467 26.0911H9.21719C8.33353 26.0911 7.61719 25.3747 7.61719 24.4911L7.61719 11.5652C7.61719 10.9287 7.87004 10.3182 8.32013 9.86813L12.5142 5.67401C12.9643 5.22393 13.5748 4.97107 14.2113 4.97107L21.4572 4.97107C22.3408 4.97107 23.0572 5.68741 23.0572 6.57107V19.4344C22.7175 19.1814 22.3411 18.9744 21.9372 18.8226Z" fill="url(#paint5_linear_6425_1453)" fill-opacity="0.3"/>
<path fill-rule="evenodd" clip-rule="evenodd" d="M14.2108 5.45109C14.0355 5.45109 13.8627 5.47506 13.6967 5.5212V9.77109C13.6967 10.478 13.1236 11.0511 12.4167 11.0511H8.25671C8.22678 11.0511 8.19748 11.0483 8.16906 11.0431C8.12147 11.2115 8.09672 11.3871 8.09672 11.5652L8.09672 24.4911C8.09672 25.1096 8.59816 25.6111 9.21672 25.6111H16.5619C16.8131 25.9726 17.116 26.2961 17.4601 26.5711H9.21672C8.06797 26.5711 7.13672 25.6398 7.13672 24.4911L7.13672 11.5652C7.13672 10.8014 7.44015 10.0688 7.98025 9.52873L12.1744 5.33462C12.7145 4.79452 13.447 4.49109 14.2108 4.49109L21.3767 4.49109C22.5255 4.49109 23.4567 5.42234 23.4567 6.57109L23.4567 19.7696C23.1696 19.4998 22.847 19.2666 22.4967 19.0776V6.57109C22.4967 5.95253 21.9953 5.45109 21.3767 5.45109L14.2108 5.45109ZM8.77554 10.0911L12.7367 6.12992V9.77109C12.7367 9.94782 12.5934 10.0911 12.4167 10.0911H8.77554Z" fill="url(#paint6_linear_6425_1453)"/>
<path fill-rule="evenodd" clip-rule="evenodd" d="M14.2108 5.45109C14.0355 5.45109 13.8627 5.47506 13.6967 5.5212V9.77109C13.6967 10.478 13.1236 11.0511 12.4167 11.0511H8.25671C8.22678 11.0511 8.19748 11.0483 8.16906 11.0431C8.12147 11.2115 8.09672 11.3871 8.09672 11.5652L8.09672 24.4911C8.09672 25.1096 8.59816 25.6111 9.21672 25.6111H16.5619C16.8131 25.9726 17.116 26.2961 17.4601 26.5711H9.21672C8.06797 26.5711 7.13672 25.6398 7.13672 24.4911L7.13672 11.5652C7.13672 10.8014 7.44015 10.0688 7.98025 9.52873L12.1744 5.33462C12.7145 4.79452 13.447 4.49109 14.2108 4.49109L21.3767 4.49109C22.5255 4.49109 23.4567 5.42234 23.4567 6.57109L23.4567 19.7696C23.1696 19.4998 22.847 19.2666 22.4967 19.0776V6.57109C22.4967 5.95253 21.9953 5.45109 21.3767 5.45109L14.2108 5.45109ZM8.77554 10.0911L12.7367 6.12992V9.77109C12.7367 9.94782 12.5934 10.0911 12.4167 10.0911H8.77554Z" fill="url(#paint7_linear_6425_1453)"/>
<rect x="10.9014" y="12.6593" width="5.12" height="0.96" rx="0.48" fill="url(#paint8_linear_6425_1453)" fill-opacity="0.4"/>
<rect x="10.9014" y="17.4594" width="5.12" height="0.96" rx="0.48" fill="url(#paint9_linear_6425_1453)" fill-opacity="0.4"/>
<rect x="10.9014" y="14.2594" width="3.28" height="0.96" rx="0.48" fill="url(#paint10_linear_6425_1453)" fill-opacity="0.4"/>
<rect x="10.9014" y="15.8594" width="7.76" height="0.96" rx="0.48" fill="url(#paint11_linear_6425_1453)" fill-opacity="0.4"/>
</g>
<defs>
<filter id="filter0_di_6425_1453" x="3.61711" y="1.69111" width="24.8683" height="30.7349" filterUnits="userSpaceOnUse" color-interpolation-filters="sRGB">
<feFlood flood-opacity="0" result="BackgroundImageFix"/>
<feColorMatrix in="SourceAlpha" type="matrix" values="0 0 0 0 0 0 0 0 0 0 0 0 0 0 0 0 0 0 127 0" result="hardAlpha"/>
<feOffset dy="0.72"/>
<feGaussianBlur stdDeviation="0.96"/>
<feComposite in2="hardAlpha" operator="out"/>
<feColorMatrix type="matrix" values="0 0 0 0 0 0 0 0 0 0 0 0 0 0 0 0 0 0 0.25 0"/>
<feBlend mode="normal" in2="BackgroundImageFix" result="effect1_dropShadow_6425_1453"/>
<feBlend mode="normal" in="SourceGraphic" in2="effect1_dropShadow_6425_1453" result="shape"/>
<feColorMatrix in="SourceAlpha" type="matrix" values="0 0 0 0 0 0 0 0 0 0 0 0 0 0 0 0 0 0 127 0" result="hardAlpha"/>
<feOffset dy="0.160586"/>
<feGaussianBlur stdDeviation="0.08"/>
<feComposite in2="hardAlpha" operator="arithmetic" k2="-1" k3="1"/>
<feColorMatrix type="matrix" values="0 0 0 0 1 0 0 0 0 1 0 0 0 0 1 0 0 0 0.15 0"/>
<feBlend mode="normal" in2="shape" result="effect2_innerShadow_6425_1453"/>
</filter>
<linearGradient id="paint0_linear_6425_1453" x1="15.6132" y1="4.04135" x2="26.0385" y2="29.2882" gradientUnits="userSpaceOnUse">
<stop stop-color="white"/>
<stop offset="1" stop-color="#D7D7D7"/>
</linearGradient>
<linearGradient id="paint1_linear_6425_1453" x1="14.9608" y1="2.97674" x2="26.6345" y2="28.5158" gradientUnits="userSpaceOnUse">
<stop stop-color="#322D37"/>
<stop offset="1" stop-color="#18151B"/>
</linearGradient>
<linearGradient id="paint2_linear_6425_1453" x1="18.5464" y1="20.4462" x2="21.2877" y2="26.0501" gradientUnits="userSpaceOnUse">
<stop stop-color="#FF00A0"/>
<stop offset="1" stop-color="#9600FF"/>
</linearGradient>
<linearGradient id="paint3_linear_6425_1453" x1="16.93" y1="7.67027" x2="21.5381" y2="27.0482" gradientUnits="userSpaceOnUse">
<stop stop-color="#4C4C4C"/>
<stop offset="1" stop-color="#1B1B1F"/>
</linearGradient>
<linearGradient id="paint4_linear_6425_1453" x1="20.3579" y1="19.1172" x2="23.5079" y2="28.0519" gradientUnits="userSpaceOnUse">
<stop stop-color="#F3F3F3"/>
<stop offset="1" stop-color="#8F8F95"/>
</linearGradient>
<linearGradient id="paint5_linear_6425_1453" x1="11.355" y1="7.44322" x2="21.3683" y2="22.2341" gradientUnits="userSpaceOnUse">
<stop stop-color="#FF00A0"/>
<stop offset="1" stop-color="#9600FF"/>
</linearGradient>
<linearGradient id="paint6_linear_6425_1453" x1="14.4505" y1="4.49107" x2="23.8262" y2="24.581" gradientUnits="userSpaceOnUse">
<stop stop-color="#4C4C4C"/>
<stop offset="1" stop-color="#1B1B1F"/>
</linearGradient>
<linearGradient id="paint7_linear_6425_1453" x1="14.4505" y1="4.49107" x2="23.8262" y2="24.581" gradientUnits="userSpaceOnUse">
<stop stop-color="#F3F3F3"/>
<stop offset="1" stop-color="#8F8F95"/>
</linearGradient>
<linearGradient id="paint8_linear_6425_1453" x1="12.1408" y1="12.7717" x2="12.231" y2="13.7438" gradientUnits="userSpaceOnUse">
<stop stop-color="#FF00A0"/>
<stop offset="1" stop-color="#9600FF"/>
</linearGradient>
<linearGradient id="paint9_linear_6425_1453" x1="12.1408" y1="17.5717" x2="12.231" y2="18.5438" gradientUnits="userSpaceOnUse">
<stop stop-color="#FF00A0"/>
<stop offset="1" stop-color="#9600FF"/>
</linearGradient>
<linearGradient id="paint10_linear_6425_1453" x1="11.6954" y1="14.3718" x2="11.8345" y2="15.3321" gradientUnits="userSpaceOnUse">
<stop stop-color="#FF00A0"/>
<stop offset="1" stop-color="#9600FF"/>
</linearGradient>
<linearGradient id="paint11_linear_6425_1453" x1="12.7799" y1="15.9717" x2="12.8397" y2="16.9485" gradientUnits="userSpaceOnUse">
<stop stop-color="#FF00A0"/>
<stop offset="1" stop-color="#9600FF"/>
</linearGradient>
<clipPath id="clip0_6425_1453">
<rect width="32" height="32" fill="white"/>
</clipPath>
</defs>
</svg>
