<svg width="32" height="32" viewBox="0 0 32 32" fill="none" xmlns="http://www.w3.org/2000/svg">
<path d="M27.3499 21.4677L27.3172 21.5238L27.2549 21.6144C25.9688 23.334 24.0295 24.3307 21.24 24.3985C20.8361 23.9179 20.4477 23.4451 20.0211 22.9257L19.9443 22.8322L19.7304 22.5719L19.4001 22.6379C19.3411 22.6497 19.2854 22.6614 19.2328 22.6725L19.2316 22.6728C19.1795 22.6837 19.1303 22.6941 19.079 22.7044C17.3092 23.0255 15.6995 22.9407 14.3335 22.6837C14.2611 22.6673 14.1897 22.6533 14.1288 22.6414C14.1221 22.6401 14.1155 22.6388 14.1091 22.6375C14.0368 22.6233 13.9797 22.6118 13.928 22.5989L13.5807 22.512L13.3553 22.7902C12.8885 23.3663 12.4669 23.8793 12.0196 24.408C9.15321 24.3206 7.17141 23.301 5.89674 21.4498L5.82792 21.3319C5.88207 17.077 6.85126 13.8796 8.48938 10.689C10.3412 9.3447 11.8813 8.80946 13.6649 8.69602H13.8592H14.1265L14.6322 9.29452L14.8215 9.51841L15.1133 9.49126C16.0509 9.40404 17.081 9.38284 18.1387 9.49078L18.4278 9.52027L18.6189 9.30143L19.1496 8.69373C21.1396 8.6982 22.7695 9.25081 24.7682 10.6901C26.406 13.8803 27.375 17.0774 27.4291 21.3319L27.3499 21.4677Z" fill="#FF7171" stroke="#FF7171" stroke-width="1.12347"/>
<path d="M24.3635 11.4886C24.2239 11.2044 24.0149 10.962 23.7522 10.7854C21.6644 9.38239 19.7352 9.25983 19.324 9.25008C19.2718 9.24885 19.224 9.27183 19.1895 9.31114C19.1002 9.41312 19.1464 9.57347 19.2756 9.61455C19.4574 9.67238 19.633 9.73167 19.8022 9.79198C20.3994 10.0048 20.1741 10.45 19.5549 10.314C19.0575 10.2047 18.5682 10.1247 18.0891 10.0693C16.8288 9.92949 15.6207 9.96513 14.553 10.1036C14.4484 10.1036 14.3603 10.1214 14.2558 10.1379C13.6435 10.2078 12.1547 10.4176 10.282 11.2361C10.1165 11.3076 10.0129 11.1419 10.1651 11.0451C10.8787 10.591 12.0207 9.9918 13.6314 9.51526C13.7263 9.48716 13.7632 9.37065 13.6998 9.29454C13.6745 9.26415 13.6374 9.24625 13.5979 9.24697C13.2307 9.25361 11.2871 9.35797 9.15558 10.7815C8.89012 10.9588 8.6788 11.2032 8.53819 11.4898C7.95142 12.6857 6.38768 16.251 6.24812 20.5321C6.23511 20.931 6.34273 21.327 6.60599 21.627C7.21598 22.3221 8.62395 23.5412 11.1198 23.7497C11.4071 23.7737 11.6851 23.6477 11.8694 23.426C11.9632 23.3131 12.0737 23.1797 12.1916 23.036C12.4612 22.7074 12.3048 22.212 11.9159 22.0405C10.9681 21.6227 10.3617 21.0926 10.0243 20.729C9.94031 20.6385 10.0209 20.515 10.1286 20.5754C10.1454 20.5848 10.1867 20.6022 10.2033 20.6121C10.2109 20.6166 10.2197 20.6223 10.2305 20.6282C10.2408 20.6338 10.2511 20.6394 10.2612 20.6455C10.3085 20.6739 10.3558 20.6916 10.4031 20.7238C10.8407 20.9679 11.2782 21.1598 11.6814 21.3175C12.3996 21.6137 13.2568 21.8755 14.2544 22.0675C15.567 22.3115 17.1081 22.3993 18.7881 22.0853C19.6109 21.929 20.4516 21.7014 21.3267 21.3353C21.8297 21.1495 22.1043 21.5099 21.6349 21.769C21.4656 21.8624 21.2824 21.9534 21.0844 22.0395C20.6644 22.2221 20.4945 22.7598 20.7869 23.1123C20.8815 23.2264 20.9696 23.3322 21.046 23.4238C21.2231 23.6361 21.4895 23.7571 21.7651 23.7348C24.2668 23.5322 25.6795 22.3225 26.2933 21.6298C26.5595 21.3293 26.6684 20.931 26.6553 20.5297C26.5148 16.2457 24.9486 12.68 24.3635 11.4886ZM13.1866 19.5228C12.207 19.5228 11.4007 18.6686 11.4007 17.6047C11.4007 16.5407 12.1877 15.6866 13.1866 15.6866C14.1856 15.6866 14.9891 16.5407 14.9726 17.6047C14.9726 18.6686 14.1856 19.5228 13.1866 19.5228ZM19.5752 19.5228C18.5955 19.5228 17.7892 18.6686 17.7892 17.6047C17.7892 16.5407 18.5762 15.6866 19.5752 15.6866C20.5741 15.6866 21.3611 16.5407 21.3611 17.6047C21.3611 18.6686 20.5741 19.5228 19.5752 19.5228Z" fill="#FF7171"/>
<path d="M24.3635 11.4886C24.2239 11.2044 24.0149 10.962 23.7522 10.7854C21.6644 9.38239 19.7352 9.25983 19.324 9.25008C19.2718 9.24885 19.224 9.27183 19.1895 9.31114C19.1002 9.41312 19.1464 9.57347 19.2756 9.61455C19.4574 9.67238 19.633 9.73167 19.8022 9.79198C20.3994 10.0048 20.1741 10.45 19.5549 10.314C19.0575 10.2047 18.5682 10.1247 18.0891 10.0693C16.8288 9.92949 15.6207 9.96513 14.553 10.1036C14.4484 10.1036 14.3603 10.1214 14.2558 10.1379C13.6435 10.2078 12.1547 10.4176 10.282 11.2361C10.1165 11.3076 10.0129 11.1419 10.1651 11.0451C10.8787 10.591 12.0207 9.9918 13.6314 9.51526C13.7263 9.48716 13.7632 9.37065 13.6998 9.29454C13.6745 9.26415 13.6374 9.24625 13.5979 9.24697C13.2307 9.25361 11.2871 9.35797 9.15558 10.7815C8.89012 10.9588 8.6788 11.2032 8.53819 11.4898C7.95142 12.6857 6.38768 16.251 6.24812 20.5321C6.23511 20.931 6.34273 21.327 6.60599 21.627C7.21598 22.3221 8.62395 23.5412 11.1198 23.7497C11.4071 23.7737 11.6851 23.6477 11.8694 23.426C11.9632 23.3131 12.0737 23.1797 12.1916 23.036C12.4612 22.7074 12.3048 22.212 11.9159 22.0405C10.9681 21.6227 10.3617 21.0926 10.0243 20.729C9.94031 20.6385 10.0209 20.515 10.1286 20.5754C10.1454 20.5848 10.1867 20.6022 10.2033 20.6121C10.2109 20.6166 10.2197 20.6223 10.2305 20.6282C10.2408 20.6338 10.2511 20.6394 10.2612 20.6455C10.3085 20.6739 10.3558 20.6916 10.4031 20.7238C10.8407 20.9679 11.2782 21.1598 11.6814 21.3175C12.3996 21.6137 13.2568 21.8755 14.2544 22.0675C15.567 22.3115 17.1081 22.3993 18.7881 22.0853C19.6109 21.929 20.4516 21.7014 21.3267 21.3353C21.8297 21.1495 22.1043 21.5099 21.6349 21.769C21.4656 21.8624 21.2824 21.9534 21.0844 22.0395C20.6644 22.2221 20.4945 22.7598 20.7869 23.1123C20.8815 23.2264 20.9696 23.3322 21.046 23.4238C21.2231 23.6361 21.4895 23.7571 21.7651 23.7348C24.2668 23.5322 25.6795 22.3225 26.2933 21.6298C26.5595 21.3293 26.6684 20.931 26.6553 20.5297C26.5148 16.2457 24.9486 12.68 24.3635 11.4886ZM13.1866 19.5228C12.207 19.5228 11.4007 18.6686 11.4007 17.6047C11.4007 16.5407 12.1877 15.6866 13.1866 15.6866C14.1856 15.6866 14.9891 16.5407 14.9726 17.6047C14.9726 18.6686 14.1856 19.5228 13.1866 19.5228ZM19.5752 19.5228C18.5955 19.5228 17.7892 18.6686 17.7892 17.6047C17.7892 16.5407 18.5762 15.6866 19.5752 15.6866C20.5741 15.6866 21.3611 16.5407 21.3611 17.6047C21.3611 18.6686 20.5741 19.5228 19.5752 19.5228Z" fill="url(#paint0_linear_6425_1432)"/>
<g filter="url(#filter0_di_6425_1432)">
<path fill-rule="evenodd" clip-rule="evenodd" d="M18.9036 24.3462C17.1029 24.643 15.4533 24.5559 14.0435 24.3124C14.0071 24.3624 13.9688 24.4121 13.9284 24.4613C13.8069 24.6094 13.6933 24.7466 13.597 24.8624C12.9779 25.6072 12.0026 26.0782 10.9326 25.9888C7.71501 25.72 5.80511 24.1211 4.91697 23.1091C4.19435 22.2856 3.97514 21.2886 4.00219 20.4589C4.15671 15.7189 5.8729 11.8205 6.52079 10.5C6.83158 9.86659 7.30457 9.3156 7.90748 8.91294C10.5204 7.16791 12.9371 7.01161 13.557 7.00039C14.2716 6.98747 14.9127 7.29367 15.3503 7.76986C16.0522 7.72426 16.7922 7.71932 17.556 7.768C17.9898 7.3066 18.6337 6.98616 19.377 7.00377C20.0376 7.01942 22.4381 7.19527 25.0053 8.92043C25.6032 9.32226 26.0716 9.86989 26.3801 10.4981C27.0264 11.8141 28.7453 15.713 28.9008 20.4561C28.9282 21.2905 28.7064 22.2943 27.9748 23.1199C27.0797 24.1301 25.1646 25.7138 21.9462 25.9744C20.8904 26.0599 19.9305 25.5946 19.3203 24.8629C19.2428 24.77 19.1535 24.6627 19.0574 24.5469C19.0025 24.4808 18.9513 24.4138 18.9036 24.3462Z" fill="#FF7171"/>
<path fill-rule="evenodd" clip-rule="evenodd" d="M18.9036 24.3462C17.1029 24.643 15.4533 24.5559 14.0435 24.3124C14.0071 24.3624 13.9688 24.4121 13.9284 24.4613C13.8069 24.6094 13.6933 24.7466 13.597 24.8624C12.9779 25.6072 12.0026 26.0782 10.9326 25.9888C7.71501 25.72 5.80511 24.1211 4.91697 23.1091C4.19435 22.2856 3.97514 21.2886 4.00219 20.4589C4.15671 15.7189 5.8729 11.8205 6.52079 10.5C6.83158 9.86659 7.30457 9.3156 7.90748 8.91294C10.5204 7.16791 12.9371 7.01161 13.557 7.00039C14.2716 6.98747 14.9127 7.29367 15.3503 7.76986C16.0522 7.72426 16.7922 7.71932 17.556 7.768C17.9898 7.3066 18.6337 6.98616 19.377 7.00377C20.0376 7.01942 22.4381 7.19527 25.0053 8.92043C25.6032 9.32226 26.0716 9.86989 26.3801 10.4981C27.0264 11.8141 28.7453 15.713 28.9008 20.4561C28.9282 21.2905 28.7064 22.2943 27.9748 23.1199C27.0797 24.1301 25.1646 25.7138 21.9462 25.9744C20.8904 26.0599 19.9305 25.5946 19.3203 24.8629C19.2428 24.77 19.1535 24.6627 19.0574 24.5469C19.0025 24.4808 18.9513 24.4138 18.9036 24.3462Z" fill="url(#paint1_linear_6425_1432)"/>
</g>
<path d="M24.1448 11.0634C21.642 9.19737 19.2437 9.24947 19.2437 9.24947L18.9988 9.52917C21.975 10.419 23.3578 11.727 23.3578 11.727C21.5374 10.7508 19.7514 10.2613 18.0893 10.0694C16.8289 9.92952 15.6208 9.96516 14.5531 10.1036C14.4485 10.1036 14.3605 10.1215 14.2559 10.1379C13.6436 10.2078 12.1548 10.4176 10.2822 11.2361C9.63411 11.5158 9.24885 11.7242 9.24885 11.7242C9.24885 11.7242 10.684 10.3463 13.8349 9.4565L13.6601 9.24673C13.6601 9.24673 11.2797 9.19462 8.75901 11.0606C8.75901 11.0606 6.23828 15.5783 6.23828 21.142C6.23828 21.142 7.70917 23.6538 11.5769 23.7758C11.5769 23.7758 12.225 23.0081 12.7493 22.3458C10.5257 21.6836 9.6864 20.3057 9.6864 20.3057C9.6864 20.3057 9.86114 20.4277 10.1762 20.6018C10.1941 20.6018 10.2106 20.6197 10.2464 20.6361C10.2987 20.6704 10.351 20.6882 10.4033 20.7239C10.8408 20.9679 11.2784 21.1599 11.6815 21.3175C12.3998 21.6137 13.257 21.8756 14.2545 22.0675C15.5672 22.3116 17.1082 22.3993 18.7883 22.0853C19.6111 21.929 20.4518 21.7014 21.3269 21.3354C21.9392 21.1091 22.6217 20.7773 23.3399 20.3057C23.3399 20.3057 22.4648 21.7179 20.1711 22.3636C20.6967 23.0094 21.3269 23.7594 21.3269 23.7594C25.1947 23.6374 26.6656 21.1434 26.6656 21.1434C26.6656 15.5796 24.1448 11.0634 24.1448 11.0634ZM13.1868 19.5228C12.2071 19.5228 11.4008 18.6686 11.4008 17.6047C11.4008 16.5408 12.1879 15.6866 13.1868 15.6866C14.1857 15.6866 14.9893 16.5408 14.9728 17.6047C14.9728 18.6686 14.1857 19.5228 13.1868 19.5228ZM19.5753 19.5228C18.5956 19.5228 17.7893 18.6686 17.7893 17.6047C17.7893 16.5408 18.5764 15.6866 19.5753 15.6866C20.5742 15.6866 21.3613 16.5408 21.3613 17.6047C21.3613 18.6686 20.5742 19.5228 19.5753 19.5228Z" stroke="url(#paint2_linear_6425_1432)" stroke-opacity="0.5" stroke-width="1.25848" stroke-miterlimit="10" stroke-linejoin="bevel"/>
<path d="M24.1448 11.0634L24.6473 10.7829L24.5873 10.6756L24.4888 10.6021C23.1638 9.6142 21.8637 9.13216 20.8907 8.89732C20.4042 8.7799 19.9984 8.72399 19.7102 8.69749C19.5661 8.68423 19.4511 8.6783 19.3698 8.67574C19.3291 8.67446 19.2969 8.67402 19.2736 8.67393L19.2455 8.67398L19.2366 8.67409L19.2335 8.67414L19.2322 8.67417L19.2317 8.67418C19.2315 8.67418 19.2313 8.67419 19.2383 9.00038C19.2383 9.00038 19.2383 9.00037 19.2383 9.00037L19.2312 8.67419L18.9778 8.67969L18.8108 8.87039L18.5659 9.15009L18.2515 9.50916C18.2194 9.50525 18.1873 9.50144 18.1553 9.49774L18.1528 9.49746C16.9023 9.35871 15.7026 9.38617 14.6317 9.514L14.277 9.08821L14.1022 8.87844L13.9346 8.67718L13.6727 8.67145L13.6676 8.90582C13.6676 8.90583 13.6676 8.90583 13.6675 8.90584C13.6726 8.67144 13.6724 8.67144 13.6722 8.67144L13.6717 8.67143L13.6705 8.6714L13.6673 8.67135L13.6585 8.67124L13.6304 8.67119C13.6072 8.67128 13.5751 8.67172 13.5347 8.67301C13.4538 8.67557 13.3394 8.6815 13.1958 8.69477C12.9089 8.72129 12.5048 8.77723 12.0195 8.89465C11.0488 9.12952 9.74965 9.61137 8.41665 10.5982L8.31696 10.6719L8.25652 10.7803L8.75901 11.0606C8.25652 10.7803 8.25644 10.7804 8.25635 10.7806L8.25612 10.781L8.25549 10.7821L8.25354 10.7856L8.24698 10.7976L8.22354 10.8409C8.20349 10.8783 8.1748 10.9326 8.13869 11.003C8.06649 11.1438 7.96461 11.349 7.84297 11.6117C7.5998 12.137 7.2771 12.8936 6.95475 13.8271C6.31118 15.6907 5.66287 18.2768 5.66287 21.142V21.2981L5.74174 21.4328L6.23828 21.142C5.74174 21.4328 5.7419 21.4331 5.74208 21.4334L5.74245 21.434L5.7433 21.4355L5.74542 21.439L5.75137 21.4489C5.7561 21.4566 5.76236 21.4667 5.77018 21.479C5.78582 21.5036 5.80772 21.537 5.83613 21.578C5.89291 21.6599 5.97586 21.7724 6.08696 21.9053C6.30898 22.1711 6.64479 22.5205 7.11029 22.8723C8.04621 23.5795 9.49376 24.2858 11.5588 24.351L11.8371 24.3598L12.0167 24.147L11.5769 23.7758L12.0167 24.147L12.0167 24.1469L12.0168 24.1468L12.0172 24.1463L12.0187 24.1446L12.0244 24.1378L12.0462 24.1119L12.1275 24.015C12.197 23.932 12.2951 23.8145 12.4097 23.6762C12.6383 23.4001 12.9345 23.0389 13.2004 22.703L13.3867 22.4677C13.6308 22.527 13.8839 22.5822 14.1458 22.6326L14.1494 22.6332C15.5174 22.8876 17.1312 22.9804 18.894 22.651L18.8957 22.6506C19.1119 22.6096 19.3298 22.5636 19.5497 22.5117L19.7248 22.7269C19.9895 23.0521 20.28 23.4029 20.5038 23.6718C20.6159 23.8064 20.7114 23.9207 20.779 24.0014L20.8579 24.0957L20.879 24.1208L20.8844 24.1273L20.8859 24.129L20.8862 24.1294L20.8863 24.1295L20.8863 24.1296L21.3269 23.7594L20.8864 24.1296L21.066 24.3433L21.345 24.3345C23.409 24.2694 24.8561 23.5682 25.792 22.8659C26.2575 22.5166 26.5934 22.1695 26.8156 21.9055C26.9268 21.7733 27.0098 21.6616 27.0666 21.5802C27.0951 21.5395 27.117 21.5062 27.1327 21.4818C27.1405 21.4695 27.1468 21.4595 27.1515 21.4518L27.1575 21.4419L27.1596 21.4384L27.1605 21.4369L27.1609 21.4363C27.161 21.436 27.1612 21.4357 26.6656 21.1434L27.1612 21.4357L27.241 21.3005V21.1434C27.241 18.2781 26.5927 15.6924 25.9491 13.8291C25.6267 12.8958 25.304 12.1393 25.0608 11.6142C24.9392 11.3515 24.8373 11.1464 24.7651 11.0057C24.729 10.9353 24.7003 10.881 24.6803 10.8436L24.6568 10.8003L24.6503 10.7883L24.6483 10.7848L24.6477 10.7837L24.6474 10.7833C24.6474 10.7831 24.6473 10.7829 24.1448 11.0634ZM14.3974 17.5958L14.3974 17.5958V17.6047C14.3974 18.392 13.8283 18.9474 13.1868 18.9474C12.5607 18.9474 11.9762 18.3878 11.9762 17.6047C11.9762 16.8174 12.5453 16.262 13.1868 16.262C13.8361 16.262 14.4094 16.8239 14.3974 17.5958ZM19.5753 18.9474C18.9492 18.9474 18.3648 18.3878 18.3648 17.6047C18.3648 16.8174 18.9338 16.262 19.5753 16.262C20.2168 16.262 20.7859 16.8174 20.7859 17.6047C20.7859 18.392 20.2168 18.9474 19.5753 18.9474Z" stroke="url(#paint3_linear_6425_1432)" stroke-width="1.15083"/>
<path fill-rule="evenodd" clip-rule="evenodd" d="M25.1492 10.5026L24.1443 11.0634C24.118 11.0439 24.0918 11.0245 24.0656 11.0053C24.0605 11.0016 24.0554 10.9979 24.0504 10.9943C23.9777 10.9414 23.905 10.8901 23.8327 10.8404C21.4461 9.20166 19.2432 9.24952 19.2432 9.24952L18.9983 9.52922C19.0838 9.55479 19.168 9.58071 19.2509 9.60693C19.479 9.67906 19.6971 9.75348 19.9054 9.82936C21.7435 10.4989 22.8174 11.2815 23.1985 11.5911C23.3048 11.6775 23.3573 11.727 23.3573 11.727C23.2881 11.69 23.2191 11.6536 23.1501 11.6179C21.8232 10.9321 20.5165 10.5018 19.2647 10.2535C19.1112 10.223 18.9585 10.1953 18.8066 10.1701C18.565 10.1302 18.3256 10.0968 18.0888 10.0694C17.7423 10.031 17.3998 10.0058 17.063 9.99236C16.6248 9.97488 16.1964 9.97731 15.7818 9.99631C15.356 10.0158 14.9448 10.0528 14.5526 10.1037C14.4653 10.1037 14.3896 10.1161 14.3061 10.1298C14.2896 10.1325 14.2727 10.1352 14.2554 10.138C14.1912 10.1453 14.1173 10.1542 14.0344 10.1651C13.9194 10.1803 13.7869 10.1995 13.6384 10.2241C12.8736 10.3511 11.6855 10.6226 10.2816 11.2362C10.0111 11.3529 9.78641 11.4573 9.61638 11.5392C9.39108 11.6478 9.26182 11.717 9.24932 11.7237C9.2588 11.7147 9.35038 11.6282 9.52823 11.4901C9.68304 11.3699 9.90308 11.2104 10.1909 11.0285C10.8337 10.6224 11.815 10.1041 13.1613 9.66189C13.3203 9.60963 13.4845 9.55843 13.6539 9.50859C13.7134 9.49107 13.7735 9.47372 13.8343 9.45655L13.6596 9.24678C13.6596 9.24678 11.9491 9.20934 9.89254 10.3346L9.88854 10.3368C9.55042 10.522 9.20298 10.7387 8.85228 10.9921C8.82103 11.0147 8.78977 11.0375 8.75848 11.0607C8.75848 11.0607 8.73979 11.0942 8.70565 11.1589C8.69793 11.1736 8.68936 11.1899 8.6801 11.2077C8.25426 12.0264 6.23775 16.1658 6.23775 21.1421L5.24466 21.7236L5.08691 21.4543V21.1421C5.08691 18.1934 5.75337 15.5417 6.41031 13.6393C6.73993 12.6848 7.07025 11.9101 7.32027 11.37C7.44538 11.0998 7.55068 10.8877 7.62615 10.7405C7.66389 10.6669 7.69421 10.6095 7.71584 10.5691L7.74164 10.5215L7.74937 10.5074L7.75189 10.5028L7.75281 10.5012C7.75281 10.5012 7.75347 10.5 8.45448 10.8911L7.7535 10.4999L7.87437 10.2833L8.07375 10.1357C9.47939 9.09517 10.8524 8.58494 11.8837 8.33542C12.3992 8.21069 12.8311 8.15062 13.1423 8.12185C13.2981 8.10745 13.4241 8.10084 13.5159 8.09793C13.5618 8.09647 13.5992 8.09594 13.6275 8.09583L13.6631 8.0959L13.6757 8.09605L13.6807 8.09614L13.6829 8.09618C13.6829 8.09618 13.6847 8.09622 13.6679 8.86712L13.6848 8.09622L14.2085 8.10768L14.8756 8.90852C15.8466 8.8121 16.9098 8.79653 18.0154 8.9047L18.7113 8.10997L19.2182 8.09896L19.2323 8.74658C19.2183 8.09908 19.2182 8.09896 19.2182 8.09896L19.2201 8.09892L19.2222 8.09888L19.2272 8.09879L19.2398 8.09864L19.2754 8.09857C19.3038 8.09868 19.3413 8.09921 19.3874 8.10066C19.4795 8.10356 19.606 8.11016 19.7624 8.12454C20.0748 8.15327 20.5084 8.21328 21.0252 8.33801C22.0587 8.58747 23.4336 9.09807 24.8322 10.1408L25.0293 10.2878L25.1492 10.5026ZM11.5764 23.7759C7.70863 23.6539 6.23775 21.1421 6.23775 21.1421C5.24466 21.7236 5.24532 21.7248 5.24532 21.7248L5.24601 21.7259L5.24751 21.7285L5.25095 21.7343L5.25959 21.7486C5.26615 21.7593 5.27431 21.7725 5.28409 21.7879C5.30365 21.8186 5.32976 21.8584 5.36268 21.9059C5.42847 22.0008 5.52181 22.1271 5.64484 22.2743C5.89055 22.5684 6.25745 22.9495 6.76285 23.3314C7.7835 24.1026 9.34394 24.8569 11.5401 24.9262L12.0967 24.9437L12.4558 24.5182L11.5764 23.7759ZM11.9722 23.3017C11.7414 23.5805 11.5764 23.7759 11.5764 23.7759L12.4558 24.5182L12.486 24.4823L12.5682 24.3845C12.6382 24.3009 12.7369 24.1826 12.8523 24.0433C13.0709 23.7794 13.3523 23.4363 13.6113 23.1102C13.7506 23.1407 13.8923 23.1699 14.0365 23.1977L14.0436 23.199C15.467 23.4636 17.1537 23.5615 18.9992 23.2166L19.0025 23.216C19.1103 23.1955 19.2186 23.1739 19.3275 23.1509C19.5803 23.4608 19.8504 23.7869 20.061 24.04C20.1735 24.175 20.2693 24.2898 20.3372 24.3708L20.4447 24.4992L20.8045 24.9273L21.3626 24.9097C23.5568 24.8405 25.1162 24.0921 26.1368 23.3262C26.6423 22.9469 27.0094 22.5683 27.2554 22.276C27.3785 22.1296 27.472 22.0041 27.5379 21.9096C27.5709 21.8624 27.5971 21.8228 27.6167 21.7922C27.6265 21.7768 27.6347 21.7637 27.6413 21.753L27.65 21.7387L27.6534 21.7329L27.6549 21.7304L27.6556 21.7292C27.6556 21.7292 27.6563 21.7281 26.665 21.1435L27.6563 21.7281L27.8159 21.4575V21.1435C27.8159 18.1948 27.1494 15.5434 26.4924 13.6413C26.1628 12.687 25.8325 11.9124 25.5825 11.3725C25.4573 11.1023 25.352 10.8902 25.2766 10.7431C25.2388 10.6695 25.2085 10.6121 25.1869 10.5717L25.1611 10.5241L25.1533 10.51L25.1508 10.5054L25.1499 10.5038C25.1499 10.5038 25.1492 10.5026 24.1443 11.0634C24.1443 11.0634 26.665 15.5797 26.665 21.1435C26.665 21.1435 25.1941 23.6374 21.3264 23.7594C21.3264 23.7594 21.1758 23.5803 20.9605 23.3217C20.8411 23.1783 20.7017 23.0104 20.5571 22.8351C20.429 22.6798 20.2968 22.5188 20.1706 22.3637C20.5979 22.2434 20.976 22.0965 21.3084 21.937C21.3779 21.9037 21.4455 21.8697 21.5111 21.8354C21.5178 21.8319 21.5245 21.8284 21.5311 21.8249C22.8196 21.1446 23.3394 20.3057 23.3394 20.3057C22.6211 20.7774 21.9387 21.1092 21.3264 21.3354C20.8796 21.5223 20.4419 21.6731 20.0109 21.7967C19.5976 21.9153 19.1905 22.0089 18.7877 22.0854C18.6917 22.1033 18.596 22.12 18.5009 22.1354C16.9993 22.3779 15.6152 22.3048 14.4141 22.0963C14.3603 22.087 14.307 22.0774 14.254 22.0676C13.7797 21.9763 13.3371 21.8692 12.9261 21.7502C12.4727 21.6188 12.0577 21.4729 11.681 21.3176C11.2778 21.1599 10.8403 20.968 10.4027 20.7239C10.3755 20.7054 10.3484 20.6917 10.3212 20.6779C10.2961 20.6653 10.271 20.6526 10.2459 20.6362C10.2311 20.6294 10.2196 20.6223 10.2099 20.6164C10.1962 20.608 10.1862 20.6019 10.1757 20.6019C9.86061 20.4278 9.68586 20.3057 9.68586 20.3057C9.68586 20.3057 9.80586 20.5027 10.0753 20.7836C10.0896 20.7985 10.1043 20.8136 10.1195 20.829C10.1279 20.8376 10.1365 20.8462 10.1453 20.8549C10.1552 20.8649 10.1654 20.8749 10.1757 20.885C10.1984 20.9073 10.222 20.93 10.2465 20.9531C10.2527 20.9589 10.2589 20.9647 10.2652 20.9706C10.5488 21.2351 10.945 21.543 11.4719 21.8248C11.4748 21.8264 11.4778 21.8279 11.4808 21.8295C11.5286 21.855 11.5776 21.8803 11.6276 21.9053C11.9538 22.0684 12.3263 22.2201 12.7487 22.3459C12.6327 22.4924 12.5107 22.6441 12.3909 22.7915C12.2425 22.9742 12.0976 23.1502 11.9722 23.3017ZM14.9722 17.6048C14.9888 16.5408 14.1852 15.6866 13.1863 15.6866C12.1873 15.6866 11.4003 16.5408 11.4003 17.6048C11.4003 18.6687 12.2066 19.5229 13.1863 19.5229C14.1852 19.5229 14.9722 18.6687 14.9722 17.6048ZM13.8214 17.5958L13.8216 17.5869C13.829 17.1072 13.4858 16.8375 13.1863 16.8375C12.9023 16.8375 12.5511 17.0941 12.5511 17.6048C12.5511 18.1071 12.9137 18.372 13.1863 18.372C13.4703 18.372 13.8214 18.1155 13.8214 17.6048V17.5958ZM18.9396 17.6048C18.9396 18.1071 19.3022 18.372 19.5748 18.372C19.8588 18.372 20.2099 18.1155 20.2099 17.6048C20.2099 17.0941 19.8588 16.8375 19.5748 16.8375C19.2908 16.8375 18.9396 17.0941 18.9396 17.6048ZM17.7888 17.6048C17.7888 18.6687 18.5951 19.5229 19.5748 19.5229C20.5737 19.5229 21.3608 18.6687 21.3608 17.6048C21.3608 16.5408 20.5737 15.6866 19.5748 15.6866C18.5758 15.6866 17.7888 16.5408 17.7888 17.6048Z" fill="url(#paint4_linear_6425_1432)"/>
<defs>
<filter id="filter0_di_6425_1432" x="1.8426" y="5.65163" width="29.2181" height="23.3144" filterUnits="userSpaceOnUse" color-interpolation-filters="sRGB">
<feFlood flood-opacity="0" result="BackgroundImageFix"/>
<feColorMatrix in="SourceAlpha" type="matrix" values="0 0 0 0 0 0 0 0 0 0 0 0 0 0 0 0 0 0 127 0" result="hardAlpha"/>
<feOffset dy="0.809024"/>
<feGaussianBlur stdDeviation="1.0787"/>
<feComposite in2="hardAlpha" operator="out"/>
<feColorMatrix type="matrix" values="0 0 0 0 0 0 0 0 0 0 0 0 0 0 0 0 0 0 0.25 0"/>
<feBlend mode="normal" in2="BackgroundImageFix" result="effect1_dropShadow_6425_1432"/>
<feBlend mode="normal" in="SourceGraphic" in2="effect1_dropShadow_6425_1432" result="shape"/>
<feColorMatrix in="SourceAlpha" type="matrix" values="0 0 0 0 0 0 0 0 0 0 0 0 0 0 0 0 0 0 127 0" result="hardAlpha"/>
<feOffset dy="-0.179783"/>
<feGaussianBlur stdDeviation="0.0898916"/>
<feComposite in2="hardAlpha" operator="arithmetic" k2="-1" k3="1"/>
<feColorMatrix type="matrix" values="0 0 0 0 0 0 0 0 0 0 0 0 0 0 0 0 0 0 0.11 0"/>
<feBlend mode="normal" in2="shape" result="effect2_innerShadow_6425_1432"/>
</filter>
<linearGradient id="paint0_linear_6425_1432" x1="15.3935" y1="9.29313" x2="19.3669" y2="24.9362" gradientUnits="userSpaceOnUse">
<stop stop-color="#322D37"/>
<stop offset="1" stop-color="#18151B"/>
</linearGradient>
<linearGradient id="paint1_linear_6425_1432" x1="15.1603" y1="7.06049" x2="20.6959" y2="27.3625" gradientUnits="userSpaceOnUse">
<stop stop-color="#322D37"/>
<stop offset="1" stop-color="#18151B"/>
</linearGradient>
<linearGradient id="paint2_linear_6425_1432" x1="9.3603" y1="11.2702" x2="17.4942" y2="23.53" gradientUnits="userSpaceOnUse">
<stop stop-color="#FF00A0"/>
<stop offset="1" stop-color="#9600FF"/>
</linearGradient>
<linearGradient id="paint3_linear_6425_1432" x1="15.3928" y1="9.24657" x2="19.1183" y2="24.4314" gradientUnits="userSpaceOnUse">
<stop stop-color="#F3F3F3"/>
<stop offset="1" stop-color="#8F8F95"/>
</linearGradient>
<linearGradient id="paint4_linear_6425_1432" x1="15.3922" y1="9.24661" x2="19.1178" y2="24.4315" gradientUnits="userSpaceOnUse">
<stop stop-color="#F3F3F3"/>
<stop offset="1" stop-color="#8F8F95"/>
</linearGradient>
</defs>
</svg>
