<?xml version="1.0" encoding="UTF-8" standalone="no"?><!DOCTYPE svg PUBLIC "-//W3C//DTD SVG 1.1//EN" "http://www.w3.org/Graphics/SVG/1.1/DTD/svg11.dtd"><svg width="100%" height="100%" viewBox="0 0 512 512" version="1.1" xmlns="http://www.w3.org/2000/svg" xmlns:xlink="http://www.w3.org/1999/xlink" xml:space="preserve" xmlns:serif="http://www.serif.com/" style="fill-rule:evenodd;clip-rule:evenodd;stroke-linejoin:round;stroke-miterlimit:2;"><g id="Foundation" transform="matrix(0.995261,0,0,0.995261,1.21325,1.21325)"><circle cx="256" cy="256" r="256" style="fill:url(#_Linear1);"/></g><g id="Sphere" transform="matrix(0.911974,0,0,0.911974,22.6276,22.5347)"><circle cx="256" cy="256" r="256" style="fill:url(#_Linear2);"/></g><g id="Shade" transform="matrix(0.973643,0,0,0.973643,6.76801,6.74739)"><path d="M338.867,30.915C430.463,64.658 495.86,152.752 495.86,256C495.86,388.341 388.415,495.785 256.074,495.785C152.826,495.785 64.732,430.388 30.989,338.793C70.098,405.281 142.398,449.946 225.047,449.946C349.213,449.946 450.02,349.139 450.02,224.973C450.02,142.323 405.355,70.024 338.867,30.915Z" style="fill:#160882;fill-opacity:0.09;"/></g><g id="Shine" transform="matrix(1.05883,0,0,1.05883,-15.065,-15.061)"><path d="M94.316,214.908C86.05,212.807 79.133,207.164 75.417,199.487C71.701,191.81 71.564,182.884 75.044,175.097C94.961,130.717 130.717,94.961 175.106,75.065C182.887,71.588 191.806,71.724 199.477,75.437C207.148,79.15 212.788,86.062 214.887,94.321C214.982,94.608 215.056,94.899 215.13,95.189C218.444,108.228 211.831,121.749 199.504,127.139C167.465,141.201 141.664,166.876 127.422,198.82C121.778,211.526 107.797,218.312 94.323,214.888C94.317,214.908 94.317,214.908 94.316,214.908Z" style="fill:#fff;fill-opacity:0.17;"/></g><g id="Flash2" transform="matrix(17.7749,0,0,17.7749,81.2694,77.6712)"><path d="M6.803,18.998C6.609,18.871 9.801,12.328 9.686,12.019L15.251,11.06C13.877,13.072 6.97,19.108 6.803,18.998Z" style="fill:url(#_Linear3);fill-rule:nonzero;"/></g><g id="Flash1" transform="matrix(17.7749,0,0,17.7749,81.2694,77.6712)"><path d="M15.42,10.739C14.75,12.431 11.917,12.901 9.734,12.033C9.734,12.033 5.672,10.862 4.258,9.55C3.841,9.162 13.01,0.843 13.199,1.001C13.388,1.159 10.07,8.239 10.16,8.47C10.251,8.7 15.635,10.194 15.42,10.739Z" style="fill:url(#_Linear4);fill-rule:nonzero;"/></g><defs><linearGradient id="_Linear1" x1="0" y1="0" x2="1" y2="0" gradientUnits="userSpaceOnUse" gradientTransform="matrix(407.525,1.17563e-06,-296.108,1.61799e-06,60.8348,95.2579)"><stop offset="0" style="stop-color:#fff6ff;stop-opacity:1"/><stop offset="1" style="stop-color:#fff;stop-opacity:1"/></linearGradient><linearGradient id="_Linear2" x1="0" y1="0" x2="1" y2="0" gradientUnits="userSpaceOnUse" gradientTransform="matrix(175.419,476.72,-481.741,177.267,183.69,14.1919)"><stop offset="0" style="stop-color:#ec009c;stop-opacity:1"/><stop offset="1" style="stop-color:#8e00f2;stop-opacity:1"/></linearGradient><linearGradient id="_Linear3" x1="0" y1="0" x2="1" y2="0" gradientUnits="userSpaceOnUse" gradientTransform="matrix(-0.838803,7.19011,-16.1797,-1.88753,11.5283,12.0153)"><stop offset="0" style="stop-color:#e9aaf1;stop-opacity:1"/><stop offset="0.04" style="stop-color:#f8bcfb;stop-opacity:1"/><stop offset="0.08" style="stop-color:#fdc3ff;stop-opacity:1"/><stop offset="1" style="stop-color:#fff;stop-opacity:1"/></linearGradient><linearGradient id="_Linear4" x1="0" y1="0" x2="1" y2="0" gradientUnits="userSpaceOnUse" gradientTransform="matrix(1.54718,1.19867e-06,-1.15838,1.601e-06,9.63818,4.85962)"><stop offset="0" style="stop-color:#fdc2ff;stop-opacity:1"/><stop offset="1" style="stop-color:#fff;stop-opacity:1"/></linearGradient></defs></svg>